<?xml version="1.0" standalone="no"?>
<svg version="1.0" xmlns="http://www.w3.org/2000/svg"
 width="512.000000pt" height="512.000000pt" viewBox="0 0 512.000000 512.000000"
 preserveAspectRatio="xMidYMid meet">
<metadata>
Created by potrace 1.16, written by Peter Selinger 2001-2019
</metadata>
<g transform="translate(0.000000,512.000000) scale(0.100000,-0.100000)"
fill="#000000" stroke="none">
<path fill="green" d="M16 5048 c-11 -142 -16 -503 -8 -533 l8 -30 56 53 c30 28 61 52 69
52 8 -1 28 -9 45 -18 l32 -17 -107 -76 -106 -75 -3 -482 -2 -482 21 0 c20 0
20 -3 14 -92 -7 -88 -16 -161 -31 -237 -6 -30 -5 -33 12 -23 24 13 52 -1 64
-34 5 -13 15 -24 22 -24 7 0 36 -11 63 -25 l50 -25 -58 4 -57 5 20 -29 c11
-15 20 -31 20 -35 0 -16 -74 5 -107 31 -30 23 -34 24 -31 8 1 -11 24 -30 51
-44 28 -15 47 -32 47 -42 0 -19 -17 -16 -58 10 -37 24 -42 4 -42 -165 0 -142
1 -153 19 -153 26 0 81 -20 81 -30 0 -5 -24 -11 -52 -13 l-53 -3 53 -2 c39 -2
52 -6 52 -17 0 -8 6 -15 13 -16 45 -2 140 -19 199 -36 10 -2 18 -11 18 -19 0
-8 -1 -14 -3 -14 -1 0 -34 7 -72 15 -39 8 -112 14 -165 13 -64 -1 -76 -3 -35
-5 162 -9 325 -41 325 -65 0 -7 -16 -9 -45 -6 -33 4 -48 2 -53 -9 -7 -11 -17
-12 -56 -3 -26 6 -87 13 -136 17 l-90 6 0 -595 0 -594 58 0 c85 0 260 -22 322
-42 l55 -17 -55 -7 c-346 -43 -380 -51 -380 -83 0 -18 5 -20 34 -17 24 3 37
11 45 28 13 30 31 31 31 2 0 -13 -11 -75 -24 -138 -14 -63 -23 -116 -22 -118
2 -1 22 5 46 13 91 32 245 56 385 60 77 3 131 2 120 -1 -11 -3 -65 -17 -120
-30 -192 -47 -428 -138 -450 -174 -9 -14 -5 -13 51 14 75 36 89 37 87 3 -1
-21 2 -27 12 -23 28 10 459 -24 510 -40 52 -17 105 -49 105 -64 0 -4 -32 1
-72 11 -39 11 -99 19 -133 19 -89 0 -238 -28 -330 -62 -96 -34 -122 -52 -108
-70 6 -7 14 -33 17 -58 l7 -45 -38 45 c-21 25 -60 69 -87 99 l-49 54 44 39
c44 39 25 37 -33 -4 -46 -32 -37 -58 53 -160 45 -51 77 -94 71 -96 -6 -2 -43
11 -82 27 l-71 31 2 -195 2 -195 45 0 45 0 -7 60 c-9 77 5 128 46 167 45 42
74 55 121 55 43 -1 187 -59 187 -76 0 -6 -44 -55 -97 -108 l-98 -98 208 0
c114 0 207 2 207 5 0 3 -41 25 -91 51 -89 44 -91 46 -69 61 20 14 25 14 60 -2
21 -9 64 -39 96 -66 33 -27 69 -49 82 -49 21 0 20 4 -25 93 -26 50 -49 95 -51
99 -5 10 53 20 81 13 28 -7 48 -46 71 -138 8 -33 17 -61 19 -63 2 -3 44 -4 93
-2 l89 3 -85 31 c-100 37 -119 60 -41 51 31 -4 82 -22 129 -47 l78 -40 145 0
c103 0 160 5 199 16 34 10 120 19 227 23 95 4 176 10 179 13 3 4 -7 15 -22 25
-23 14 -55 19 -168 23 l-141 5 -55 41 c-30 23 -70 49 -88 58 -42 21 -138 34
-128 18 4 -7 17 -12 29 -12 42 0 248 -112 234 -127 -3 -2 -38 7 -77 21 -104
38 -311 72 -284 47 5 -5 27 -14 49 -21 53 -17 132 -57 141 -72 5 -8 2 -9 -12
-4 -63 24 -141 38 -229 41 -68 3 -122 11 -170 26 -38 12 -76 24 -83 25 -26 7
-1 23 54 35 42 9 51 15 39 21 -9 6 -34 5 -63 -1 -25 -5 -50 -7 -54 -5 -4 3 -8
20 -8 38 l0 34 62 -14 c35 -7 64 -11 66 -9 9 9 -14 29 -55 47 -36 16 -57 18
-111 13 -64 -6 -159 -30 -174 -44 -4 -4 10 -31 31 -61 41 -59 95 -170 82 -170
-4 0 -20 14 -37 31 -38 40 -151 132 -237 193 -63 45 -119 117 -103 134 9 8
112 -35 167 -69 l46 -29 59 35 c89 54 121 60 304 60 134 0 171 -3 195 -17 l30
-16 -50 -7 c-86 -13 -95 -19 -88 -59 3 -21 1 -42 -6 -49 -19 -24 0 -27 37 -6
20 10 47 19 59 19 26 0 31 18 8 26 -24 10 -18 19 30 43 49 24 54 35 28 50 -13
8 14 10 98 11 103 0 118 2 134 20 10 11 16 22 13 25 -3 3 -46 12 -97 20 -50 9
-106 21 -124 29 l-32 14 40 17 c32 14 56 16 121 11 79 -6 81 -5 92 20 7 14 12
29 12 34 0 13 -37 13 -42 0 -2 -6 -45 -12 -98 -13 -72 -2 -107 -9 -144 -25
-57 -26 -62 -27 -47 -8 21 25 150 77 218 88 38 6 71 16 75 22 5 7 161 11 487
11 263 0 482 3 486 7 4 4 4 12 0 19 -6 9 -88 10 -353 4 -264 -5 -346 -4 -352
5 -4 7 -29 15 -54 17 l-47 6 21 19 c19 18 40 21 211 26 104 3 192 9 195 13 3
5 -82 9 -188 9 -160 0 -197 -3 -216 -16 -12 -8 -30 -14 -40 -12 -12 3 -4 12
29 31 39 23 58 27 130 28 46 1 98 4 114 8 l30 7 -34 7 c-19 4 -97 10 -175 13
l-141 6 -58 -30 -57 -31 31 47 c18 26 47 66 66 90 19 23 29 42 22 42 -7 0 -45
-18 -85 -40 -82 -45 -92 -48 -74 -22 7 9 -2 1 -19 -18 -27 -29 -31 -31 -31
-14 0 19 49 101 101 168 l22 28 -29 -15 c-36 -19 -98 -82 -117 -120 l-15 -29
-26 45 c-38 65 -49 72 -86 57 -36 -15 -36 -17 -6 -49 13 -15 31 -38 41 -54 17
-26 17 -27 0 -20 -15 5 -17 3 -12 -12 4 -10 -16 7 -45 36 -45 46 -50 55 -36
61 22 9 24 22 3 14 -28 -10 3 32 35 49 40 21 53 19 80 -10 13 -14 28 -25 34
-25 5 0 -8 18 -29 41 -34 34 -45 39 -69 35 -28 -6 -28 -5 -13 12 10 10 17 22
17 25 0 16 -46 5 -77 -19 l-33 -25 -1 23 -1 23 -7 -24 c-5 -19 -8 -21 -17 -10
-12 16 -44 94 -44 109 0 6 23 1 52 -10 48 -18 52 -18 64 -3 10 15 14 15 28 4
9 -7 16 -11 16 -7 0 4 13 0 29 -8 36 -19 91 -81 91 -104 0 -9 11 -30 24 -47
20 -25 26 -28 40 -16 14 12 14 16 1 42 -9 15 -25 33 -36 39 -11 7 -38 29 -58
49 -21 21 -52 47 -70 57 -17 10 -31 22 -31 26 0 15 26 8 43 -12 21 -25 59 -26
74 -1 6 10 26 21 44 25 46 9 32 16 -60 29 l-81 12 15 28 c14 27 13 30 -10 53
-23 23 -52 34 -41 15 7 -10 -13 -111 -21 -111 -3 0 -25 20 -50 45 -25 24 -55
47 -65 51 -17 5 -19 12 -14 62 3 32 8 110 12 175 6 116 7 117 33 123 14 3 30
7 35 8 5 1 -4 14 -20 29 l-29 27 53 0 c52 0 66 11 36 28 -9 5 -31 5 -55 -2
-21 -5 -41 -7 -45 -4 -12 12 7 68 24 68 14 0 14 1 -1 13 -15 10 -8 18 58 61
70 45 90 66 64 66 -6 0 -37 -21 -70 -46 -33 -25 -62 -44 -64 -42 -3 2 -2 28 2
57 l6 53 34 -7 c84 -15 88 18 8 70 l-46 30 5 85 c3 47 9 161 12 253 7 160 8
169 29 177 11 4 50 25 86 45 63 36 63 37 25 31 -21 -3 -57 -17 -78 -31 -22
-15 -42 -24 -45 -21 -9 8 9 426 18 426 5 0 42 -21 84 -46 42 -25 79 -43 83
-39 4 4 -2 14 -14 23 -11 10 -39 34 -63 54 l-43 37 39 10 c21 6 48 11 61 11
20 0 22 -5 22 -46 0 -27 6 -51 15 -60 13 -13 15 -2 17 88 l3 103 28 3 29 4 -4
-160 c-1 -88 -5 -163 -8 -165 -3 -3 -22 -7 -42 -10 -28 -4 -38 -1 -41 12 -4
14 -5 14 -6 -1 -1 -17 -10 -21 -68 -33 -18 -4 -36 -11 -39 -17 -5 -7 2 -9 21
-4 72 18 85 19 85 3 0 -10 6 -13 20 -10 11 3 20 9 20 14 0 5 12 9 27 9 l26 0
-4 -282 c-3 -156 -3 -262 -1 -236 5 71 35 83 85 34 12 -13 15 20 21 246 7 237
6 261 -10 279 -16 18 -16 24 2 121 15 81 20 173 24 438 6 391 21 427 29 70 6
-245 3 -288 -40 -499 -21 -103 -21 -106 -3 -116 11 -5 36 -28 57 -50 33 -35
44 -26 14 13 -7 9 0 12 31 12 23 0 43 -4 47 -9 3 -6 0 -41 -6 -78 -6 -37 -13
-80 -15 -95 -8 -64 -48 -205 -64 -233 -10 -16 -39 -133 -65 -260 -25 -126 -57
-270 -71 -320 -30 -112 -30 -113 4 -121 15 -4 30 -8 33 -10 4 -2 -1 -43 -11
-91 -33 -167 -33 -158 -5 -173 25 -14 26 -15 19 -96 l-7 -82 44 -32 c55 -40
137 -82 148 -76 4 3 59 14 122 26 62 11 119 26 126 33 16 16 69 205 83 296 10
73 6 90 -21 91 -4 0 -12 -44 -19 -99 l-13 -98 -56 33 -57 34 11 94 c5 52 13
97 17 101 7 7 83 -29 93 -45 8 -13 62 -13 70 -1 3 5 28 153 57 328 29 182 57
325 64 334 22 24 17 29 -29 29 l-43 0 15 91 16 91 10 -42 c11 -47 36 -70 76
-70 24 0 27 -4 33 -46 3 -26 6 -71 6 -100 0 -41 4 -54 15 -54 12 0 15 -19 15
-109 0 -102 2 -111 22 -125 12 -9 31 -16 41 -16 16 0 18 -7 15 -52 l-3 -53
-85 -42 c-97 -48 -130 -82 -130 -134 0 -49 40 -169 100 -298 26 -58 67 -166
90 -238 63 -203 155 -439 184 -474 18 -21 25 -37 19 -48 -9 -21 -6 -105 7
-150 5 -20 10 -52 10 -72 0 -24 7 -42 23 -57 l22 -21 119 20 c65 12 130 18
143 14 39 -9 25 -14 -67 -20 -47 -3 -111 -10 -142 -16 -48 -8 -62 -7 -83 7
-18 12 -35 14 -62 10 -80 -15 -81 -17 -23 -47 l55 -28 433 -1 434 0 31 23 c30
20 45 22 227 27 l195 5 -60 24 c-53 21 -80 24 -236 29 l-177 4 5 -26 5 -26
-218 0 -219 1 80 31 c44 17 82 32 84 34 8 7 -33 46 -130 125 -100 82 -109 97
-109 171 0 49 25 27 28 -25 3 -46 5 -48 96 -121 51 -41 106 -88 122 -105 l29
-31 170 -8 c266 -13 805 -15 805 -3 0 5 -8 12 -17 15 -10 2 -205 8 -434 12
-383 6 -418 8 -440 25 -24 18 -21 19 168 19 199 0 223 3 223 26 0 11 33 14
180 14 111 0 180 4 180 10 0 5 -12 18 -27 27 -24 16 -58 18 -275 21 -212 3
-251 1 -270 -12 -12 -9 -31 -16 -41 -16 -14 0 -6 14 34 60 l52 60 -8 57 c-4
32 -7 76 -7 98 1 22 -5 74 -12 115 -8 41 -17 113 -21 160 -11 157 -36 312 -97
600 -42 200 -48 210 -129 210 -37 0 -41 3 -61 45 -20 42 -21 46 -5 57 15 11
16 24 9 95 -6 67 -5 83 6 88 11 4 13 18 10 55 l-5 49 51 3 51 3 7 45 c3 25 7
95 7 156 1 61 4 133 8 160 6 48 7 46 34 -86 15 -74 31 -144 34 -156 5 -17 -1
-25 -29 -42 -42 -25 -43 -28 -20 -178 29 -199 40 -151 14 61 -5 38 -6 73 -2
77 4 4 33 16 64 27 l57 20 5 -32 c3 -18 15 -97 26 -177 12 -79 23 -147 25
-150 2 -3 -29 -22 -68 -43 -40 -20 -66 -37 -59 -37 7 0 12 -15 12 -42 1 -73
28 -198 54 -252 14 -28 28 -70 32 -92 8 -53 11 -57 61 -83 23 -11 44 -25 48
-31 8 -13 50 -13 98 1 l38 10 -21 37 c-19 32 -19 35 -4 20 18 -15 23 -15 81 4
59 20 93 19 93 0 0 -5 -14 -12 -32 -16 -75 -15 -108 -28 -108 -41 0 -19 1 -19
85 5 40 11 80 30 95 45 51 50 97 84 123 90 15 4 27 12 27 17 0 5 -27 38 -59
71 -55 57 -60 67 -71 129 -17 94 -14 100 35 83 22 -8 48 -24 58 -37 14 -17 22
-20 35 -12 37 24 37 38 8 216 -46 289 -50 302 -111 368 -50 54 -53 61 -68 146
-32 177 -32 175 -8 193 l22 17 -21 240 c-12 131 -23 248 -25 259 -5 22 -111
115 -173 152 l-37 22 -115 -29 c-63 -17 -122 -30 -130 -30 -13 0 -14 35 -6
290 l8 290 -31 49 c-20 30 -42 51 -57 55 l-25 7 7 143 c4 79 4 155 1 168 -5
19 -22 32 -69 52 -35 15 -74 35 -88 44 -23 15 -63 16 -415 13 -442 -3 -421 0
-514 -86 -61 -57 -58 -46 -60 -218 -1 -104 -2 -108 -26 -119 -14 -6 -27 -9
-30 -7 -9 9 8 119 19 119 6 0 11 11 11 25 0 14 -3 25 -7 25 -14 0 -8 51 7 67
12 12 13 18 4 29 -9 11 -8 18 1 29 17 21 9 26 -45 33 -38 4 -45 8 -40 23 4 13
-2 22 -22 33 l-28 15 43 1 c23 0 42 -4 42 -10 0 -17 17 -11 48 15 19 15 42 25
62 25 32 0 33 0 15 20 -10 11 -13 20 -7 20 7 0 12 5 12 10 0 6 -12 10 -26 10
-21 0 -24 3 -15 14 9 11 7 15 -9 19 -14 4 -20 13 -20 34 0 41 9 50 86 87 l69
33 -53 11 c-29 7 -60 12 -67 12 -8 0 -15 5 -15 10 0 6 -6 10 -13 10 -9 0 -12
10 -9 30 l4 30 74 -7 c51 -4 74 -3 74 5 0 14 -33 32 -59 32 -30 0 -26 28 4 36
36 9 22 21 -40 34 l-55 11 0 39 c0 36 4 41 45 66 25 14 44 29 41 31 -3 3 -20
-4 -39 -16 -42 -26 -47 -26 -47 -1 0 11 -7 20 -15 20 -11 0 -15 -17 -17 -72
l-3 -73 -35 3 c-41 5 -49 10 -31 21 8 5 10 14 6 21 -5 9 -26 11 -66 7 -33 -3
-61 -1 -64 3 -3 5 11 21 30 36 21 15 32 31 27 36 -12 12 -105 22 -137 14 -29
-7 -25 -26 6 -26 20 0 26 -24 9 -35 -6 -3 -7 -17 -4 -31 8 -30 -8 -31 -47 -3
-24 17 -29 28 -29 60 0 54 -27 54 -36 -1 -4 -24 -12 -40 -20 -40 -10 0 -14 13
-14 40 l0 40 -75 0 -75 0 0 -69 0 -70 34 6 c18 3 36 1 39 -3 3 -5 -15 -10 -39
-12 -33 -2 -59 5 -101 27 -54 27 -56 29 -35 40 12 6 22 16 22 21 0 16 -85 60
-116 60 l-29 0 34 -22 c35 -22 35 -22 10 -29 -47 -13 -75 -9 -119 21 l-45 30
-332 0 -333 0 0 -22 c0 -22 -35 -37 -174 -76 -17 -5 -18 -1 -12 46 l7 52 -45
0 -44 0 -6 -77 c-3 -43 -9 -140 -12 -215 -4 -81 -10 -135 -16 -132 -5 3 -7 45
-4 97 18 298 18 327 3 327 -12 0 -17 -17 -21 -72z m624 45 c0 -9 8 -25 17 -35
17 -19 31 -108 16 -108 -4 1 -29 20 -55 45 -37 33 -48 50 -48 73 0 26 4 31 28
35 15 2 30 5 35 6 4 0 7 -7 7 -16z m116 -110 c-3 -42 -6 -141 -6 -220 0 -133
-7 -169 -25 -125 -4 9 -9 104 -11 209 -3 173 -1 194 14 202 32 19 35 12 28
-66z m-417 -35 c-1 -107 -17 -95 -18 13 -1 57 3 79 16 79 2 0 3 -42 2 -92z
m-29 3 l0 -68 -82 -35 c-51 -21 -84 -31 -86 -24 -1 6 1 42 5 80 l8 68 60 23
c94 37 95 36 95 -44z m601 5 c45 -46 56 -53 72 -44 15 8 30 3 70 -22 40 -25
55 -29 72 -22 15 7 29 5 49 -5 29 -15 29 -19 5 -80 -16 -39 -7 -51 25 -33 20
10 30 10 55 -1 28 -13 31 -18 31 -62 l0 -48 -63 48 c-34 27 -79 59 -100 72
-45 27 -47 35 -7 26 53 -12 33 12 -40 49 l-70 35 -44 -16 -43 -16 -42 34 c-38
32 -41 37 -41 87 0 28 4 52 9 52 5 0 33 -24 62 -54z m-275 -22 c32 -25 61 -51
63 -57 4 -11 -89 52 -124 85 -39 36 3 17 61 -28z m888 -21 c7 -16 -8 -17 -37
-1 -23 12 -46 37 -47 51 0 12 78 -34 84 -50z m123 12 c47 -27 63 -41 63 -58 1
-22 1 -22 15 -2 14 18 16 18 32 2 16 -16 16 -18 -3 -38 l-21 -20 -84 33 c-75
30 -84 37 -87 62 -4 30 3 56 14 56 4 0 36 -16 71 -35z m261 -49 c4 -18 -12
-36 -34 -36 -8 0 -56 58 -88 109 -4 7 20 -2 55 -20 38 -20 65 -42 67 -53z
m-1241 -14 c20 -16 21 -23 16 -99 -7 -93 -6 -93 -86 -68 -34 10 -47 11 -45 3
5 -14 63 -36 98 -37 17 -1 37 -16 65 -51 24 -30 48 -49 61 -50 12 0 49 -26 84
-58 l63 -57 -139 0 c-77 0 -175 -4 -219 -9 l-80 -9 19 22 c38 42 -2 20 -70
-39 l-69 -60 -65 0 -65 0 54 38 c30 20 110 77 178 125 l124 88 32 -20 c18 -11
46 -25 62 -31 l30 -10 -25 20 c-14 10 -44 30 -67 42 -41 22 -42 22 -62 4 -12
-11 -23 -17 -25 -15 -2 2 3 78 10 169 7 91 13 169 14 173 0 7 48 -24 107 -71z
m837 22 c50 -25 88 -53 56 -42 -60 22 -130 54 -130 61 0 13 21 8 74 -19z
m-1194 -136 c0 -113 0 -113 -27 -125 -22 -11 -37 -10 -85 3 l-59 17 3 76 3 75
75 33 c41 17 78 32 83 32 4 1 7 -50 7 -111z m567 58 c-9 -26 -27 -15 -27 16 1
31 1 32 15 13 9 -10 14 -24 12 -29z m1033 -10 c0 -33 -9 -37 -50 -19 -33 14
-34 15 -16 29 11 8 30 14 43 14 18 0 23 -6 23 -24z m-215 -16 c3 -5 1 -19 -6
-31 -6 -12 -12 -43 -13 -70 -1 -54 -1 -54 -36 -34 -14 8 -40 14 -57 15 -28 0
-33 4 -31 23 0 12 -3 34 -7 50 -8 31 -5 33 36 11 19 -9 41 -13 60 -9 34 8 35
12 12 37 -15 17 -15 18 10 18 14 0 29 -4 32 -10z m318 -20 c28 0 20 -17 -14
-29 -18 -6 -33 -11 -34 -11 -2 0 -5 12 -8 26 -4 22 -2 25 17 20 11 -3 29 -6
39 -6z m-612 -13 c-1 -4 -1 -34 -1 -67 0 -33 -4 -60 -10 -60 -6 0 -10 30 -10
71 0 46 4 69 11 67 6 -2 10 -7 10 -11z m509 -27 c0 -31 -17 -39 -37 -19 -16
16 -4 49 18 49 14 0 19 -7 19 -30z m-439 0 c24 -11 38 -20 32 -20 -9 0 -13
-19 -13 -61 0 -57 -1 -60 -22 -57 -21 3 -23 8 -22 68 1 49 -3 68 -15 77 -24
18 -9 16 40 -7z m341 -52 c24 -7 42 -8 46 -2 4 5 17 10 30 12 21 3 23 0 20
-34 -3 -34 -6 -38 -47 -50 -43 -13 -45 -12 -78 17 -19 16 -38 29 -44 29 -6 0
-7 5 -4 10 3 6 0 10 -7 11 -7 0 -4 4 7 9 27 12 32 12 77 -2z m-911 -18 c13 -8
25 -7 40 0 17 10 27 7 58 -13 l37 -25 28 20 c35 26 49 14 37 -30 -9 -31 -9
-32 52 -66 34 -19 74 -40 90 -47 44 -20 32 -29 -38 -29 -36 0 -65 -4 -65 -8 0
-5 22 -19 50 -32 27 -13 56 -31 64 -39 15 -17 17 -74 3 -87 -12 -12 -100 -44
-121 -44 -19 0 -19 -1 -1 -20 18 -20 18 -21 -1 -14 -10 4 -38 20 -61 36 -23
15 -47 28 -53 28 -10 0 -76 27 -88 36 -2 1 6 12 18 24 16 16 38 23 91 27 38 3
69 9 69 12 0 3 -18 17 -41 31 -39 24 -40 26 -34 68 6 41 6 42 -22 41 -15 0
-44 -6 -63 -14 -35 -12 -35 -12 -77 33 -32 34 -43 54 -43 78 0 26 5 34 23 37
12 2 23 5 25 6 2 0 12 -4 23 -9z m851 -62 c-6 -6 -15 -8 -19 -4 -4 4 -1 11 7
16 19 12 27 3 12 -12z m-1392 -57 l0 -69 -82 -58 -83 -58 68 -30 c64 -28 68
-32 63 -57 -3 -14 -7 -102 -10 -195 -5 -179 5 -132 19 86 l7 115 63 70 c51 56
65 67 77 58 8 -7 24 -10 36 -6 21 5 22 2 22 -59 l0 -65 -78 -71 -79 -71 -17
-213 c-9 -117 -22 -271 -27 -343 -6 -71 -12 -131 -14 -133 -5 -5 -168 39 -178
48 -5 4 -4 74 2 156 6 82 16 240 23 351 l12 203 58 27 c32 14 56 29 53 31 -2
3 -45 -10 -95 -28 -50 -17 -94 -30 -97 -26 -3 3 -2 61 2 130 l7 125 66 44 c96
64 166 107 175 107 4 0 7 -31 7 -69z m76 17 c5 -27 2 -37 -10 -41 -13 -5 -16
2 -16 45 0 59 17 56 26 -4z m1182 43 c11 -6 7 -13 -14 -30 -36 -28 -44 -27
-44 9 0 24 4 30 23 30 12 0 28 -4 35 -9z m1252 -176 l0 -75 -147 0 c-82 0
-259 -3 -395 -7 l-248 -6 0 65 c0 57 3 66 23 76 24 13 119 17 510 20 l257 2 0
-75z m119 27 l75 -37 -2 -95 c-4 -166 -12 -210 -37 -220 -13 -5 -27 -15 -31
-22 -4 -7 -15 -147 -24 -311 -17 -296 -17 -298 -42 -324 l-25 -25 -409 -5
c-474 -5 -460 -7 -457 73 9 194 43 817 45 820 6 5 758 26 771 21 9 -3 10 -42
3 -166 -4 -89 -6 -165 -3 -168 19 -18 26 33 32 244 4 131 9 241 12 246 6 11
12 9 92 -31z m-940 -202 c-25 -627 -34 -770 -48 -770 -3 0 -16 18 -28 39 l-23
39 16 324 c8 177 15 361 15 408 -1 84 -1 85 36 122 20 21 37 37 38 35 1 -1 -2
-90 -6 -197z m-1211 82 c2 -51 0 -62 -13 -62 -12 0 -15 13 -15 66 0 48 3 65
13 62 7 -3 13 -28 15 -66z m635 -96 c-4 -106 -10 -155 -17 -153 -7 2 -12 55
-14 148 -2 126 0 145 14 156 10 7 19 11 21 10 1 -2 0 -74 -4 -161z m146 144
c11 -6 14 -24 12 -66 -1 -33 -5 -61 -7 -63 -2 -3 -18 8 -34 24 -25 24 -30 36
-30 78 0 46 1 48 23 41 12 -3 28 -10 36 -14z m-209 -80 c0 -56 -3 -70 -15 -70
-12 0 -15 14 -15 70 0 56 3 70 15 70 12 0 15 -14 15 -70z m-698 41 c4 -3 4
-12 -1 -19 -6 -10 -13 -11 -34 -1 -27 12 -32 20 -20 32 7 7 43 0 55 -12z
m1048 -11 c0 -13 -37 -13 -45 0 -3 6 -3 15 0 20 7 12 45 -5 45 -20z m107 -35
c3 -9 3 -18 0 -21 -7 -8 -47 15 -47 26 0 16 40 11 47 -5z m-254 -150 l-7 -90
-12 65 c-7 35 -15 87 -19 115 l-6 50 25 -25 c25 -24 25 -28 19 -115z m118 84
l16 -50 -30 -16 -30 -15 7 32 c3 18 6 48 6 66 0 49 12 42 31 -17z m-902 4
c-48 -61 -151 -183 -159 -188 -37 -23 35 81 113 163 40 41 73 59 46 25z m-177
-334 l3 -245 -90 68 -89 68 3 122 c3 122 3 123 42 188 21 37 39 73 39 81 0 8
19 24 43 36 l42 20 2 -46 c2 -25 4 -157 5 -292z m608 251 l0 -61 -27 14 c-16
8 -40 17 -55 21 -40 9 -62 34 -47 53 11 12 14 12 21 -1 12 -22 21 -20 64 9 20
14 38 25 40 25 2 0 4 -27 4 -60z m300 -20 c6 -36 18 -77 26 -92 8 -15 14 -54
14 -87 0 -52 -3 -62 -26 -80 -15 -11 -30 -18 -35 -15 -5 3 -9 85 -9 182 0 182
8 206 30 92z m314 8 c-1 -35 -6 -143 -10 -240 l-7 -177 33 -32 c32 -33 32 -34
28 -112 -6 -91 3 -107 92 -172 28 -20 50 -40 50 -44 0 -10 -74 1 -255 38 -180
37 -198 38 -238 9 -53 -38 -140 -89 -144 -84 -2 2 12 16 31 31 l36 27 2 156 3
157 28 3 27 3 0 -140 c0 -78 3 -141 8 -141 4 0 6 20 4 45 -5 64 9 78 73 73
l50 -4 -3 70 c-2 39 -1 112 3 162 l7 92 31 10 32 11 -35 -2 -35 -2 3 130 c2
72 8 134 12 138 4 5 20 10 34 10 14 1 28 9 31 18 5 14 89 40 106 32 4 -1 5
-31 3 -65z m-466 4 c3 -25 -1 -32 -15 -32 -15 0 -16 -2 -3 -11 10 -7 11 -9 2
-7 -8 2 -13 7 -13 11 1 4 1 23 1 43 0 45 24 42 28 -4z m-301 -7 c29 -19 74
-43 100 -54 46 -18 48 -21 51 -60 l3 -42 -30 16 c-31 15 -31 15 -31 -10 0 -28
-15 -32 -66 -13 -29 10 -36 9 -54 -7 l-20 -18 21 -11 c29 -15 46 -43 34 -54
-6 -5 -25 -12 -42 -15 -38 -7 -38 -7 -48 106 l-6 67 33 0 c18 0 51 12 73 25
25 16 33 25 22 25 -10 0 -28 -7 -40 -15 -21 -14 -26 -12 -60 16 -24 20 -37 39
-37 55 0 35 34 31 97 -11z m-159 -2 c2 -14 -4 -26 -17 -33 -19 -10 -21 -8 -21
25 0 29 3 36 18 33 9 -2 18 -13 20 -25z m-99 -410 l1 -242 -32 -15 c-17 -9
-32 -15 -34 -14 -1 2 -4 93 -5 203 l-4 201 33 41 c38 48 39 53 12 53 -11 0
-20 -5 -20 -11 0 -20 -94 -129 -104 -119 -5 5 10 31 38 63 43 51 46 57 46 113
0 48 5 67 28 99 l27 40 7 -85 c3 -47 6 -194 7 -327z m101 337 c0 -13 -7 -20
-20 -20 -22 0 -28 25 -7 33 22 10 27 7 27 -13z m986 -82 c-4 -57 -8 -140 -9
-184 -1 -61 -5 -80 -15 -77 -21 8 -25 48 -20 196 4 147 8 167 35 167 13 0 14
-14 9 -102z m-1790 22 c-5 -63 -10 -74 -39 -100 -36 -33 -52 -38 -43 -14 3 9
6 43 6 77 0 59 2 63 33 84 17 12 36 22 41 22 5 1 6 -30 2 -69z m1263 33 c-1
-21 -1 -64 0 -95 1 -55 2 -58 26 -58 20 0 25 -5 25 -25 0 -14 -4 -25 -9 -25
-5 0 -23 -3 -40 -6 l-31 -7 1 127 c1 104 4 126 16 126 11 0 14 -10 12 -37z
m52 24 c-1 -4 -1 -34 -1 -67 0 -33 -4 -60 -10 -60 -6 0 -10 30 -10 71 0 46 4
69 11 67 6 -2 10 -7 10 -11z m1639 -99 c0 -62 -4 -118 -8 -125 -4 -7 -25 -15
-47 -18 l-40 -7 5 118 c5 114 6 119 30 131 57 29 60 24 60 -99z m-2138 -5 c2
-55 -1 -80 -9 -86 -7 -4 -13 -15 -13 -22 0 -8 -4 -15 -9 -15 -7 0 -21 100 -21
162 0 24 8 31 42 37 3 0 8 -34 10 -76z m2208 -57 c0 -66 -4 -117 -10 -121 -6
-4 -10 37 -10 114 0 74 4 121 10 121 6 0 10 -45 10 -114z m-2716 -30 l-7 -124
44 -27 c24 -16 70 -48 102 -72 l57 -44 0 -70 c0 -40 -4 -69 -9 -67 -6 2 -57
28 -115 58 -104 54 -139 89 -76 77 l30 -6 0 53 c0 44 -4 57 -26 77 -26 24 -26
24 -19 139 7 109 10 130 21 130 2 0 1 -56 -2 -124z m-318 -100 c-7 -59 -10
-65 -39 -80 l-32 -15 -3 52 c-3 49 -1 54 34 85 21 17 39 30 42 27 2 -2 1 -33
-2 -69z m1004 34 c0 -6 -15 -23 -32 -40 -28 -24 -31 -32 -22 -47 7 -11 20 -17
35 -14 57 9 54 17 54 -133 l0 -139 -42 -12 c-23 -7 -53 -15 -67 -19 l-26 -6 0
75 0 75 35 0 c19 0 35 5 35 10 0 6 -16 10 -35 10 l-35 0 0 104 0 105 33 3 c17
2 33 9 33 16 2 21 4 22 19 22 8 0 15 -5 15 -10z m-189 -10 c18 -10 19 -23 19
-215 0 -118 -4 -205 -9 -205 -5 0 -16 -3 -25 -6 -14 -5 -16 17 -16 215 0 122
3 221 6 221 3 0 14 -5 25 -10z m2190 -32 c8 -15 8 -18 0 -14 -6 4 -16 16 -22
28 -8 15 -8 18 0 14 6 -4 16 -16 22 -28z m-1871 2 c0 -5 -9 -10 -21 -10 -11 0
-17 5 -14 10 3 6 13 10 21 10 8 0 14 -4 14 -10z m0 -155 l0 -134 -30 -16 -30
-16 0 120 c0 128 8 167 37 174 10 3 19 5 21 6 1 0 2 -60 2 -134z m270 125 c0
-5 -9 -10 -20 -10 -11 0 -20 5 -20 10 0 6 9 10 20 10 11 0 20 -4 20 -10z
m1623 -235 l-8 -90 -49 -9 c-34 -6 -50 -14 -53 -27 -4 -13 -14 -19 -36 -19
-29 0 -29 1 -14 18 14 15 17 40 17 119 0 55 3 121 6 146 l7 45 51 7 c28 4 58
11 66 15 12 7 15 -2 18 -53 1 -34 -1 -102 -5 -152z m-3037 123 c-3 -29 -6 -69
-6 -90 0 -31 -4 -37 -32 -47 -17 -6 -33 -9 -35 -7 -2 2 -1 40 3 85 6 75 9 83
33 96 41 22 44 19 37 -37z m447 -153 l67 -39 0 -119 0 -118 -77 42 c-115 62
-116 63 -44 90 34 13 60 28 58 34 -2 5 -38 23 -80 39 l-77 29 0 65 0 64 43
-24 c23 -14 72 -42 110 -63z m1401 6 c-7 -7 -34 28 -34 43 1 6 10 0 21 -13 11
-13 17 -27 13 -30z m-1844 -25 c0 -8 -13 -19 -30 -25 -26 -9 -30 -8 -30 9 0
17 14 26 48 29 6 0 12 -5 12 -13z m715 -442 c-2 -12 -26 -35 -52 -53 -40 -25
-49 -28 -51 -15 -2 9 13 34 34 55 36 36 37 39 21 57 -15 16 -17 44 -17 198 l0
180 33 16 32 15 3 -216 c1 -119 0 -226 -3 -237z m-606 426 c36 -9 36 -10 33
-60 -4 -45 -1 -51 20 -59 l23 -9 -10 -155 c-5 -86 -13 -159 -17 -162 -7 -7
-37 8 -155 78 -46 27 -53 36 -53 62 0 68 22 97 39 51 7 -17 20 -25 48 -30 21
-3 48 -9 61 -12 20 -6 22 -3 22 39 0 44 -1 44 -37 51 -21 3 -52 6 -70 6 l-31
0 5 63 c2 34 9 84 15 111 12 53 9 53 107 26z m1025 -42 c-7 -52 -16 -68 -41
-68 -9 0 -13 16 -13 48 0 49 0 49 58 71 1 1 0 -23 -4 -51z m2194 44 c7 -5 18
-59 27 -133 9 -68 22 -169 31 -223 8 -54 13 -100 12 -101 -7 -4 -153 -44 -155
-42 -5 6 -43 345 -43 387 1 34 7 52 26 74 21 23 28 26 35 15 5 -8 9 -27 9 -42
0 -40 51 -391 57 -397 8 -8 -3 128 -26 299 -11 85 -17 159 -15 163 7 10 25 10
42 0z m-3090 -48 c4 -48 -9 -86 -24 -76 -15 10 -6 124 10 119 6 -2 12 -21 14
-43z m2964 9 l-32 -28 25 -235 c13 -129 27 -247 29 -261 4 -24 0 -27 -52 -44
-31 -10 -63 -20 -69 -22 -9 -4 -13 5 -13 26 0 38 -16 46 -64 33 -44 -13 -40
-24 -61 193 -8 88 -18 188 -21 222 -7 75 -14 70 156 113 143 36 141 36 102 3z
m282 -108 c2 -11 14 -105 26 -210 12 -104 28 -205 36 -225 8 -19 11 -30 6 -25
-4 6 -36 42 -69 80 l-61 71 -26 194 c-15 107 -29 206 -32 218 -4 20 5 15 56
-30 33 -29 62 -62 64 -73z m-3518 33 c-4 -52 -12 -89 -21 -98 -13 -13 -14 -7
-10 50 9 101 15 130 27 130 8 0 9 -25 4 -82z m1084 63 c0 -10 -6 -21 -14 -24
-7 -3 -41 -55 -75 -116 -57 -102 -81 -136 -81 -113 0 5 7 23 15 38 9 18 15 58
15 104 l1 75 57 27 c69 32 82 34 82 9z m605 -19 c140 -37 163 -51 124 -75 -12
-8 -57 -2 -162 21 -81 18 -155 32 -165 32 -16 0 -22 -21 -47 -162 -33 -191
-35 -209 -16 -216 10 -3 12 0 8 11 -3 9 5 74 18 144 13 70 27 145 30 166 5 30
10 37 23 33 9 -3 68 -15 130 -27 61 -12 112 -25 112 -29 0 -4 -9 -59 -20 -121
-23 -131 -23 -139 -9 -119 8 11 9 8 4 -14 -3 -15 -9 -41 -12 -57 -3 -16 -11
-33 -17 -38 -8 -7 -67 -5 -171 4 -212 20 -225 22 -225 43 1 30 58 333 64 339
25 25 155 102 171 102 11 0 83 -17 160 -37z m-815 -126 c0 -97 -2 -106 -22
-121 l-23 -15 -3 107 c-3 121 -1 133 28 133 19 0 20 -6 20 -104z m192 72 c-7
-7 -12 -8 -12 -2 0 14 12 26 19 19 2 -3 -1 -11 -7 -17z m106 -20 c-2 -28 -8
-34 -30 -36 -24 -3 -28 0 -28 22 0 24 22 45 48 46 9 0 12 -11 10 -32z m970
-42 l-3 -71 -99 -3 -99 -3 6 -82 c4 -45 7 -164 7 -263 l0 -182 29 -31 c29 -31
30 -31 130 -31 113 0 116 2 109 86 l-3 39 -122 3 -123 3 0 219 0 220 389 0
c263 0 392 -3 396 -11 4 -5 4 -122 0 -259 l-8 -249 -146 -3 -146 -3 -3 -58 -3
-57 -267 2 -267 3 -6 155 c-4 85 -7 176 -8 202 -1 47 -1 47 -38 50 l-38 3 -3
85 c-2 47 0 114 3 150 7 61 10 68 55 113 l49 48 106 -2 106 -3 -3 -70z m780
58 c32 -9 24 -23 -41 -68 l-57 -40 0 -351 c0 -346 -2 -375 -32 -375 -4 0 -8
158 -8 350 l0 350 -85 0 c-119 0 -116 15 17 82 31 16 62 35 68 43 13 16 94 20
138 9z m-2464 -115 l79 -34 -7 -200 c-4 -110 -9 -217 -13 -237 -5 -36 -6 -37
-29 -21 -27 17 -30 8 -12 -32 6 -14 18 -25 25 -25 12 0 13 -14 7 -72 -3 -40
-8 -74 -9 -76 -8 -10 -49 66 -47 87 2 21 -15 42 -83 106 l-86 80 15 225 c9
124 16 233 16 243 0 19 -13 23 144 -44z m602 52 c-3 -5 -14 -11 -25 -14 -14
-3 -18 -1 -14 9 3 8 14 14 25 14 10 0 17 -4 14 -9z m694 -112 c-25 -102 -38
-116 -16 -18 8 35 17 82 22 104 4 25 9 33 12 22 2 -10 -6 -59 -18 -108z m-720
41 c-20 -13 -53 -13 -45 0 3 6 18 10 33 10 21 0 24 -2 12 -10z m-150 -63 c0
-1 -25 -27 -55 -57 -67 -66 -73 -58 -9 10 39 42 64 60 64 47z m-720 -146 c26
-7 38 -37 22 -53 -14 -14 -104 17 -127 42 -18 20 -17 20 31 19 27 -1 60 -4 74
-8z m591 -40 c-16 -29 -14 -51 4 -45 8 4 15 2 15 -4 0 -12 -217 -228 -227
-225 -23 5 -7 27 56 75 73 56 81 69 81 133 0 34 6 45 37 72 39 32 53 30 34 -6z
m810 -60 c52 -11 106 -24 120 -29 l26 -10 -12 -67 c-7 -36 -15 -68 -17 -71 -3
-2 -36 2 -74 10 -38 7 -90 17 -116 20 -26 4 -50 11 -53 17 -6 8 23 149 30 149
2 0 45 -9 96 -19z m-1406 3 c17 -4 20 -12 17 -41 l-4 -35 -24 28 c-36 45 -32
60 11 48z m-15 -85 l31 -48 -7 -111 c-4 -61 -10 -112 -13 -114 -3 -2 -30 1
-58 7 -47 10 -53 14 -53 36 0 42 20 254 26 284 6 27 7 28 25 11 10 -9 33 -38
49 -65z m3236 -57 c21 -118 34 -160 34 -114 0 12 -9 68 -20 124 -11 57 -20
105 -20 106 0 4 131 -67 142 -77 4 -4 17 -51 28 -106 11 -55 22 -110 25 -123
l6 -23 -38 19 c-50 26 -99 36 -108 23 -3 -6 -19 -11 -35 -11 -22 0 -31 6 -35
23 -16 64 -51 273 -48 280 3 5 14 7 26 5 18 -3 23 -18 43 -126z m-2589 -14
c-13 -256 -58 -833 -68 -858 -10 -28 -7 151 13 643 10 268 13 301 30 323 11
13 22 24 25 24 3 0 3 -60 0 -132z m2523 -20 c12 -73 23 -137 24 -142 1 -5 -34
-23 -77 -39 -62 -24 -81 -27 -87 -17 -7 12 -52 272 -47 276 3 2 151 52 158 53
3 1 16 -59 29 -131z m-369 92 c17 -9 19 -22 19 -104 0 -51 -3 -147 -6 -212
l-7 -119 -99 19 c-89 17 -99 21 -96 39 2 13 25 33 61 54 l57 34 0 159 0 160
26 -10 c14 -6 34 -15 45 -20z m-1115 -22 c-4 -18 -21 -105 -37 -192 -16 -87
-31 -161 -33 -163 -2 -3 -30 1 -60 8 -62 13 -63 17 -47 92 6 23 13 55 16 71 6
27 8 28 49 23 l43 -6 11 62 c19 103 32 137 49 137 12 0 14 -7 9 -32z m-1110
-175 c-10 -259 -14 -293 -38 -293 -19 0 -20 6 -17 209 4 206 4 210 28 235 14
14 27 26 29 26 3 0 2 -80 -2 -177z m2389 125 c3 -13 14 -71 24 -130 l18 -106
-24 -11 c-18 -8 -25 -8 -28 2 -11 29 -44 250 -39 258 11 18 44 9 49 -13z
m-1687 -120 c-11 -51 -25 -97 -30 -103 -11 -11 -9 6 18 133 9 40 19 70 24 67
4 -3 -1 -46 -12 -97z m161 76 c82 -19 81 -15 52 -144 l-16 -75 -44 2 c-23 1
-68 7 -98 13 -63 13 -60 -2 -27 148 18 83 16 82 133 56z m-1227 -56 c41 -34
111 -132 97 -137 -6 -2 -44 30 -85 70 -40 40 -76 71 -79 68 -2 -3 18 -32 45
-64 81 -96 85 -115 66 -302 -18 -181 -32 -390 -46 -682 -6 -112 -12 -207 -15
-209 -3 -3 -19 7 -35 23 -28 27 -29 30 -14 47 14 15 15 20 3 34 -10 12 -24 14
-58 10 -46 -6 -46 -6 22 22 37 15 67 32 67 39 0 20 -48 70 -100 103 -49 31
-50 33 -50 81 l0 49 60 0 60 0 0 39 c0 33 -6 44 -36 68 l-36 29 12 215 c7 117
14 216 17 219 2 2 32 -6 66 -18 34 -12 65 -22 70 -22 4 0 7 19 7 43 l0 43 -69
31 -69 31 4 38 c2 22 6 74 10 117 l6 77 26 -19 c15 -11 39 -30 54 -43z m1828
27 l0 -35 -77 0 c-65 0 -80 3 -100 22 -43 41 -32 48 77 48 l100 0 0 -35z m570
-100 l0 -75 -37 0 c-21 0 -82 -3 -135 -7 l-98 -6 0 81 0 82 135 0 135 0 0 -75z
m794 -45 c34 -21 79 -57 100 -79 l38 -39 29 -179 c16 -98 29 -182 29 -186 0
-16 -91 57 -95 77 -3 12 -9 54 -13 94 -9 75 -7 78 36 73 7 -1 12 9 11 26 -1
27 -1 27 -8 4 l-6 -24 -28 32 c-32 38 -39 77 -8 45 10 -10 17 -22 15 -26 -3
-4 0 -9 5 -12 14 -9 23 42 11 64 -12 23 -108 90 -128 90 -11 0 -13 -9 -8 -33
11 -60 56 -362 56 -379 0 -24 -35 -40 -175 -78 -66 -18 -136 -41 -155 -51 -34
-19 -35 -19 -5 -12 60 14 70 10 70 -22 0 -29 -4 -32 -89 -63 -48 -18 -90 -31
-92 -29 -2 2 -7 37 -10 78 l-6 74 44 32 c39 28 253 103 294 103 17 0 19 -24
-12 212 -14 110 -23 211 -20 224 9 36 49 31 120 -16z m-3004 4 c0 -22 -24 -82
-32 -78 -7 5 -4 33 8 72 3 12 24 17 24 6z m2884 -214 c14 -102 23 -186 22
-187 -2 -2 -51 -17 -111 -33 -76 -22 -110 -28 -115 -20 -7 11 -52 362 -47 366
1 1 52 20 112 42 72 27 111 36 113 29 1 -7 13 -95 26 -197z m-1916 144 c87
-15 93 -18 88 -38 -16 -66 -18 -106 -5 -110 8 -2 60 -16 117 -31 76 -21 102
-31 102 -44 0 -21 -49 -363 -52 -367 -2 -1 -63 26 -137 59 l-133 62 6 66 c3
36 9 81 12 100 11 60 -14 19 -28 -46 l-13 -59 -105 -22 c-58 -13 -106 -22
-107 -20 -3 3 84 444 92 465 4 9 15 11 38 8 17 -4 74 -14 125 -23z m1012 -29
l0 -25 -135 0 c-128 0 -135 -1 -135 -20 0 -19 7 -20 139 -20 131 0 140 -1 146
-20 3 -11 3 -24 0 -30 -4 -6 -72 -10 -176 -10 l-169 0 0 75 0 75 165 0 165 0
0 -25z m1040 -10 c0 -19 -2 -35 -4 -35 -2 0 -6 16 -8 35 -2 19 0 35 4 35 4 0
8 -16 8 -35z m100 -53 c0 -11 -11 -5 -36 19 -28 26 -35 29 -31 14 3 -11 9 -32
13 -48 3 -15 16 -34 27 -42 12 -8 17 -15 11 -15 -25 0 -64 72 -64 116 l0 24
40 -26 c22 -15 40 -34 40 -42z m-3172 52 c20 -6 22 -12 22 -73 0 -36 -3 -83
-6 -103 -7 -40 -20 -46 -72 -32 -20 6 -23 11 -18 43 3 20 8 66 12 104 7 71 10
74 62 61z m-458 -116 c0 -28 -4 -65 -10 -82 -5 -17 -14 -66 -21 -109 -7 -43
-16 -80 -21 -83 -5 -4 -7 8 -4 28 7 38 26 242 26 276 0 13 6 22 15 22 11 0 15
-12 15 -52z m3537 20 c-3 -8 -6 -5 -6 6 -1 11 2 17 5 13 3 -3 4 -12 1 -19z
m-3431 -25 c-3 -21 -6 -48 -6 -60 0 -21 -5 -23 -46 -23 -43 0 -46 2 -40 23 3
12 6 39 6 60 l0 37 46 0 47 0 -7 -37z m549 -3 c-3 -5 -10 -10 -16 -10 -5 0 -9
5 -9 10 0 6 7 10 16 10 8 0 12 -4 9 -10z m1425 -50 l0 -40 215 0 215 0 0 -86
0 -86 -67 6 c-38 3 -147 8 -245 12 -205 7 -188 -5 -188 136 0 82 1 87 23 91
46 9 47 8 47 -33z m-1414 -177 c-4 -104 -9 -189 -10 -191 -2 -1 -11 1 -21 4
-16 6 -17 16 -11 88 3 45 6 127 6 184 0 98 1 102 21 102 22 0 22 0 15 -187z
m2911 150 c-3 -10 -5 -4 -5 12 0 17 2 24 5 18 2 -7 2 -21 0 -30z m-791 0 c10
-3 14 -23 14 -60 l0 -54 -37 6 c-71 12 -73 14 -73 55 0 21 -3 46 -7 56 -5 15
-1 16 42 10 26 -4 54 -10 61 -13z m-2345 -33 l29 0 0 -97 c0 -54 -4 -104 -9
-111 -6 -10 -19 -12 -52 -5 l-44 9 3 59 c5 117 13 157 29 151 8 -3 28 -6 44
-6z m3217 -136 c31 -29 55 -54 52 -57 -3 -3 -31 19 -62 49 -53 51 -58 60 -62
107 l-5 52 10 -50 c9 -42 19 -58 67 -101z m-3608 86 c0 -45 -3 -51 -30 -65
-16 -8 -31 -15 -35 -15 -15 0 9 93 31 115 26 25 34 17 34 -35z m0 -119 c0 -11
3 -26 6 -34 4 -12 -6 -16 -45 -18 -42 -3 -51 -1 -51 13 0 16 55 58 78 58 6 0
12 -9 12 -19z m1377 -4 c-2 -7 -10 -38 -16 -69 l-12 -56 -82 -11 c-45 -7 -95
-14 -110 -17 -25 -5 -28 -3 -23 12 3 11 10 40 17 67 6 26 14 47 18 48 3 0 42
9 86 18 102 23 129 25 122 8z m1255 -27 c-44 -20 -72 -63 -72 -111 0 -13 -8
-23 -21 -26 -15 -4 -19 -11 -15 -32 3 -14 8 -51 11 -83 l6 -56 -53 -12 c-29
-6 -72 -14 -94 -17 l-42 -5 -20 88 c-12 49 -24 112 -28 141 l-6 51 48 7 c149
19 177 26 216 49 26 15 57 26 78 25 l35 0 -43 -19z m878 -2 c1 -7 7 -49 15
-93 8 -43 13 -80 12 -80 -9 -5 -130 -35 -140 -35 -10 0 -18 27 -27 88 -19 121
-20 116 20 123 64 12 120 10 120 -3z m-742 -10 c29 -29 13 -44 -60 -61 -87
-21 -118 -22 -118 -4 0 24 44 55 90 65 63 14 74 14 88 0z m-2389 -33 l34 -7
-7 -61 c-3 -33 -6 -91 -6 -129 l0 -68 -42 6 c-24 4 -47 10 -52 15 -5 4 -5 64
-1 134 6 110 9 125 24 121 9 -2 31 -8 50 -11z m-281 -22 l37 -18 -82 -7 c-44
-3 -97 -11 -117 -16 l-36 -10 0 34 0 34 81 0 c57 0 92 -5 117 -17z m2801 -7
c13 -16 61 -231 61 -274 0 -16 -9 -37 -21 -48 -29 -27 -50 -9 -77 67 -29 79
-65 238 -58 256 7 18 80 17 95 -1z m-700 -92 c50 -52 91 -97 91 -99 0 -2 -19
-6 -42 -10 -24 -3 -60 -13 -81 -22 -20 -9 -39 -14 -40 -12 -2 2 -21 41 -42 87
-21 45 -42 82 -47 82 -14 0 -10 -13 47 -139 30 -67 55 -129 55 -136 0 -7 -19
-20 -42 -29 -49 -18 -170 -56 -180 -56 -9 0 -88 204 -95 244 -7 43 24 79 101
118 61 31 151 66 172 67 6 1 52 -42 103 -95z m575 74 c2 -7 14 -60 26 -118 12
-58 33 -131 47 -163 20 -44 23 -61 15 -69 -7 -7 -54 -14 -106 -16 -91 -4 -93
-4 -99 19 -22 93 -58 293 -55 307 2 12 24 22 73 33 89 21 95 22 99 7z m-2613
-18 c28 -16 23 -28 -13 -34 -119 -17 -176 -29 -201 -44 -27 -16 -29 -16 -43 2
-17 24 -18 43 -1 43 6 0 48 8 92 16 44 9 91 18 105 20 14 2 29 5 33 6 5 0 17
-4 28 -9z m474 -24 c48 -15 161 -83 152 -92 -3 -3 -22 -1 -44 5 -21 6 -86 14
-144 18 -104 6 -106 6 -101 29 3 19 11 24 36 26 l31 1 -32 4 c-18 2 -33 8 -33
14 0 14 81 11 135 -5z m2724 -51 l8 -56 -26 3 c-21 2 -27 9 -29 36 -3 31 23
90 35 79 2 -3 8 -31 12 -62z m-1999 -70 c-11 -43 -20 -88 -20 -100 0 -13 -6
-27 -12 -32 -14 -11 -168 -34 -179 -27 -5 3 28 191 36 201 2 4 189 40 193 38
1 -1 -7 -37 -18 -80z m117 71 c4 -4 -27 -189 -32 -195 -2 -2 -25 -6 -51 -9
-42 -4 -46 -3 -41 14 3 10 9 37 13 59 4 22 16 64 26 94 19 51 21 53 51 47 17
-3 32 -8 34 -10z m-1487 -36 c0 -5 -7 -7 -15 -4 -8 4 -15 8 -15 10 0 2 7 4 15
4 8 0 15 -4 15 -10z m-87 -186 c-3 -200 -6 -224 -30 -224 -14 0 -15 13 -9 118
14 243 19 293 30 289 8 -3 10 -59 9 -183z m713 124 c-3 -29 -6 -65 -6 -80 0
-20 -4 -26 -15 -22 -11 5 -15 23 -15 73 0 71 4 81 28 81 12 0 14 -10 8 -52z
m-595 32 c17 -10 27 -40 13 -40 -9 0 -74 41 -74 46 0 8 42 4 61 -6z m3252 -27
c4 -21 9 -53 13 -70 6 -30 4 -33 -19 -33 -23 0 -27 6 -37 56 -13 63 -9 84 18
84 15 0 21 -9 25 -37z m-103 -25 c0 -13 3 -40 6 -60 6 -33 4 -39 -17 -47 -20
-7 -25 -5 -31 13 -13 44 -9 95 10 105 26 15 32 13 32 -11z m-2783 -41 c1 -2
-3 -77 -9 -167 -7 -112 -15 -170 -24 -181 -20 -22 -18 -27 16 -34 65 -14 176
-119 222 -208 31 -62 15 -65 -38 -7 -27 30 -71 77 -97 106 -68 74 -210 143
-358 175 -50 11 -61 26 -35 48 15 13 133 -1 168 -20 38 -20 45 -5 52 103 4 57
9 125 12 152 l6 48 41 -6 c23 -4 42 -8 44 -9z m-239 -11 c15 -8 36 -23 46 -35
l19 -21 -59 0 c-76 0 -92 10 -76 44 13 29 31 32 70 12z m2422 -8 c0 -13 3 -34
6 -48 4 -18 3 -21 -4 -10 -14 23 -23 80 -12 80 6 0 10 -10 10 -22z m-1970 -48
c59 -48 25 -45 -49 5 -39 25 -71 48 -71 50 0 11 90 -30 120 -55z m-175 30 c5
-8 11 -7 21 1 11 9 24 5 59 -15 25 -15 45 -30 45 -35 0 -4 -16 -15 -35 -24
-34 -16 -35 -16 -50 7 -8 12 -26 28 -40 34 -14 6 -25 18 -25 27 0 17 16 20 25
5z m1945 -80 c22 -21 40 -46 40 -55 0 -12 58 -202 77 -251 2 -7 -23 -15 -66
-22 -38 -7 -76 -14 -84 -18 -12 -4 -27 32 -72 166 -31 94 -55 173 -53 175 7 8
93 44 105 44 7 1 30 -17 53 -39z m297 -275 c-9 -33 -19 -90 -23 -127 -7 -67
-7 -68 -40 -74 -53 -10 -61 -1 -80 83 -9 43 -32 123 -50 179 -18 55 -35 116
-39 135 l-6 34 103 35 103 35 24 -120 c22 -114 22 -123 8 -180z m322 145 l30
-145 -31 -64 c-29 -60 -32 -63 -41 -40 -18 47 -85 364 -79 371 10 10 87 34 89
28 2 -3 16 -70 32 -150z m-1555 103 c-16 -77 -13 -84 46 -120 30 -18 51 -33
46 -33 -4 0 -34 16 -66 35 -32 19 -67 35 -79 35 -24 0 -25 9 -10 65 12 43 23
55 52 55 15 0 17 -5 11 -37z m-814 -34 c0 -31 -4 -48 -10 -44 -5 3 -10 26 -10
51 0 24 5 44 10 44 6 0 10 -23 10 -51z m1620 -111 c29 -90 53 -169 54 -176 1
-14 -182 -95 -200 -88 -15 6 -159 344 -150 353 6 7 215 70 237 72 3 1 29 -72
59 -161z m-2040 132 c0 -4 -21 -13 -47 -20 -27 -7 -54 -17 -60 -23 -18 -13
-43 -1 -43 22 0 22 14 26 98 27 28 0 52 -3 52 -6z m2624 -145 c20 -79 36 -153
36 -164 0 -25 -42 -35 -86 -21 -39 13 -50 43 -83 216 -22 112 -21 114 50 114
l47 0 36 -145z m-1533 32 l4 -43 -53 20 c-49 18 -51 20 -36 37 14 16 33 23 70
28 7 0 13 -17 15 -42z m-623 17 c74 -15 89 -22 133 -61 50 -46 65 -72 30 -53
-35 18 -47 10 -13 -10 45 -28 40 -35 -8 -10 -43 22 -138 44 -237 55 -58 6 -76
16 -54 29 4 3 48 -1 97 -9 48 -8 90 -13 91 -11 2 2 -37 16 -86 32 -89 28 -119
54 -63 54 15 0 64 -7 110 -16z m-442 -118 c38 -13 90 -34 114 -47 l45 -24 -37
-3 -38 -3 0 -57 c0 -83 -8 -90 -64 -57 -45 26 -96 29 -111 4 -4 -5 -13 -9 -22
-9 -30 0 25 46 88 75 34 15 57 31 53 37 -10 16 -86 48 -116 48 -32 0 -36 15
-11 42 20 22 16 23 99 -6z m372 12 c21 -21 13 -62 -15 -82 l-26 -19 6 33 c4
18 7 43 7 56 0 26 10 30 28 12z m-533 -39 c5 -7 -8 -8 -41 -3 -64 9 -68 14
-11 14 25 0 49 -5 52 -11z m2654 -214 c9 -22 9 -56 1 -137 -9 -91 -8 -113 4
-136 8 -15 18 -36 22 -47 6 -17 9 -14 18 18 l10 39 72 -4 c40 -2 75 -5 77 -8
2 -3 8 -22 11 -44 l7 -38 -33 5 c-18 4 -65 7 -105 8 -67 2 -72 4 -78 26 -3 14
-35 56 -70 93 -36 38 -65 74 -65 80 0 20 32 74 55 92 20 15 23 29 27 121 6
136 21 160 29 47 4 -47 12 -98 18 -115z m320 7 c1 -92 -8 -122 -62 -202 l-36
-53 -103 1 -103 1 3 78 c2 43 7 81 10 85 4 4 29 0 55 -9 26 -9 49 -14 51 -12
2 2 -8 41 -23 85 -26 81 -27 82 -63 88 -25 4 -38 12 -38 21 0 12 4 13 18 6 10
-5 53 -11 95 -12 42 -2 77 -6 77 -10 0 -10 -28 -19 -59 -19 l-27 0 20 -85 21
-85 52 0 c29 0 53 4 53 9 0 5 -7 41 -15 80 l-14 69 37 65 37 65 7 -42 c3 -22
7 -78 7 -124z m-669 83 c0 -20 -12 -31 -67 -59 -105 -52 -109 -60 -95 -158 19
-129 2 -121 -51 22 -52 141 -59 125 78 180 66 26 123 46 128 43 4 -2 7 -15 7
-28z m-2349 -63 c-15 -50 -52 -115 -62 -105 -12 12 6 74 32 107 27 34 40 33
30 -2z m267 -42 c23 -16 45 -37 51 -47 8 -16 4 -18 -45 -15 -46 3 -57 8 -74
32 -23 32 -25 46 -7 53 24 10 34 7 75 -23z m2149 0 c10 -27 14 -29 38 -20 35
13 55 13 59 -2 39 -139 39 -135 25 -164 -13 -27 -22 -30 -124 -50 l-110 -21
-42 85 c-60 119 -59 122 35 165 42 20 84 36 92 36 9 1 21 -13 27 -29z m213 1
c0 -5 -11 -16 -25 -25 -14 -9 -27 -27 -31 -41 -8 -33 -20 -31 -33 5 -14 41 -5
58 32 63 18 2 38 5 45 5 6 1 12 -2 12 -7z m407 -134 c-14 -23 -42 -60 -62 -82
-31 -35 -29 -30 14 34 28 40 54 90 58 110 7 34 8 35 11 8 2 -17 -6 -45 -21
-70z m-2169 54 c9 -5 -6 -10 -40 -14 -73 -9 -112 -29 -185 -99 -41 -39 -67
-56 -77 -52 -18 7 -21 46 -5 76 14 25 3 20 -58 -30 -31 -25 -43 -30 -43 -19 0
24 55 82 96 102 73 34 278 58 312 36z m-460 -113 c-10 -45 -21 -84 -23 -87 -3
-2 -5 17 -5 42 0 26 -4 47 -9 47 -5 0 -26 -19 -45 -42 -20 -23 -38 -39 -41
-37 -3 3 -1 32 3 64 l7 59 55 18 c30 9 60 17 66 17 8 1 5 -25 -8 -81z m602 56
c0 -3 -11 -15 -25 -26 -30 -24 -104 -126 -135 -188 l-23 -44 -23 46 c-28 55
-71 93 -124 109 -22 7 -37 16 -34 20 16 26 105 -11 147 -61 l26 -30 30 42 c53
77 161 165 161 132z m210 -48 c0 -2 -8 -10 -17 -17 -16 -13 -17 -12 -4 4 13
16 21 21 21 13z m1270 -70 c0 -10 -25 -18 -87 -26 -48 -7 -100 -16 -115 -21
-28 -8 -48 4 -28 16 8 5 162 35 223 44 4 1 7 -5 7 -13z m-1494 -23 c-6 -16
-86 -80 -86 -69 0 23 26 60 52 76 36 21 43 20 34 -7z m1498 -60 c3 -26 3 -50
-1 -54 -9 -7 -260 -69 -280 -69 -14 0 -29 108 -17 120 5 5 34 12 64 16 30 3
84 12 120 19 107 21 106 22 114 -32z m-1926 7 c26 -16 43 -40 28 -40 -8 0
-116 52 -116 56 0 12 59 1 88 -16z m552 11 c21 -7 18 -9 -25 -15 -27 -4 -80
-16 -117 -27 -86 -25 -90 -24 -44 7 60 41 124 53 186 35z m-348 -78 c28 -25
21 -35 -12 -18 -17 9 -28 20 -25 25 9 14 16 12 37 -7z m-466 -77 c-6 -24 -5
-24 32 -13 20 6 105 11 187 12 148 0 151 0 218 -32 37 -18 67 -34 67 -37 0 -2
-96 -2 -212 1 -122 3 -235 1 -265 -4 l-53 -10 0 53 c0 43 3 54 16 54 12 0 15
-6 10 -24z m364 -216 c13 -9 13 -10 0 -9 -8 0 -24 4 -35 9 l-20 9 20 0 c11 0
27 -4 35 -9z"/>
<path fill="green" d="M1195 4333 c-11 -3 -24 -9 -29 -14 -17 -15 29 -10 50 6 19 15 15 16
-21 8z"/>
<path fill="green" d="M2976 4392 c-3 -6 -1 -23 6 -39 l12 -28 4 29 c4 30 -11 56 -22 38z"/>
<path fill="#33ab37" class="face" d="M2233 3922 l-113 -3 0 -79 0 -80 120 0 120 0 0 -60 0 -60 -30 0 -30
0 0 -65 0 -65 45 0 c38 0 45 3 45 20 0 19 7 20 100 20 l100 0 0 -25 c0 -23 3
-25 50 -25 l50 0 0 70 0 70 -35 0 -35 0 0 60 0 59 123 3 122 3 3 78 3 77 -126
0 -125 0 0 -40 0 -40 -124 0 -125 0 -3 42 c-2 23 -7 42 -13 42 -5 1 -61 0
-122 -2z m57 -87 c0 -45 0 -45 -35 -45 -30 0 -35 3 -35 23 0 49 11 67 41 67
28 0 29 -2 29 -45z m480 0 l0 -45 -36 0 c-36 0 -36 1 -30 31 3 17 6 38 6 45 0
9 11 14 30 14 29 0 30 -2 30 -45z"/>
<path fill="red" d="M3520 3300 c0 -6 12 -15 26 -20 42 -16 51 -11 19 10 -34 22 -45 25
-45 10z"/>
<path fill="red" d="M3013 1764 c-8 -21 13 -42 28 -27 13 13 5 43 -11 43 -6 0 -13 -7 -17
-16z"/>
<path fill="red" d="M801 1766 c2 -2 15 -9 29 -15 24 -11 24 -11 6 3 -16 13 -49 24 -35
12z"/>
<path fill="red" d="M2790 871 c0 -12 26 -21 61 -21 19 0 29 5 29 15 0 11 -12 15 -45 15
-25 0 -45 -4 -45 -9z"/>
<path fill="green" d="M2866 811 c-4 -7 -5 -15 -2 -18 9 -9 19 4 14 18 -4 11 -6 11 -12 0z"/>
<path fill="green" d="M1285 5110 c4 -6 11 -8 16 -5 14 9 11 15 -7 15 -8 0 -12 -5 -9 -10z"/>
<path fill="#218f25" class="headtreee" d="M2165 5113 c-34 -8 -39 -22 -11 -29 30 -7 34 -20 7 -29 -10 -3 -26
-14 -36 -25 -17 -18 -16 -19 9 -26 15 -3 39 -3 54 1 15 3 42 9 61 12 l34 5 -8
-128 c-4 -71 -9 -131 -11 -134 -3 -2 -32 11 -64 29 -80 43 -76 33 5 -15 l65
-39 0 -97 c0 -91 1 -98 20 -98 22 0 24 28 20 280 l-1 105 38 15 c21 8 42 17
47 19 4 2 5 -91 1 -208 l-8 -211 47 0 46 0 0 213 c0 118 3 248 6 290 l7 77
-42 0 c-37 0 -41 -2 -41 -26 0 -16 -5 -24 -12 -21 -7 2 -12 14 -10 25 3 21 0
22 -100 21 -57 -1 -112 -3 -123 -6z m235 -95 c0 -41 -2 -44 -40 -60 l-40 -17
0 31 c0 19 10 40 27 59 39 41 53 37 53 -13z"/>
<path fill="green" d="M2755 5100 c-40 -18 -40 -18 -15 -28 21 -8 22 -11 8 -17 -9 -4 -24
-3 -33 2 -11 7 -36 3 -76 -10 -61 -19 -70 -37 -18 -37 24 0 29 -4 29 -23 0
-13 -5 -28 -12 -35 -9 -9 -4 -12 23 -13 18 0 43 -4 54 -8 13 -5 32 -2 54 10
31 16 37 17 51 4 9 -8 32 -15 50 -15 27 0 31 -3 22 -12 -20 -20 -14 -36 15
-40 39 -4 38 -22 -1 -36 -30 -11 -39 -11 -60 3 -17 11 -26 13 -31 5 -4 -7 -19
-9 -36 -5 -17 4 -29 2 -29 -3 0 -6 -15 -14 -32 -18 l-33 -8 33 -6 c35 -5 45
-23 15 -28 -10 -2 -32 -10 -48 -17 -17 -8 -43 -18 -58 -24 -33 -13 -27 -31 10
-31 14 0 31 -7 38 -16 10 -15 15 -14 55 5 24 11 45 21 47 21 8 0 2 -32 -9 -50
-21 -34 -1 -33 59 2 91 55 119 63 138 44 15 -15 14 -16 -8 -16 -23 0 -87 -45
-87 -62 0 -4 30 -8 68 -10 l67 -3 -3 -64 c-3 -46 0 -66 10 -72 27 -18 37 -10
31 26 -6 34 -5 35 30 35 50 0 58 28 9 32 -32 3 -37 6 -37 28 0 18 9 29 35 42
l35 17 -37 1 -38 0 0 50 c0 29 5 50 11 50 6 0 8 8 4 20 -5 15 0 21 27 28 18 5
36 6 40 3 4 -3 10 -165 14 -360 l7 -355 37 -52 37 -52 -5 -290 -5 -289 74 18
c41 10 91 23 112 29 l37 11 0 96 0 95 36 -7 c91 -17 109 -46 54 -87 -37 -27
-37 -34 -2 -42 105 -26 102 -24 95 -58 -5 -27 -2 -35 27 -58 27 -22 33 -35 40
-86 7 -53 8 -49 9 49 1 84 4 107 15 107 11 0 14 -84 18 -504 l4 -504 33 -28
c66 -56 61 -79 61 306 l0 350 24 0 c12 0 37 -5 55 -11 23 -8 35 -8 45 0 11 9
15 1 21 -46 3 -32 15 -96 25 -143 10 -47 21 -112 25 -145 8 -57 7 -59 -10 -45
-10 8 -25 31 -34 50 -13 31 -15 32 -19 13 -2 -12 2 -31 7 -42 7 -13 8 -22 1
-26 -5 -3 -10 -12 -10 -20 0 -10 9 -12 34 -8 18 3 36 1 39 -4 3 -5 15 -76 26
-159 12 -82 35 -198 52 -258 19 -69 27 -112 21 -118 -5 -5 -35 -10 -66 -10
-63 -1 -71 -9 -26 -28 42 -17 38 -32 -7 -24 -36 6 -37 6 -21 -12 9 -9 43 -23
75 -29 l58 -11 9 -47 c8 -40 7 -49 -8 -60 -16 -12 -16 -14 -2 -26 24 -20 20
-27 -26 -41 l-43 -14 38 -6 c20 -4 40 -9 42 -12 3 -3 -1 -47 -10 -99 -8 -52
-15 -97 -15 -101 0 -4 -16 -10 -35 -14 -26 -5 -41 -2 -53 9 -16 15 -24 15 -70
2 -49 -12 -87 -33 -79 -42 2 -2 19 3 38 11 19 7 43 10 53 7 15 -6 -3 -16 -72
-41 -51 -19 -92 -38 -92 -43 0 -5 8 -7 18 -4 9 3 42 12 72 21 l55 15 -28 -24
c-15 -14 -36 -25 -45 -25 -9 -1 -28 -7 -42 -15 -25 -14 -25 -14 15 -15 39 0
141 -33 159 -51 15 -14 30 -11 17 4 -6 8 -8 17 -5 20 4 3 -10 16 -31 28 l-38
23 32 28 c33 30 53 33 115 18 46 -10 56 -23 56 -69 0 -19 7 -76 16 -127 10
-53 14 -106 10 -128 l-7 -36 -23 27 c-23 26 -23 26 -34 6 -11 -19 -13 -19 -54
21 -52 49 -178 116 -219 116 -43 0 -35 -15 20 -38 42 -17 54 -29 89 -89 40
-67 40 -68 22 -88 -23 -24 -50 -87 -50 -114 0 -18 -3 -19 -32 -10 -18 6 -40
11 -48 12 -8 1 -23 16 -33 34 -9 18 -26 37 -37 43 -17 9 -15 -3 20 -100 l39
-110 -27 0 c-22 0 -40 14 -86 70 -56 67 -80 85 -57 42 16 -30 14 -35 -14 -30
-29 6 -33 -6 -7 -21 14 -9 12 -10 -15 -11 -17 0 -44 5 -60 10 -25 9 -23 6 15
-27 34 -30 41 -41 31 -50 -10 -10 -7 -19 17 -44 l29 -31 -50 25 c-77 38 -119
47 -149 32 -24 -13 -26 -12 -55 40 -21 37 -45 62 -81 84 -27 17 -52 31 -55 31
-10 0 -4 -45 8 -66 6 -12 27 -40 45 -64 17 -24 32 -49 32 -56 0 -7 -17 -15
-39 -19 -31 -5 -38 -10 -34 -24 6 -23 58 -31 209 -31 62 0 115 -4 118 -8 3 -5
-54 -12 -126 -15 -72 -4 -136 -11 -142 -17 -7 -7 56 -10 199 -10 l208 0 -23
-25 -23 -25 131 0 c76 0 133 -4 137 -10 4 -6 -24 -10 -77 -10 -98 0 -128 -7
-128 -28 0 -13 18 -14 138 -9 l137 6 -65 -22 -65 -21 75 -8 c41 -4 114 -5 163
-2 80 6 87 5 87 -12 0 -11 5 -59 10 -108 6 -49 9 -91 7 -93 -2 -2 -23 22 -47
54 -55 74 -121 143 -136 143 -30 0 -23 -29 31 -141 32 -66 56 -122 53 -125 -3
-3 -33 2 -66 10 -60 16 -153 21 -165 10 -10 -11 12 -43 41 -59 26 -16 25 -16
-33 -11 -33 3 -85 8 -115 12 -81 10 -51 -10 45 -30 100 -20 232 -34 245 -26 6
4 -27 28 -72 54 -75 43 -79 47 -45 43 53 -8 136 -48 182 -88 l38 -34 -39 -7
c-21 -4 -55 -7 -75 -7 -53 -1 -67 -21 -26 -39 l32 -15 -80 -17 c-44 -10 -95
-21 -112 -25 -22 -5 -33 -4 -33 4 0 6 3 11 8 11 4 1 22 13 39 28 l32 28 -57
-6 c-31 -4 -70 -3 -87 0 l-30 7 54 25 55 25 -80 6 c-43 3 -108 15 -144 26 -76
24 -238 29 -259 8 -9 -9 -75 -12 -259 -12 -210 0 -252 -3 -282 -17 -34 -16
-29 -16 171 -17 159 -1 209 -4 224 -15 17 -12 3 -14 -112 -17 -88 -3 -136 -8
-145 -17 -10 -9 63 -12 362 -12 l373 0 -22 -24 c-16 -17 -19 -26 -10 -31 8 -5
2 -12 -17 -21 -25 -12 -7 -13 131 -9 88 2 181 7 208 11 31 4 47 2 47 -5 0 -8
47 -11 153 -10 l152 1 -65 15 -64 16 38 32 c48 40 213 144 296 186 34 17 109
42 168 56 175 41 162 37 126 41 -39 4 -155 -20 -261 -54 -77 -25 -113 -27
-113 -5 0 25 216 121 239 106 6 -3 52 -2 103 2 l93 8 -90 5 -90 5 70 25 c61
22 70 28 73 52 5 41 -50 193 -129 353 -70 145 -83 200 -38 159 56 -50 149
-218 210 -379 l38 -100 1 101 c0 158 29 281 96 416 32 64 34 73 34 178 l0 110
-27 6 c-40 8 -96 26 -108 32 -14 9 33 20 88 21 l47 1 0 70 c0 53 -3 70 -14 70
-8 0 -17 7 -20 16 -10 25 2 30 19 8 13 -17 14 -10 15 74 0 75 -3 92 -15 92 -8
0 -15 5 -15 10 0 6 7 13 15 16 12 5 15 33 15 165 0 87 -3 159 -8 159 -4 0 -17
-7 -29 -15 -19 -14 -22 -13 -25 2 -2 12 -22 -6 -66 -61 -68 -85 -81 -82 -27 7
l35 57 -29 -21 c-31 -23 -61 -20 -61 5 0 27 31 46 121 73 l89 28 0 51 c0 61
-5 64 -90 64 -36 0 -60 5 -62 12 -2 6 -22 12 -43 12 -21 1 -40 7 -42 13 -7 21
44 33 143 33 56 0 94 4 94 10 0 6 -21 10 -46 10 l-46 0 23 20 24 21 -30 -14
c-16 -8 -65 -23 -107 -33 -69 -17 -78 -22 -78 -41 0 -19 -5 -23 -34 -23 -45 0
-55 16 -16 25 16 4 32 10 35 15 3 4 -12 4 -33 -1 -57 -13 -74 -11 -70 8 5 25
104 52 238 65 123 11 160 19 123 25 -21 4 -21 6 -16 161 4 117 9 159 19 165
11 6 14 53 14 225 0 139 -4 222 -10 228 -8 8 -8 36 0 95 14 115 14 1429 0
1429 -6 0 -24 -7 -39 -14 -15 -8 -37 -12 -49 -9 -15 3 -43 -12 -99 -54 -43
-33 -84 -63 -91 -67 -12 -7 -82 29 -82 42 0 4 21 20 47 35 56 34 50 45 -14 22
-92 -33 -133 -44 -133 -37 0 13 240 158 358 216 l112 56 0 105 c0 63 -4 105
-10 105 -6 0 -10 -34 -10 -81 0 -79 0 -80 -22 -74 -13 4 -36 15 -53 24 -29 17
-30 20 -27 74 l4 57 -66 0 c-64 0 -66 -1 -66 -25 0 -31 -4 -31 -59 0 -47 27
-134 36 -126 13 3 -7 1 -35 -3 -63 l-7 -49 -42 38 c-35 31 -41 41 -33 56 16
29 14 30 -55 30 l-65 0 0 -80 c0 -80 0 -80 -32 -100 -18 -11 -36 -20 -40 -20
-5 0 -8 45 -8 100 l0 100 -104 0 c-111 0 -101 3 -176 -58 -3 -2 5 -11 18 -19
12 -9 22 -24 22 -34 0 -26 12 -24 72 10 l51 30 20 -25 c12 -15 27 -24 40 -22
13 2 23 -3 25 -12 3 -20 -129 -74 -157 -65 -13 4 -46 -13 -102 -52 l-84 -58
43 -9 c40 -8 45 -7 70 19 25 25 25 26 4 15 -13 -6 -30 -10 -39 -8 -11 2 2 16
37 40 l53 37 58 -32 c57 -32 58 -32 29 -38 -50 -11 -142 -61 -147 -80 -5 -19
-87 -49 -110 -41 -20 6 -15 23 7 29 11 3 20 7 20 9 0 2 -17 21 -37 42 l-37 38
-63 -16 -63 -17 0 23 c0 13 4 24 9 24 10 0 71 133 71 154 0 8 24 37 53 65 l52
51 -51 0 c-29 0 -58 -6 -70 -15 -25 -19 -64 -19 -64 0 0 10 -10 15 -30 15
l-29 0 -3 -70 -3 -70 -54 47 -54 47 49 23 49 23 -84 0 c-78 0 -85 -2 -118 -30
-18 -16 -40 -30 -47 -30 -8 0 -11 10 -8 30 l4 30 -99 0 c-64 0 -103 -4 -111
-12 -9 -9 -15 -9 -24 0 -8 8 -63 12 -182 12 l-169 0 -50 -32 c-48 -31 -50 -31
-64 -12 -13 17 -11 20 14 31 l28 12 -35 0 c-19 0 -53 -9 -75 -19z m1993 -91
c-24 -20 -44 -36 -46 -35 -1 2 4 18 11 37 8 19 17 42 20 52 6 17 8 17 33 1
l25 -17 -43 -38z m-1168 -9 c0 -27 -2 -50 -5 -50 -2 0 -19 14 -36 31 l-32 31
24 19 c39 30 49 24 49 -31z m285 -31 c-8 -23 -15 -53 -15 -67 0 -16 -4 -22 -9
-16 -5 5 -7 39 -4 76 5 61 7 66 24 58 17 -9 17 -13 4 -51z m795 -3 l24 -27
-44 -39 c-25 -22 -48 -39 -51 -40 -12 0 -17 52 -12 111 l6 58 26 -18 c14 -11
37 -31 51 -45z m-1686 3 c-28 -29 -64 -39 -64 -17 0 7 12 24 26 40 22 22 30
25 46 17 19 -10 19 -12 -8 -40z m805 -137 c1 -80 0 -83 -20 -77 -18 6 -20 4
-15 -13 6 -17 1 -20 -36 -25 -54 -7 -59 -2 -14 14 44 16 46 29 6 29 l-30 0 0
126 0 126 54 -49 55 -48 0 -83z m1061 158 c27 -19 29 -26 32 -100 l3 -79 -40
-22 c-83 -46 -218 -142 -222 -158 -2 -9 -35 -37 -73 -64 l-69 -48 -3 -74 -3
-75 -69 46 -68 46 36 37 c34 35 36 40 36 104 l0 68 35 15 c19 7 37 14 40 14 3
0 5 -28 5 -62 0 -62 -1 -63 -52 -115 -28 -29 -49 -55 -45 -59 6 -6 238 208
245 226 2 5 -8 16 -22 26 -14 9 -26 21 -26 26 0 5 37 50 81 99 65 70 79 92 70
103 -9 10 -3 19 26 39 47 32 48 32 83 7z m210 -50 c34 -19 34 -19 9 -20 -15 0
-37 9 -50 20 -32 26 -6 26 41 0z m-680 -45 c0 -50 -2 -55 -17 -46 -10 5 -21 9
-26 10 -4 0 -24 12 -44 25 l-36 25 29 12 c16 6 38 15 49 19 40 17 45 12 45
-45z m110 -70 c0 -58 -2 -105 -4 -105 -2 0 -20 -7 -40 -15 l-36 -15 0 103 0
103 33 17 c17 8 35 16 40 16 4 1 7 -46 7 -104z m-1196 82 c17 -13 16 -15 -14
-34 -20 -13 -28 -23 -21 -27 6 -4 11 -11 11 -17 0 -14 -26 -11 -39 5 -9 10 -8
15 4 20 9 3 15 18 15 36 0 33 15 38 44 17z m296 -53 c0 -15 -19 -22 -42 -16
-13 3 -18 14 -18 38 l0 35 30 -23 c17 -12 30 -27 30 -34z m1435 37 c3 -5 1
-12 -5 -16 -5 -3 -10 1 -10 9 0 18 6 21 15 7z m-1040 -81 c-4 -6 -34 -24 -67
-41 -43 -22 -64 -27 -71 -20 -14 14 -9 18 60 47 63 25 88 30 78 14z m-395 -85
c-1 -51 -5 -65 -29 -93 l-29 -34 -1 105 -2 105 31 -11 c29 -11 30 -14 30 -72z
m-315 18 c0 -50 3 -58 18 -55 24 4 21 -21 -5 -44 -21 -19 -21 -19 -15 4 4 18
3 21 -7 13 -20 -17 -26 -2 -26 71 0 58 3 68 18 68 14 0 17 -9 17 -57z m535
-38 c-14 -8 -47 -19 -75 -26 -27 -6 -67 -20 -87 -30 -21 -11 -39 -19 -42 -19
-13 0 8 30 31 45 23 16 133 42 178 44 17 0 17 -2 -5 -14z m520 -62 c-1 -10
-115 -76 -146 -85 -28 -8 -35 17 -6 26 9 3 29 17 43 30 14 13 34 26 45 29 31
8 64 8 64 0z m-430 -50 c0 -10 -32 -43 -42 -43 -13 0 -9 38 5 43 18 8 37 8 37
0z m-148 -12 c-12 -7 -31 -180 -32 -293 0 -44 -12 -49 -28 -13 -16 35 -15 46
3 39 8 -4 15 -1 15 5 0 6 -4 11 -9 11 -4 0 -11 51 -15 112 -7 108 -6 113 14
130 12 10 32 18 44 18 15 0 17 -3 8 -9z m1318 -25 l45 -24 -4 -198 -3 -199
-51 -46 -52 -46 -3 216 c-3 211 3 321 16 321 4 -1 27 -11 52 -24z m-1472 -253
c7 -148 15 -326 19 -396 l6 -128 -79 38 c-44 21 -81 39 -83 40 -2 1 7 52 19
113 l23 110 36 0 36 1 -32 27 -31 27 8 200 c5 110 9 208 10 218 0 12 8 17 28
17 l28 0 12 -267z m522 252 c17 -9 30 -19 30 -24 0 -9 -66 -71 -75 -71 -3 0
-5 25 -5 55 0 60 5 63 50 40z m-318 -370 c9 14 60 17 89 7 21 -8 19 -11 -34
-45 -63 -41 -72 -44 -64 -23 3 8 1 16 -6 19 -14 4 -24 378 -10 405 5 10 10
-64 13 -178 3 -107 8 -190 12 -185z m-502 353 c0 -7 -5 -20 -10 -28 -8 -12
-11 -13 -22 -2 -11 11 -9 16 6 28 24 17 26 17 26 2z m750 -110 l0 -123 -99
-36 -99 -36 9 24 c5 13 9 62 9 109 0 78 2 85 23 94 l22 9 -23 0 c-31 1 -41 30
-16 48 33 24 63 27 84 8 18 -16 20 -16 46 4 15 12 31 21 35 21 5 0 9 -55 9
-122z m780 86 c31 -21 40 -33 40 -55 0 -38 -18 -37 -88 3 l-55 31 29 24 c16
12 30 23 32 23 1 0 20 -12 42 -26z m-670 -59 c-20 -21 -21 -25 -7 -31 8 -3 24
-1 35 5 20 10 102 11 102 1 0 -3 -36 -41 -79 -84 -79 -78 -80 -79 -110 -66
-31 12 -31 13 -31 86 0 55 3 72 13 69 6 -3 30 6 52 20 50 31 54 31 25 0z m194
-44 c16 -18 14 -20 -36 -52 -29 -19 -71 -50 -93 -70 -41 -37 -141 -87 -152
-75 -3 3 -1 6 6 6 8 0 10 7 6 21 -6 18 -5 19 13 10 12 -6 23 -11 27 -11 3 0
49 43 102 95 54 52 100 95 103 95 4 0 15 -8 24 -19z m306 9 c0 -14 -39 -32
-52 -24 -8 5 -2 12 17 20 37 16 35 16 35 4z m204 -128 c-1 -2 -18 7 -38 19
-48 28 -49 5 -1 -41 33 -32 36 -39 33 -85 l-3 -50 -42 3 c-36 2 -41 0 -36 -14
6 -17 39 -16 101 4 67 22 29 -5 -60 -43 -51 -21 -141 -60 -200 -86 -60 -26
-108 -43 -108 -39 0 4 16 15 35 24 l35 17 0 94 0 95 43 21 c23 12 36 24 30 26
-24 8 -13 20 32 37 55 21 62 32 40 56 -20 23 -23 21 72 49 l58 17 5 -50 c3
-28 5 -52 4 -54z m-394 -77 c0 -60 -5 -288 -11 -505 -10 -377 -12 -396 -31
-412 -11 -10 -24 -18 -29 -18 -11 0 -12 351 -2 782 l6 306 33 -21 34 -22 0
-110z m-415 56 c6 -11 -94 -68 -109 -62 -6 2 -24 7 -41 10 -27 6 -25 8 40 33
76 29 101 33 110 19z m-334 -93 c24 -30 24 -60 -1 -83 -20 -18 -20 -17 -20 28
0 25 -3 52 -6 61 -9 23 5 20 27 -6z m659 -16 c0 -14 -11 -21 -26 -15 -8 3 -11
9 -8 14 7 11 34 12 34 1z m-1009 -38 c12 -14 9 -20 -21 -45 -40 -34 -41 -34
-80 -14 -48 25 -37 38 25 30 56 -7 77 7 33 21 -22 7 -22 7 -3 15 29 11 31 11
46 -7z m871 -21 c15 -13 23 -14 44 -5 34 16 42 15 54 -9 10 -19 10 -20 -9 -10
-24 14 -39 -3 -21 -24 9 -11 17 -12 30 -5 28 15 30 13 30 -34 0 -38 -3 -45
-28 -55 -44 -18 -157 -137 -141 -147 19 -11 66 -6 92 10 12 8 34 16 50 20 l27
6 0 -105 0 -104 -30 6 c-38 7 -39 -5 -2 -18 l27 -9 2 -210 c1 -116 0 -210 -3
-210 -9 0 -68 32 -84 45 -8 7 -25 16 -37 19 -23 7 -23 6 -23 -73 0 -75 2 -81
21 -81 11 0 17 -4 14 -10 -3 -5 -2 -10 4 -10 5 0 12 -10 15 -22 2 -13 4 10 2
50 -1 39 0 72 3 72 2 0 21 -5 43 -12 26 -7 40 -18 43 -32 2 -12 6 -173 10
-359 6 -335 5 -339 -15 -344 -25 -7 -26 -23 -1 -23 21 0 25 -30 36 -265 4 -66
8 -131 11 -145 4 -23 0 -28 -43 -42 -99 -34 -90 -38 -98 49 -3 43 -16 130 -27
193 -11 63 -35 223 -52 355 -28 218 -33 240 -50 237 -10 -2 -15 1 -12 7 4 6 2
90 -4 188 -44 777 -44 798 -22 845 11 24 25 71 31 104 7 39 17 64 31 73 24 16
25 29 4 52 -15 16 -14 19 13 33 36 20 43 19 65 -1z m138 3 c0 -3 -4 -8 -10
-11 -5 -3 -10 -1 -10 4 0 6 5 11 10 11 6 0 10 -2 10 -4z m727 -38 c-2 -25
-292 -262 -367 -300 -25 -13 -47 -24 -49 -26 -6 -3 51 -62 61 -62 4 0 30 14
56 30 27 17 52 30 56 30 11 0 7 -108 -5 -115 -5 -4 -19 1 -30 11 -14 12 -23
14 -30 7 -8 -8 0 -19 25 -38 35 -27 36 -29 36 -94 l-1 -66 -134 140 -134 140
-1 76 c0 57 4 80 15 89 13 11 18 10 28 -4 11 -15 17 -15 72 8 43 17 65 21 77
15 28 -15 22 -23 -43 -59 -33 -19 -56 -36 -50 -38 25 -8 126 54 261 162 79 64
148 116 152 116 4 0 6 -10 5 -22z m-1138 -22 c-14 -31 -20 -31 -62 -9 l-32 17
50 11 c28 7 51 11 53 10 1 -1 -3 -14 -9 -29z m-179 16 c0 -16 -58 -64 -69 -58
-19 12 -12 42 12 54 27 13 57 15 57 4z m320 -97 c0 -34 -23 -115 -31 -109 -10
6 -12 107 -2 117 12 12 33 7 33 -8z m727 -53 c-8 -8 -20 -11 -26 -8 -18 12
-12 43 12 59 21 14 22 13 25 -11 2 -13 -3 -31 -11 -40z m-965 23 c-4 -22 -1
-25 22 -25 15 0 49 11 76 25 27 14 54 25 60 25 14 0 14 -267 -1 -272 -7 -2 -7
-12 0 -29 11 -31 26 -169 18 -169 -17 0 -77 96 -77 122 0 28 -12 59 -32 82 -5
6 -15 20 -23 31 -13 18 -14 13 -15 -52 0 -40 -4 -73 -9 -73 -5 0 -19 8 -31 18
-20 16 -24 31 -28 103 -4 81 -4 84 14 68 16 -13 87 -39 108 -39 17 0 3 20 -21
28 l-28 10 31 1 c16 1 39 7 49 15 17 12 16 14 -19 26 -21 7 -53 26 -72 42 -25
22 -34 26 -34 14 0 -10 -6 -13 -15 -10 -21 8 -19 61 3 73 26 16 30 13 24 -14z
m-132 -100 c0 -70 -4 -115 -10 -115 -6 0 -10 45 -10 115 0 70 4 115 10 115 6
0 10 -45 10 -115z m1355 -74 c-5 -123 -11 -181 -19 -181 -6 0 -28 -3 -48 -6
l-38 -7 0 161 0 160 53 30 c28 16 54 28 56 27 1 -2 0 -85 -4 -184z m-1245 69
c0 -11 -4 -20 -10 -20 -5 0 -10 9 -10 20 0 11 5 20 10 20 6 0 10 -9 10 -20z
m-252 -61 c15 -10 22 -24 22 -47 0 -30 -2 -32 -20 -22 -12 6 -29 8 -40 5 -10
-3 -21 -1 -25 5 -3 5 -17 10 -30 10 -34 0 -55 10 -55 26 0 11 9 13 39 8 55 -9
58 9 6 34 -25 12 -45 28 -45 36 0 12 14 9 63 -13 35 -16 73 -35 85 -42z m140
-82 c12 -14 4 -97 -9 -97 -5 0 -9 18 -9 39 0 22 -3 46 -6 55 -7 19 9 21 24 3z
m162 -141 c0 -30 23 -245 36 -333 6 -38 4 -43 -14 -43 -10 0 -31 9 -45 20 -14
11 -30 20 -36 20 -16 0 -15 247 1 252 10 4 10 10 0 32 -6 15 -12 47 -12 71 l0
45 35 -17 c29 -14 35 -22 35 -47z m1189 -118 c-1 -178 -3 -182 -62 -119 -51
55 -55 71 -41 188 7 51 7 52 43 56 20 2 42 4 49 5 9 2 12 -30 11 -130z m-444
52 c41 -41 54 -61 44 -64 -29 -10 -95 -26 -106 -26 -9 0 -13 22 -13 75 0 41 4
75 8 75 4 0 34 -27 67 -60z m-858 34 c-3 -3 -12 -4 -19 -1 -8 3 -5 6 6 6 11 1
17 -2 13 -5z m247 -44 c15 0 40 -308 27 -325 -5 -5 -11 -27 -15 -47 -9 -50
-22 -48 -30 5 -20 134 -46 347 -46 375 l0 33 26 -20 c15 -12 32 -21 38 -21z
m730 -98 c22 -15 41 -32 43 -38 4 -12 -214 -104 -247 -104 -23 0 -26 10 -8 28
15 15 4 16 -20 1 -12 -7 -28 -6 -56 4 l-39 13 66 42 c55 35 172 79 212 81 6 0
28 -12 49 -27z m195 -75 c9 -11 2 -16 -32 -26 -23 -7 -53 -20 -66 -28 -22 -14
-25 -13 -49 10 l-25 25 64 15 c82 19 94 20 108 4z m36 -47 c10 -11 15 -23 11
-27 -10 -10 -145 -9 -146 1 -1 8 78 39 111 45 3 1 14 -8 24 -19z m60 0 c3 -6
-1 -7 -9 -4 -18 7 -21 14 -7 14 6 0 13 -4 16 -10z m-621 -6 c14 -5 16 -33 16
-201 l0 -194 -27 3 -28 3 -3 198 c-3 208 -3 208 42 191z m232 -59 c27 -18 50
-25 85 -25 26 0 50 -4 53 -9 3 -4 -27 -30 -67 -56 -39 -26 -82 -56 -93 -67
l-22 -19 -7 90 c-6 79 -3 111 10 111 2 0 21 -11 41 -25z m-66 -104 c0 -88 -3
-110 -15 -115 -13 -5 -15 11 -15 109 0 96 3 115 15 115 12 0 15 -19 15 -109z
m453 25 c32 -25 37 -35 37 -70 l0 -41 -50 0 -50 0 0 78 c0 86 -2 85 63 33z
m-197 -182 c-3 -7 -31 -26 -63 -42 l-57 -29 49 -31 c28 -18 54 -33 59 -35 5
-2 5 -85 0 -202 l-9 -199 -49 -12 c-62 -16 -73 -26 -60 -61 7 -20 19 -30 47
-36 l37 -9 0 -117 c0 -117 0 -118 -26 -129 -30 -14 -23 -32 12 -32 l24 0 0
-123 0 -122 -62 -17 c-35 -9 -64 -15 -65 -14 -1 0 -11 181 -23 401 -11 220
-27 501 -35 624 -16 244 -17 240 39 268 l31 15 -30 -28 -30 -29 7 -135 c3 -74
14 -191 22 -260 9 -69 20 -163 25 -210 5 -52 6 46 3 252 l-5 337 29 7 c16 4
38 13 49 20 13 8 25 10 35 4 23 -14 40 8 42 54 1 22 4 10 5 -28 2 -38 2 -75
-1 -82z m-802 94 c16 -76 9 -184 -7 -115 -14 58 -19 137 -8 137 6 0 13 -10 15
-22z m1010 -47 c3 -5 -23 -21 -58 -36 -35 -15 -90 -44 -121 -65 -50 -33 -61
-37 -82 -27 -22 10 -22 11 -6 20 10 5 43 26 73 46 81 52 180 85 194 62z m-460
-48 c3 -10 12 -189 21 -398 8 -209 20 -450 25 -535 19 -292 31 -465 35 -476 2
-8 17 -9 47 -4 24 5 44 7 45 6 1 -1 -1 -35 -4 -74 -6 -73 -6 -73 -44 -93 l-39
-19 0 32 c0 18 -7 74 -15 125 -15 92 -27 249 -64 818 -28 432 -36 635 -23 635
6 0 13 -8 16 -17z m358 -60 c-35 -50 -59 -66 -87 -59 -14 4 -25 10 -25 15 0
14 120 85 128 76 2 -2 -5 -16 -16 -32z m126 -85 c-4 -68 -10 -175 -13 -238
l-7 -116 -90 -12 c-50 -7 -93 -11 -95 -8 -4 4 41 20 88 30 21 5 25 10 22 33
-2 16 0 99 4 186 4 87 6 161 4 163 -3 2 -17 -8 -33 -23 -40 -38 -42 -25 -5 35
24 39 37 52 55 52 18 0 22 -4 18 -15 -18 -44 -15 -47 13 -15 17 19 31 38 31
42 0 4 3 8 8 8 4 0 4 -55 0 -122z m-636 -55 c2 -60 2 -110 1 -112 -2 -2 -14 2
-28 9 -24 13 -25 17 -25 112 0 97 0 98 24 98 24 0 24 -2 28 -107z m519 -244
c-12 -30 -14 122 -3 226 6 64 7 58 10 -66 1 -75 -2 -147 -7 -160z m-508 -21
c4 -62 10 -193 13 -291 l7 -179 -24 4 c-24 3 -24 5 -35 163 -6 88 -14 224 -17
303 l-7 142 29 -14 c27 -15 28 -17 34 -128z m522 -218 c3 -5 24 -10 46 -10
l40 0 -3 -41 c-3 -40 -5 -42 -48 -55 -25 -8 -48 -14 -52 -14 -5 0 -8 29 -8 65
0 60 9 80 25 55z m-835 -151 c0 -32 0 -32 -49 0 -22 14 -22 15 -5 22 40 16 54
10 54 -22z m735 -68 c3 -6 -10 -13 -29 -17 -46 -8 -69 0 -36 14 32 14 57 15
65 3z m-305 -29 c0 -11 -129 -56 -137 -48 -12 11 11 24 67 39 68 19 70 19 70
9z m-180 -47 c0 -9 -24 -21 -65 -34 -36 -10 -79 -31 -96 -45 -17 -14 -43 -26
-57 -26 l-27 1 23 19 c13 11 21 24 17 29 -3 6 14 15 37 21 24 6 68 19 98 30
69 23 70 23 70 5z m580 -90 c-17 -30 -33 -55 -36 -55 -2 0 -4 21 -4 48 0 42 4
50 33 70 45 31 48 8 7 -63z m-496 23 c5 -33 26 -535 26 -616 0 -43 0 -44 -34
-41 -23 2 -46 -5 -75 -24 l-41 -27 0 38 0 38 63 0 62 -1 -2 135 c-1 74 -7 187
-12 250 -24 280 -24 280 -7 280 9 0 17 -12 20 -32z m-60 -30 c3 -29 8 -92 11
-140 l6 -87 -38 -26 c-117 -79 -111 -77 -157 -61 -22 8 -74 20 -114 27 -40 6
-71 13 -68 16 3 3 72 5 153 4 173 -2 200 7 127 41 -27 12 -50 23 -50 23 -1 0
-4 17 -8 38 -6 34 -5 38 11 34 10 -3 31 -8 46 -12 45 -10 28 16 -21 33 l-42
14 0 53 0 54 63 20 c34 11 65 20 69 20 4 1 9 -23 12 -51z m584 -114 l-23 -69
-90 -47 c-87 -46 -184 -83 -193 -73 -2 2 6 20 18 40 23 37 104 104 181 148 25
15 63 42 85 61 48 42 52 31 22 -60z m-218 -40 c-30 -35 -80 -40 -80 -9 0 13
22 21 69 24 20 1 22 -1 11 -15z m276 -56 c8 -16 12 -33 9 -37 -5 -10 -90 -61
-99 -61 -13 0 -5 81 8 86 8 3 17 16 20 29 8 31 42 22 62 -17z m-346 -13 c0 -8
-4 -17 -10 -20 -6 -4 -10 5 -10 20 0 15 4 24 10 20 6 -3 10 -12 10 -20z m-405
-14 l30 -7 -40 -7 c-47 -8 -211 -9 -203 -2 18 19 156 29 213 16z m125 -36 c0
-8 -7 -15 -16 -15 -14 0 -14 3 -4 15 7 8 14 15 16 15 2 0 4 -7 4 -15z m640
-25 c0 -22 -39 -37 -67 -25 -15 5 -12 10 17 25 45 24 50 24 50 0z m-699 -35
c-1 -15 -24 -12 -29 3 -3 9 2 13 12 10 10 -1 17 -7 17 -13z m78 -111 l1 -42
-47 5 -48 4 40 -25 c22 -14 46 -29 54 -33 8 -5 12 -13 10 -19 -2 -6 -27 -3
-66 9 l-61 18 -7 52 c-3 29 -9 60 -11 69 -4 13 10 24 58 46 l63 29 7 -36 c4
-20 7 -55 7 -77z m571 92 c0 -6 -9 -22 -20 -36 -11 -14 -20 -33 -20 -43 0 -10
-4 -15 -10 -12 -10 6 -14 97 -5 107 9 9 55 -4 55 -16z m-125 -53 c23 -50 23
-53 5 -53 -13 0 -23 13 -33 43 l-14 42 -7 -31 c-8 -36 -56 -67 -56 -36 0 26
49 94 66 90 8 -2 25 -27 39 -55z m160 36 c4 -11 4 -32 -1 -47 l-7 -27 -7 25
c-11 36 -11 70 -1 70 5 0 13 -9 16 -21z m-224 -109 c-45 -21 -53 -38 -10 -22
13 5 46 12 72 16 42 7 54 4 88 -18 21 -15 39 -27 39 -29 0 -1 -49 -1 -108 1
-87 3 -110 1 -120 -11 -11 -13 -8 -14 22 -7 52 12 215 -1 261 -20 l39 -17 -46
-27 c-25 -14 -52 -24 -61 -20 -8 3 -36 -2 -61 -10 -61 -21 -73 -20 -53 2 10
10 17 22 17 25 0 4 -49 7 -110 7 -90 0 -110 3 -110 15 0 8 11 22 25 31 14 9
25 20 25 25 0 5 -11 2 -25 -7 -14 -9 -25 -12 -25 -6 0 12 105 77 136 85 44 11
46 5 5 -13z m-320 -212 c0 -18 2 -75 5 -125 6 -102 0 -112 -47 -75 l-22 19 31
19 c18 10 32 22 32 26 0 12 -7 10 -51 -12 -27 -15 -45 -18 -56 -11 -14 7 -8
14 35 41 29 17 52 34 52 36 0 2 -22 18 -50 35 -27 17 -50 34 -50 39 0 9 75 38
103 39 13 1 17 -7 18 -31z m493 -28 c11 -11 17 -22 13 -26 -3 -4 -54 1 -112
11 l-106 18 26 27 26 27 67 -18 c36 -11 75 -28 86 -39z m-203 26 c-18 -19 -28
-23 -45 -17 -11 5 -45 12 -73 16 -85 11 -61 25 44 25 l96 0 -22 -24z m166
-103 c-14 -50 -12 -48 -45 -24 -17 12 -35 21 -41 21 -6 0 -11 4 -11 8 0 19 27
32 66 32 l42 0 -11 -37z m-728 -7 c-19 -17 -182 -97 -187 -91 -10 10 63 72
118 100 39 20 47 21 59 9 8 -7 13 -15 10 -18z m-202 18 c12 -3 24 -12 27 -20
6 -15 -40 -74 -57 -74 -29 1 -38 17 -31 58 7 43 15 48 61 36z m278 -54 c3 -5
1 -10 -4 -10 -6 0 -11 5 -11 10 0 6 2 10 4 10 3 0 8 -4 11 -10z m17 -119 c-16
-62 -33 -106 -41 -109 -11 -4 -13 5 -7 44 8 61 56 188 66 177 5 -4 -4 -55 -18
-112z m115 55 c36 -41 63 -101 63 -137 0 -8 -13 6 -28 31 -99 157 -109 191
-35 106z m-417 -6 c19 -10 46 -30 60 -45 l25 -27 -50 25 c-82 40 -95 42 -95
14 0 -14 -7 -30 -15 -37 -13 -11 -15 -6 -15 37 0 27 3 53 7 56 8 9 36 1 83
-23z m-317 -14 c4 -10 0 -12 -14 -9 -27 7 -34 23 -11 23 11 0 22 -6 25 -14z
m505 -72 c29 -8 28 -24 -2 -24 -44 0 -75 -18 -98 -59 -33 -58 -61 -56 -38 3
15 40 -2 31 -52 -27 -45 -52 -48 -53 -97 -53 -53 1 -59 4 -39 24 19 19 -1 14
-38 -9 -19 -11 -46 -19 -60 -17 -25 3 -22 6 37 50 99 73 306 133 387 112z
m-350 -21 l37 -17 -36 -4 c-41 -4 -93 13 -84 28 9 15 41 12 83 -7z m556 -12
c6 -9 -27 -21 -59 -21 -20 1 -20 1 -1 15 22 17 52 20 60 6z m251 -36 c86 -48
174 -135 136 -135 -6 0 -13 5 -16 11 -9 13 -85 69 -96 69 -4 0 6 -24 22 -52
53 -96 33 -85 -83 45 -92 104 -79 127 37 62z m-140 -36 c31 -11 68 -31 83 -44
25 -22 21 -22 -73 11 -55 18 -108 34 -117 34 -9 0 -20 5 -23 10 -11 18 72 11
130 -11z m-219 -142 c21 -32 29 -56 31 -102 3 -59 3 -59 -12 -30 -17 36 -18
29 -4 -54 10 -64 4 -131 -11 -114 -11 12 -68 250 -76 317 l-7 58 26 -16 c14
-10 38 -36 53 -59z m430 -22 c49 -24 114 -84 114 -105 0 -18 -29 -11 -77 19
-67 40 -117 54 -174 49 -63 -6 -106 -36 -171 -120 -29 -37 -54 -65 -56 -63 -3
2 1 18 7 36 6 18 11 39 11 48 -1 14 -3 13 -15 -2 -12 -17 -14 -15 -20 25 -11
72 -4 102 24 106 15 3 30 -3 37 -13 12 -16 15 -15 46 8 18 13 47 29 63 36 47
17 151 5 211 -24z m-72 -64 c4 -5 -7 -12 -24 -16 -17 -4 -72 -34 -123 -67 -50
-33 -87 -54 -81 -47 54 73 92 113 118 125 36 15 102 18 110 5z m-547 -68 c53
-64 95 -127 127 -191 44 -87 25 -81 -34 9 -30 46 -78 117 -107 157 -60 81 -49
101 14 25z m630 26 c26 -11 20 -13 -67 -25 -121 -16 -130 -17 -105 -2 61 36
125 46 172 27z m-101 -78 c-3 -5 -17 -12 -32 -15 -41 -11 -103 -54 -197 -138
-49 -44 -91 -77 -94 -75 -6 7 31 91 57 127 12 17 41 41 65 55 56 33 215 70
201 46z"/>
<path fill="green" d="M4221 3530 c0 -15 -6 -31 -13 -38 -22 -22 19 -24 61 -2 48 24 46 41
-3 33 -28 -4 -35 -2 -39 13 -3 14 -5 12 -6 -6z"/>
<path fill="royalblue" d="M1120 1525 c0 -12 5 -26 11 -32 7 -7 1 -14 -20 -23 -17 -7 -36 -18
-42 -26 -9 -12 -4 -14 32 -14 24 0 54 -3 67 -6 31 -9 30 27 -2 58 -13 13 -28
32 -34 43 -11 20 -11 20 -12 0z"/>
<path fill="green" d="M0 1133 c0 -18 1 -33 3 -33 1 0 26 9 55 20 29 11 64 20 79 20 54 0
11 13 -62 19 l-75 7 0 -33z"/>
<path fill="red" d="M3527 1067 l-27 -23 39 -22 c46 -26 69 -28 78 -6 5 14 -41 75 -56 74
-3 -1 -18 -11 -34 -23z"/>
<path fill="green" d="M22 990 c-21 -9 -22 -15 -22 -111 0 -56 3 -99 7 -95 4 4 15 44 24 89
10 45 21 92 25 105 7 24 1 26 -34 12z"/>
<path fill="green" d="M5101 878 c-13 -69 -34 -388 -27 -395 2 -3 14 -2 25 2 20 6 21 12 21
231 0 123 -2 224 -4 224 -2 0 -9 -28 -15 -62z"/>
<path fill="brown" d="M2023 773 c20 -2 54 -2 75 0 20 2 3 4 -38 4 -41 0 -58 -2 -37 -4z"/>
<path fill="brown" d="M1753 603 c-114 -5 -106 -23 10 -23 51 0 98 -5 103 -10 7 -7 70 -9
170 -8 l159 3 -90 23 c-91 22 -129 24 -352 15z"/>
<path fill="brown" d="M175 571 c-79 -35 -68 -48 16 -20 44 15 83 30 86 33 14 14 -65 4
-102 -13z"/>
<path fill="brown" d="M1540 460 c0 -5 13 -16 30 -25 24 -12 80 -15 332 -15 211 -1 298 -4
286 -11 -37 -21 -16 -29 77 -29 l95 0 0 45 0 45 -410 0 c-259 0 -410 -4 -410
-10z"/>
<path fill="green" d="M5020 425 c0 -3 14 -37 32 -76 29 -66 30 -72 15 -84 -29 -21 -165
-38 -317 -40 -108 -1 -154 -6 -182 -18 -21 -9 -38 -17 -38 -19 0 -2 53 -4 118
-4 104 0 128 -4 212 -32 52 -17 130 -50 173 -72 44 -22 81 -40 83 -40 2 0 4
83 4 184 l0 184 -44 11 c-50 12 -56 13 -56 6z"/>
<path fill="blue" d="M1473 273 c-35 -2 -63 -8 -63 -13 0 -4 45 -12 99 -15 87 -7 103 -11
122 -31 18 -19 33 -24 75 -24 34 0 56 -5 64 -15 10 -12 41 -15 156 -15 80 0
145 4 149 10 13 20 -43 38 -139 44 -54 3 -101 8 -104 11 -12 12 12 17 117 22
105 6 131 13 95 27 -16 6 -457 5 -571 -1z"/>
<path fill="green" d="M210 188 c-19 -44 -37 -107 -27 -98 13 13 65 140 56 140 -6 0 -19
-19 -29 -42z"/>
<path fill="green" d="M335 172 c-27 -26 -59 -58 -70 -71 l-20 -24 21 11 c29 15 134 112
134 123 0 17 -15 8 -65 -39z"/>
<path fill="green" d="M4635 172 c-6 -5 -50 -25 -100 -46 -130 -55 -126 -61 8 -15 l116 40
79 -40 c43 -22 99 -56 125 -75 26 -20 55 -36 65 -36 32 1 -78 90 -162 129 -96
47 -119 54 -131 43z"/>
<path fill="green" d="M4582 90 c-76 -30 -167 -79 -159 -86 2 -2 28 6 58 19 30 13 79 32
109 42 58 18 80 31 80 46 0 13 -7 11 -88 -21z"/>
<path fill="blue" d="M2447 64 c-19 -19 24 -24 221 -24 193 1 215 2 198 15 -16 12 -59 15
-216 15 -108 0 -200 -3 -203 -6z"/>
</g>
</svg>