<?xml version="1.0" standalone="no"?>
<svg version="1.0" xmlns="http://www.w3.org/2000/svg"
 width="512.000000pt" height="512.000000pt" viewBox="0 0 512.000000 512.000000"
 preserveAspectRatio="xMidYMid meet">
<metadata>
Created by potrace 1.16, written by Peter Selinger 2001-2019
</metadata>
<g transform="translate(0.000000,512.000000) scale(0.100000,-0.100000)"
fill="#000000" stroke="none">
<path fill="green" d="M3 4943 c3 -98 6 -184 8 -190 1 -8 11 -10 25 -7 12 3 32 0 44 -6 25
-13 22 -3 -9 34 -16 18 -15 18 16 2 36 -18 73 -21 73 -6 0 24 -32 70 -60 87
-16 9 -30 24 -30 32 0 12 -3 12 -17 -1 -50 -42 -61 -14 -17 40 21 24 35 32 60
32 32 0 33 1 22 25 -10 21 -8 28 8 40 17 13 21 12 39 -8 36 -40 52 -40 59 1 3
20 6 52 6 70 l0 32 -116 0 -115 0 4 -177z"/>
<path fill="green" d="M500 5110 c8 -6 23 -15 33 -21 17 -9 17 -8 7 10 -6 12 -21 21 -33 21
-18 0 -19 -2 -7 -10z"/>
<path fill="green" d="M744 5020 l2 -105 -61 63 c-56 57 -64 62 -103 62 -24 0 -61 9 -84 21
-47 24 -76 21 -133 -12 -37 -22 -37 -23 -16 -33 28 -12 22 -30 -12 -34 -21 -3
-27 1 -27 15 0 14 -3 13 -15 -7 -44 -77 -49 -90 -36 -103 9 -9 20 -7 52 11 36
21 42 22 57 9 24 -22 52 -4 99 62 21 30 45 57 53 59 9 3 6 -4 -7 -17 -30 -28
-29 -42 3 -72 26 -23 26 -26 20 -112 -9 -122 -10 -123 -60 -85 -70 54 -73 53
-13 -3 l57 -55 0 -95 c0 -67 -6 -110 -19 -149 -11 -30 -22 -91 -26 -135 -4
-44 -10 -86 -14 -93 -10 -19 -165 180 -197 252 -12 28 -13 29 -14 8 0 -14 -5
-22 -12 -20 -19 7 -47 51 -50 78 -3 21 2 26 24 28 23 3 27 -1 31 -30 4 -33 4
-33 5 5 2 26 7 39 19 43 51 17 121 58 117 68 -3 7 4 20 15 30 20 18 20 42 0
31 -5 -4 -18 9 -29 29 -25 42 -50 53 -66 31 -23 -31 -47 -13 -65 45 l-16 55
-10 -40 c-24 -88 -26 -101 -24 -115 2 -8 4 -16 6 -18 4 -5 58 30 67 42 15 23
17 -3 3 -38 -11 -27 -33 -48 -78 -76 -57 -36 -63 -38 -75 -23 -6 9 -12 25 -12
35 0 20 -16 24 -23 6 -3 -7 -10 0 -16 17 -13 31 -27 45 -50 45 -10 0 -12 -24
-8 -122 2 -68 8 -134 12 -148 4 -16 4 -20 -2 -12 -7 9 -10 2 -11 -22 -1 -20 2
-35 6 -35 22 4 31 -4 36 -28 4 -16 8 -37 11 -48 2 -11 7 -35 11 -54 8 -36 4
-37 -48 -16 -10 4 -18 3 -18 -3 0 -6 14 -13 30 -17 38 -8 56 -36 64 -95 16
-129 47 -250 116 -447 29 -82 29 -84 19 -199 -6 -64 -16 -131 -23 -148 l-13
-31 -25 50 c-14 28 -38 90 -54 138 l-28 88 22 112 c24 120 27 154 13 175 -5 9
-9 -6 -9 -40 0 -47 -27 -207 -37 -216 -2 -2 -18 18 -37 45 -28 41 -33 45 -36
26 -2 -12 12 -52 32 -90 19 -37 40 -88 46 -113 6 -25 14 -54 17 -64 4 -14 -6
-10 -41 19 -68 56 -68 34 1 -37 49 -52 62 -74 77 -126 17 -63 17 -63 -8 -145
-14 -45 -27 -91 -28 -102 -3 -13 -15 7 -33 55 -16 41 -37 91 -47 110 l-17 35
-1 -132 0 -131 35 -42 35 -42 1 -146 c0 -81 4 -170 8 -199 8 -56 8 -56 -47
-15 l-32 24 0 -24 c0 -13 17 -64 38 -113 36 -87 37 -93 36 -205 -2 -188 -46
-637 -70 -717 -5 -17 -2 -23 9 -23 14 0 14 -3 1 -27 -18 -37 -19 -103 0 -103
7 0 19 -7 26 -15 11 -14 10 -14 -14 -6 l-26 11 0 -119 0 -119 42 -16 c41 -17
263 -58 386 -71 35 -4 62 -8 60 -10 -2 -2 -104 -22 -228 -44 -258 -48 -260
-48 -260 -65 0 -13 44 -21 460 -80 196 -29 277 -35 485 -40 138 -4 322 -8 410
-11 141 -3 149 -3 70 6 -49 5 -247 13 -440 18 -307 8 -374 13 -550 39 -230 35
-376 60 -382 65 -2 3 16 8 39 11 140 24 222 34 230 30 4 -3 8 -1 8 4 0 5 17
12 38 15 50 7 303 53 427 77 96 19 261 45 355 56 25 3 72 11 105 18 l60 13
-45 12 c-25 7 -54 15 -65 18 -19 5 -19 5 -1 -9 20 -16 7 -19 -318 -67 l-118
-18 -55 30 c-30 16 -81 38 -112 47 -69 22 -48 25 34 5 72 -17 115 -19 115 -4
0 6 -8 8 -19 4 -22 -7 -34 7 -50 56 -15 46 -81 82 -77 42 1 -13 -7 -18 -31
-18 -27 0 -32 3 -27 18 6 18 -11 24 -21 7 -14 -22 -45 10 -45 45 0 19 3 35 6
35 12 0 51 -24 76 -48 l28 -26 27 25 c57 52 72 73 62 91 -12 23 -37 23 -61 1
-17 -15 -20 -15 -28 -3 -17 27 -11 40 19 40 33 0 51 17 27 26 -21 8 -20 31 2
37 9 3 2 5 -17 6 -29 1 -32 -1 -21 -14 7 -9 9 -19 5 -23 -4 -4 -10 -1 -12 6
-3 6 -9 10 -14 6 -15 -9 -88 29 -88 46 -1 8 4 33 9 55 5 23 23 153 40 290 17
138 46 351 65 475 18 124 41 284 49 355 9 72 20 157 26 190 5 33 11 85 12 115
2 45 10 67 45 124 56 91 59 93 71 58 6 -17 34 -65 64 -109 34 -50 74 -130 111
-221 62 -155 66 -172 40 -151 -16 13 -17 12 -4 -4 12 -15 13 -71 7 -340 -3
-177 -9 -360 -12 -407 -4 -60 -3 -81 5 -70 13 19 21 10 27 -31 2 -19 8 -54 13
-79 8 -42 9 -42 10 -11 1 22 5 32 14 28 6 -2 18 2 25 9 10 11 10 14 0 14 -9 0
-10 3 -2 8 6 4 11 21 10 38 -1 30 0 31 21 17 19 -13 20 -18 10 -41 -6 -15 -14
-31 -18 -37 -4 -5 -21 -45 -38 -89 -18 -43 -38 -85 -47 -93 -8 -8 -13 -23 -10
-32 2 -9 7 -36 11 -61 10 -66 15 -80 31 -80 8 0 31 -15 51 -33 21 -19 47 -39
58 -45 l20 -11 -20 -2 c-11 -1 -85 -5 -165 -9 l-145 -8 170 3 c158 3 173 1
210 -19 l40 -21 -100 -6 c-84 -4 -70 -5 83 -7 l182 -2 10 26 c6 14 10 36 10
50 l0 24 134 0 134 0 6 -27 c4 -16 43 -82 87 -148 43 -67 79 -128 79 -137 0
-29 -12 -48 -30 -48 -9 0 -32 -22 -51 -50 -29 -42 -39 -50 -65 -50 -28 0 -36
-8 -83 -81 -28 -45 -50 -83 -48 -86 4 -4 135 -26 232 -39 39 -5 46 -8 30 -15
-28 -11 -8 -11 82 2 76 11 127 27 93 30 -8 1 10 7 40 15 32 7 57 9 60 4 3 -6
42 -3 92 6 86 16 87 16 119 -7 32 -22 32 -23 10 -33 -17 -7 -21 -15 -16 -33 8
-33 -25 -38 -148 -22 -121 15 -104 16 -242 -9 -60 -11 -209 -30 -330 -42 -189
-18 -246 -28 -405 -70 -102 -27 -266 -70 -365 -95 -99 -26 -315 -83 -480 -127
-165 -44 -326 -87 -357 -96 -43 -11 -58 -19 -58 -32 0 -15 19 -12 168 30 154
44 498 138 1062 289 182 49 254 63 380 76 232 23 388 44 456 61 55 14 72 14
178 -1 64 -9 129 -20 144 -26 51 -20 187 -38 402 -54 121 -9 219 -21 225 -27
7 -8 5 -9 -8 -5 -15 6 -16 4 -7 -13 9 -17 21 -20 91 -20 66 0 80 -3 76 -14 -7
-17 7 -20 436 -76 226 -30 312 -38 325 -30 16 10 16 10 0 8 -32 -5 -19 17 15
27 20 6 39 13 42 17 4 4 26 5 49 2 22 -2 113 -13 201 -24 88 -11 163 -20 168
-20 14 0 7 -28 -23 -95 -16 -37 -30 -73 -30 -81 0 -8 16 -22 36 -30 35 -15
637 -104 701 -104 l33 0 -2 407 c-1 225 -4 377 -7 338 -6 -65 -7 -68 -19 -47
-18 32 -13 253 6 260 6 2 10 8 6 13 -3 5 0 9 5 9 13 0 10 3168 -2 3210 -6 20
-6 21 2 5 7 -15 10 -7 10 36 1 40 -3 58 -13 62 -9 4 -16 30 -21 80 -6 64 -4
79 14 115 16 32 21 60 21 123 l0 82 -35 -47 c-20 -25 -38 -46 -40 -46 -3 0 -5
42 -5 93 0 92 1 95 40 156 25 39 40 73 40 93 l0 32 -35 -34 c-39 -38 -37 -41
-55 74 -6 44 -14 85 -17 93 -8 21 -40 15 -48 -9 -8 -23 -8 -23 -12 -2 -4 20
-11 22 -84 23 -43 1 -79 -1 -79 -4 0 -3 14 -33 31 -66 25 -51 75 -209 67 -214
-42 -26 -178 -129 -193 -145 -11 -12 26 13 83 55 64 49 106 75 112 69 11 -11
22 -109 45 -384 9 -102 18 -216 21 -255 l6 -70 -42 40 c-23 22 -56 60 -75 85
-40 55 -117 231 -140 320 -9 36 -25 76 -35 90 -18 25 -18 25 33 90 28 36 76
94 106 130 31 36 43 54 27 40 -16 -14 -75 -80 -132 -148 -92 -109 -103 -126
-93 -144 6 -11 22 -52 35 -91 l24 -70 -26 24 c-14 13 -30 32 -36 42 -5 10 -27
113 -49 230 -21 116 -50 249 -64 294 l-26 84 -102 -3 -102 -3 -12 -35 -12 -35
0 38 c-1 31 -4 38 -18 35 -14 -3 -17 -12 -14 -51 l3 -48 -48 51 -47 50 -69 0
-70 0 31 -35 c17 -20 31 -37 31 -38 0 -1 -12 -3 -27 -3 -16 -1 -37 -2 -48 -3
-11 -1 -39 2 -63 6 l-43 8 30 13 c16 7 31 22 34 32 7 27 -13 26 -49 -2 -15
-13 -44 -28 -64 -34 -30 -10 -32 -12 -10 -13 23 -1 22 -3 -15 -24 -24 -14 -39
-29 -37 -39 2 -11 -9 -20 -33 -28 -39 -13 -65 -43 -65 -77 0 -13 -4 -23 -10
-23 -5 0 -10 9 -10 20 0 29 -38 26 -72 -7 -15 -15 -28 -37 -28 -49 0 -33 -17
-38 -24 -8 -8 32 -26 27 -46 -12 -8 -16 -27 -45 -43 -65 -34 -45 -34 -57 -1
-65 18 -5 43 2 83 20 63 31 101 30 176 -3 22 -10 95 -40 162 -67 l122 -49 27
-65 c37 -88 50 -106 85 -120 24 -10 29 -18 27 -39 -2 -21 7 -34 57 -71 l60
-45 1 -60 c1 -33 5 -84 8 -112 5 -42 3 -53 -8 -53 -8 0 -16 -6 -19 -12 -3 -10
-7 -10 -20 0 -13 11 -15 10 -10 -7 3 -13 1 -21 -6 -21 -7 0 -10 4 -7 9 7 11
-18 33 -27 24 -4 -3 -7 2 -8 13 -1 15 -3 13 -8 -6 -5 -14 -4 -33 1 -42 5 -10
6 -29 4 -43 -3 -17 0 -25 10 -25 8 0 13 -3 13 -7 -4 -25 2 -36 12 -26 9 9 21
7 48 -7 34 -17 38 -24 50 -83 7 -37 9 -80 5 -102 l-7 -39 -18 23 c-31 39 -106
183 -148 286 -45 111 -150 319 -158 312 -2 -3 5 -23 16 -46 l21 -41 -26 -6
c-15 -4 -35 -2 -45 4 -15 10 -17 9 -13 -3 6 -14 80 -55 100 -55 12 0 67 -107
89 -175 9 -27 43 -106 74 -175 32 -69 64 -141 72 -160 15 -39 14 -199 -2 -214
-5 -6 -9 1 -10 20 0 22 -2 25 -8 11 -5 -15 -17 -4 -65 59 l-58 78 6 76 c4 41
9 98 12 127 l6 51 -59 22 c-33 12 -73 33 -89 46 -16 14 -22 23 -14 19 8 -4 6
1 -5 10 -11 9 -19 18 -17 20 2 5 -1 5 -32 -3 -17 -5 -18 -6 -3 -17 9 -7 19
-25 21 -41 2 -16 6 -36 9 -44 3 -8 11 -35 18 -60 14 -56 40 -108 75 -149 36
-43 26 -48 -24 -11 -46 33 -76 82 -69 111 3 10 2 19 -2 21 -4 2 -23 21 -43 43
l-37 41 35 -4 c30 -4 33 -2 28 14 -11 31 -25 43 -40 37 -8 -3 -14 -2 -13 3 1
5 -1 17 -6 27 -7 17 -8 17 -27 0 -19 -17 -20 -17 -39 7 -10 14 -19 20 -19 14
0 -6 -13 -17 -30 -24 -16 -7 -27 -16 -25 -21 3 -4 -3 -13 -14 -19 -13 -7 -22
-7 -26 0 -3 5 -13 10 -22 10 -14 0 -14 -3 2 -20 25 -28 5 -25 -36 5 -19 14
-41 28 -51 31 -9 3 -19 16 -23 27 -6 19 -8 20 -12 5 -5 -21 -4 -21 -37 -9 -18
7 -27 6 -36 -4 -15 -18 -21 -53 -9 -60 5 -4 5 -13 -1 -24 -5 -10 -7 -21 -5
-25 3 -3 2 -4 -1 -2 -3 2 -19 0 -35 -6 -28 -10 -29 -12 -29 -73 l0 -64 30 11
c18 6 75 9 130 6 l100 -4 56 -54 c31 -30 69 -75 85 -100 27 -41 28 -45 12 -52
-16 -7 -16 -8 2 -5 26 3 99 -86 126 -156 11 -28 24 -56 28 -62 13 -16 84 -161
134 -270 61 -134 65 -157 33 -225 -17 -36 -22 -57 -14 -61 7 -4 6 -8 -3 -12
-8 -3 -2 -6 13 -6 17 -1 28 -7 30 -18 3 -12 9 -3 18 24 7 23 17 40 21 37 30
-18 -22 170 -76 276 -94 183 -137 277 -150 328 -18 68 -19 188 -3 257 l12 51
53 -32 c40 -24 65 -50 101 -106 27 -40 61 -82 76 -92 36 -23 91 -140 111 -234
8 -40 20 -82 25 -92 6 -10 10 -25 10 -32 -1 -29 -44 80 -50 127 l-7 50 -2 -45
c0 -28 12 -82 36 -150 41 -117 46 -181 19 -242 -9 -21 -23 -54 -31 -73 -8 -19
-13 -35 -10 -35 8 0 41 71 60 130 l18 55 18 -53 18 -53 -60 -107 c-38 -68 -58
-115 -56 -129 2 -13 -2 -28 -9 -34 -8 -6 -11 -15 -8 -21 3 -5 9 -30 14 -56 l8
-47 1 45 c1 44 57 190 99 259 l19 32 34 -88 34 -88 3 -563 c2 -459 1 -563 -10
-560 -7 3 -15 13 -17 24 -7 42 -45 60 -54 27 -3 -13 -5 -12 -6 5 0 13 6 30 14
38 32 33 7 112 -44 139 -27 13 -31 13 -54 -5 -22 -17 -26 -18 -37 -5 -20 24
-49 18 -81 -17 -33 -36 -45 -70 -33 -90 4 -7 8 -24 8 -37 1 -18 14 -34 53 -60
28 -20 49 -39 47 -43 -2 -3 0 -9 6 -13 6 -4 7 -11 4 -17 -4 -7 -2 -8 4 -4 6 4
8 14 5 23 -4 10 -2 14 5 9 6 -3 10 -15 9 -26 -1 -19 -10 -20 -152 -22 l-150
-2 165 -6 c91 -3 149 -7 130 -8 -19 -1 -42 -7 -50 -12 -12 -8 -11 -12 8 -30
42 -39 23 -49 -21 -11 -17 14 -20 14 -31 -1 -10 -14 -37 -16 -176 -18 -91 -1
-199 -6 -240 -10 -52 -6 -5 -7 150 -5 146 1 188 0 120 -4 l-105 -7 105 -3 c58
-2 116 -6 130 -10 30 -9 4 -15 -345 -86 -220 -45 -266 -58 -234 -69 8 -3 154
-12 324 -21 327 -16 731 -44 753 -51 11 -3 9 -38 -3 -52 -2 -2 -85 -9 -186
-17 l-183 -15 -26 25 -27 25 4 -27 c4 -27 0 -30 -79 -60 -46 -17 -150 -61
-233 -97 -163 -72 -223 -92 -236 -79 -13 13 1 51 20 56 9 3 -6 3 -34 0 -27 -2
-51 -8 -53 -14 -2 -5 -19 -16 -38 -25 -18 -9 -31 -20 -28 -25 3 -5 -1 -9 -9
-9 -8 0 -17 -7 -21 -15 -8 -23 -23 -18 -22 8 1 15 7 21 20 19 11 -2 15 1 11 7
-3 6 -1 11 5 11 6 0 8 5 4 11 -4 7 -9 7 -13 2 -3 -5 -14 -13 -25 -16 -13 -5
-17 -3 -13 7 4 10 -2 16 -16 18 -12 2 -21 9 -20 16 2 6 -5 13 -15 13 -9 1 -3
5 13 9 26 7 23 8 -20 8 -27 1 -84 4 -127 7 l-76 7 -45 -41 -45 -42 -31 51
c-32 52 -40 57 -71 40 -15 -8 -17 -6 -13 9 5 20 55 39 61 23 1 -5 16 -31 33
-57 l30 -47 20 26 c25 32 43 75 64 154 23 90 13 142 -36 195 -22 22 -39 45
-39 50 0 4 -11 32 -24 60 -33 73 -56 144 -52 159 3 7 7 26 11 42 l6 28 67 -6
c46 -5 62 -4 52 3 -12 8 -11 14 10 38 14 15 35 37 47 48 33 31 38 60 13 85
-16 16 -19 28 -15 53 5 24 1 39 -15 60 -12 15 -28 27 -36 27 -9 0 -14 11 -14
30 0 20 -8 35 -25 46 -31 20 -42 13 -51 -33 l-7 -36 -23 46 c-23 44 -23 47 -8
89 8 24 29 93 46 153 16 61 32 118 35 127 4 12 -2 21 -18 26 -21 8 -21 9 14
16 31 6 37 11 41 39 92 591 83 540 98 531 12 -7 89 -170 131 -276 l27 -66 -29
-179 c-17 -98 -37 -233 -46 -301 -15 -119 -15 -124 4 -150 17 -25 18 -29 4
-47 -8 -11 -26 -45 -40 -75 -28 -61 -27 -101 2 -198 15 -51 19 -55 78 -82 48
-23 68 -39 88 -72 15 -24 32 -41 40 -39 19 4 47 3 89 -4 30 -6 50 1 113 34 43
23 89 41 102 41 45 0 60 40 60 165 0 60 -4 122 -8 137 -6 24 -4 28 27 38 19 6
39 17 45 24 14 16 31 264 36 514 l4 183 -42 60 c-23 32 -52 62 -64 65 -32 9
-38 48 -11 84 22 30 22 30 4 87 -10 32 -40 113 -67 181 -27 67 -49 126 -49
132 0 5 15 6 34 3 30 -5 35 -3 38 18 2 13 -7 49 -20 79 -13 30 -44 102 -68
159 -24 58 -51 112 -59 121 -14 15 -24 14 -137 -6 -155 -29 -248 -39 -249 -28
-1 5 -4 148 -8 319 l-6 310 -284 189 -285 189 -120 -12 c-67 -7 -256 -38 -421
-68 -165 -31 -338 -59 -385 -63 l-85 -7 70 -2 c87 -2 72 -14 -46 -38 -117 -23
-119 -27 -119 -173 l0 -120 -37 -2 c-78 -3 -89 -4 -110 -16 -15 -8 -24 -9 -28
-1 -5 7 -12 6 -23 -4 -10 -8 -28 -20 -42 -26 -19 -9 -15 -2 15 25 47 43 28 35
-33 -14 -58 -47 -144 -151 -135 -164 3 -6 1 -8 -4 -5 -6 4 -22 -11 -37 -33
-31 -47 -66 -70 -66 -43 1 10 7 36 15 58 l14 40 -19 -25 c-11 -14 -20 -38 -20
-55 0 -40 -5 -46 -81 -93 -73 -46 -79 -48 -79 -28 0 20 -32 117 -37 112 -3 -2
5 -35 17 -72 22 -71 22 -69 -24 -95 -18 -11 -19 -8 -12 87 l6 99 58 55 c59 56
56 56 -14 2 -23 -17 -44 -29 -48 -25 -3 3 -6 24 -6 45 0 43 34 118 87 190 36
50 37 50 299 127 39 12 100 40 135 63 35 24 78 49 94 56 l30 12 -34 -5 c-19
-3 -48 -16 -65 -29 -52 -39 -113 -66 -199 -87 -45 -11 -91 -22 -102 -26 -11
-3 18 20 64 51 47 31 88 56 92 56 5 0 22 20 39 45 36 52 96 95 161 117 41 14
54 14 105 2 33 -7 75 -13 94 -13 29 1 25 4 -25 14 -33 7 -62 14 -65 15 -3 1
-14 2 -25 1 -14 -1 -8 5 16 18 19 11 42 28 50 37 11 14 5 13 -26 -5 -42 -25
-125 -51 -162 -51 -16 0 -23 6 -23 19 0 15 -18 31 -35 31 -3 0 -20 -14 -39
-31 -26 -23 -40 -47 -53 -92 -12 -45 -27 -72 -58 -102 -39 -40 -208 -135 -219
-124 -3 3 -1 55 5 115 10 93 18 123 53 204 40 89 46 98 111 147 38 29 76 65
83 80 19 35 21 36 112 69 74 26 75 26 130 9 30 -10 61 -20 69 -23 8 -3 12 -1
8 5 -3 5 -34 18 -68 28 l-61 19 28 24 c29 23 177 102 191 102 5 -1 -4 -8 -19
-16 -31 -16 -37 -34 -12 -34 19 0 44 24 44 43 0 18 24 28 48 20 9 -3 14 -3 10
2 -4 4 -3 14 4 22 9 11 7 12 -7 7 -11 -5 -21 -1 -27 10 -9 15 -14 13 -48 -24
-40 -43 -55 -45 -96 -8 -16 15 -24 16 -29 7 -6 -8 -4 -10 4 -4 9 5 12 1 11
-11 -4 -35 0 -43 18 -38 9 3 -2 -5 -25 -19 -23 -14 -58 -38 -78 -52 -19 -15
-35 -22 -35 -16 0 7 -5 9 -10 6 -6 -4 -8 -10 -5 -14 2 -5 -23 -18 -58 -31 -34
-12 -86 -35 -114 -51 -42 -23 -53 -26 -53 -13 0 9 5 12 12 8 7 -4 8 -3 4 5 -4
6 4 57 19 112 14 56 25 103 22 105 -2 2 -21 -54 -42 -126 -23 -79 -43 -130
-51 -130 -7 0 -16 -4 -19 -10 -3 -6 1 -7 9 -4 21 8 20 -5 -4 -41 l-20 -30 0
33 c0 20 -4 31 -10 27 -6 -4 -8 -10 -5 -15 3 -4 -6 -7 -19 -6 -16 1 -22 6 -19
16 2 8 -3 3 -12 -12 -16 -29 -35 -37 -35 -16 0 6 -2 9 -5 6 -3 -3 2 -36 11
-74 l17 -69 -27 -53 c-15 -29 -45 -105 -68 -170 -22 -64 -42 -118 -43 -120 -1
-2 -20 8 -40 23 -21 14 -43 25 -48 25 -6 0 10 -13 36 -30 26 -16 47 -31 47
-32 0 -2 -9 -32 -20 -67 -13 -40 -44 -98 -83 -153 -34 -49 -82 -120 -106 -158
-27 -42 -48 -65 -52 -58 -4 6 -3 21 1 32 12 30 30 167 30 232 0 41 3 53 13 48
9 -6 9 -4 0 7 -15 15 -17 65 -4 73 17 11 120 170 141 219 11 26 25 47 29 47
14 0 163 112 157 117 -3 3 -34 -16 -68 -41 -35 -26 -75 -50 -90 -53 -21 -4
-28 -13 -37 -48 -6 -23 -26 -64 -46 -91 -19 -27 -44 -66 -55 -86 -33 -61 -44
-59 -36 8 3 32 14 85 23 117 12 45 21 59 39 63 13 3 24 11 24 16 0 6 -7 7 -16
4 -14 -5 -16 -1 -11 23 7 34 101 156 120 156 7 0 17 16 24 35 6 19 17 34 23
32 6 -1 9 2 6 7 -9 13 4 42 15 35 6 -3 22 2 37 12 15 10 30 17 35 16 6 -2 12
56 8 81 0 4 4 7 10 7 5 0 7 5 4 10 -3 6 -3 10 2 10 9 0 46 61 40 67 -10 9 -38
-11 -43 -31 -3 -12 -14 -27 -24 -34 -16 -9 -14 -1 11 56 22 49 40 74 67 92 20
14 85 71 143 128 91 87 116 106 167 123 34 11 77 36 99 55 l38 35 -40 -30
c-22 -16 -67 -37 -100 -47 -52 -14 -71 -28 -145 -99 -81 -79 -190 -169 -195
-163 -2 2 4 31 13 66 14 50 14 66 4 82 -7 11 -8 20 -2 20 5 0 17 11 25 24 13
19 14 29 5 45 -10 19 -8 21 18 21 16 0 35 -7 42 -15 15 -18 110 -21 128 -3 7
7 12 22 12 35 0 20 -5 23 -37 23 -33 0 -35 1 -21 18 32 36 29 46 -3 15 -19
-18 -41 -33 -48 -33 -7 0 -29 14 -48 30 -39 35 -71 38 -101 10 -28 -26 -28
-55 -2 -73 20 -14 20 -14 -5 -14 -33 0 -47 -13 -76 -69 -21 -42 -92 -104 -104
-92 -3 3 8 31 25 64 30 59 42 107 19 74 -8 -11 -9 6 -4 60 4 41 4 72 0 68 -3
-3 -10 -47 -15 -98 -8 -90 -9 -92 -74 -193 -68 -104 -126 -177 -142 -177 -5 0
-21 26 -35 58 -19 44 -26 53 -32 39 -4 -10 -3 -16 2 -13 5 3 11 -1 15 -9 3 -8
1 -15 -4 -15 -5 0 -7 -7 -4 -15 4 -8 10 -13 14 -10 5 3 6 -4 3 -15 -3 -11 0
-26 6 -33 8 -10 -2 -27 -42 -72 l-52 -59 -6 30 c-4 16 -7 91 -8 167 -1 133 0
137 18 127 11 -5 23 -10 28 -10 4 1 -4 8 -19 16 -19 10 -28 23 -28 39 0 29 2
30 61 11 76 -24 128 -27 139 -6 5 9 6 20 3 24 -4 4 -10 55 -14 114 l-7 107 2
-105z m3713 49 c15 -13 83 -302 83 -356 0 -8 -21 2 -52 23 l-53 37 63 -63 c40
-41 62 -70 62 -85 0 -13 5 -36 10 -52 9 -23 3 -18 -32 22 -24 27 -84 96 -135
153 -78 88 -96 116 -122 184 -36 92 -38 107 -13 85 10 -9 36 -19 59 -23 40 -6
42 -5 49 21 6 25 10 19 35 -56 15 -46 28 -87 28 -90 1 -3 -13 -3 -30 -1 -28 4
-48 -8 -49 -29 0 -3 24 -5 53 -3 28 1 52 6 51 11 0 4 -8 25 -17 46 -10 21 -25
66 -33 100 -8 34 -18 70 -21 81 -4 16 -1 18 23 12 16 -4 34 -12 41 -17z m-397
-71 c10 -17 16 -36 13 -41 -3 -6 -1 -7 5 -3 7 4 12 3 12 -2 0 -4 38 -52 85
-105 63 -72 77 -92 53 -77 -43 26 -62 27 -48 1 13 -26 13 -31 -5 -31 -8 0 -30
14 -50 31 -32 29 -35 35 -36 93 l-2 61 -7 -50 c-4 -27 -5 -54 -2 -60 12 -23
-37 29 -67 70 -31 44 -32 45 -10 45 22 0 22 0 3 16 -19 15 -19 15 0 9 33 -10
38 17 9 47 l-27 28 27 0 c20 0 33 -9 47 -32z m-3030 -86 c-8 -3 -23 -9 -33
-14 -16 -8 -17 -7 -8 10 8 15 17 19 33 14 16 -4 18 -7 8 -10z m48 -36 c17 -1
32 -4 32 -7 0 -16 -51 -151 -74 -197 l-27 -53 -23 28 c-12 15 -35 49 -50 76
-16 26 -30 47 -33 47 -3 0 -3 -21 0 -46 5 -46 46 -104 73 -104 7 0 16 -4 19
-10 11 -18 -61 -154 -113 -215 -29 -33 -52 -64 -52 -68 0 -5 -5 -5 -11 -2 -7
5 -8 70 -3 214 6 194 14 248 33 236 5 -2 8 3 7 13 -1 21 151 105 174 95 8 -4
30 -7 48 -7z m2674 -38 c17 17 29 15 21 -3 -7 -21 25 -55 52 -55 21 0 59 -51
104 -137 14 -27 19 -29 -161 49 -108 46 -117 52 -100 64 11 7 25 35 32 61 11
45 12 47 26 29 11 -16 17 -17 26 -8z m305 -20 c18 -19 28 -54 48 -172 30 -178
31 -189 8 -184 -25 5 -133 149 -127 170 3 9 -1 20 -7 24 -9 5 -10 2 -5 -12 12
-31 -8 -5 -53 70 -54 92 -54 100 7 93 43 -5 48 -4 49 15 4 44 37 42 80 -4z
m70 -61 c7 -12 116 -77 128 -77 3 0 1 10 -6 21 -11 21 -10 21 27 14 43 -7 53
-14 137 -94 31 -31 57 -63 57 -71 0 -31 -43 -57 -114 -69 -37 -7 -71 -9 -74
-6 -4 3 -1 15 6 25 16 26 15 33 -3 26 -8 -3 -15 -1 -15 4 0 6 -4 10 -10 10 -5
0 -10 -7 -10 -15 0 -8 -5 -15 -12 -15 -7 0 -6 -6 4 -17 19 -23 27 -45 43 -118
7 -33 10 -64 5 -68 -11 -13 -48 9 -97 56 -37 36 -43 47 -43 83 0 24 -11 104
-25 178 -14 74 -25 138 -25 141 0 10 19 5 27 -8z m-3342 -258 c-17 -211 -32
-307 -61 -379 -17 -41 -18 -42 -26 -19 -5 13 -7 76 -3 139 4 64 3 126 -3 139
-15 40 -26 -152 -24 -409 1 -124 -1 -238 -6 -253 l-7 -28 -25 33 c-21 28 -25
48 -31 143 -4 66 -18 152 -34 215 -17 67 -29 144 -32 212 -6 118 -13 99 76
209 54 68 185 208 189 204 2 -2 -4 -94 -13 -206z m-612 29 c7 -26 1 -38 -19
-38 -17 0 -28 24 -20 45 8 22 33 18 39 -7z m1097 -32 c0 -7 -12 -21 -26 -31
-27 -18 -26 -7 4 28 18 21 22 21 22 3z m-1162 -23 c7 -7 19 -13 25 -13 28 -1
204 -318 192 -348 -2 -7 -1 -11 4 -8 5 3 23 -28 41 -70 19 -42 42 -86 52 -99
19 -24 18 -25 -17 -95 -39 -77 -100 -175 -114 -184 -9 -6 -66 120 -95 209 -8
28 -29 115 -45 195 -36 176 -78 377 -86 406 -3 16 0 21 13 20 9 0 23 -7 30
-13z m187 -123 c-4 -6 -2 -10 2 -10 8 0 93 -108 117 -148 9 -15 35 -117 36
-140 0 -8 -18 -1 -45 18 -38 26 -53 48 -92 128 -26 53 -47 103 -46 109 0 7 -2
11 -6 9 -3 -2 -28 29 -55 70 -33 50 -46 79 -41 91 5 15 18 6 71 -50 36 -37 62
-72 59 -77z m4075 -5 c0 -58 -4 -105 -8 -105 -21 0 -45 44 -58 102 -21 101
-23 97 54 107 9 1 12 -26 12 -104z m-4323 63 c-3 -7 -5 -2 -5 12 0 14 2 19 5
13 2 -7 2 -19 0 -25z m4448 -52 c20 -66 19 -68 -13 -99 -21 -20 -34 -25 -52
-20 -23 6 -23 4 8 -21 25 -22 32 -36 32 -63 0 -19 -5 -43 -11 -54 -10 -19 -12
-18 -39 17 -18 24 -26 46 -23 59 3 11 4 62 4 114 -1 51 1 106 4 122 l6 28 35
-16 c28 -14 37 -26 49 -67z m-3572 29 c-3 -9 -8 -14 -10 -11 -3 3 -2 9 2 15 9
16 15 13 8 -4z m3611 2 c17 -13 17 -16 3 -43 -11 -21 -17 -25 -21 -14 -3 8
-10 27 -15 43 -12 31 2 37 33 14z m-3404 -4 c0 -5 -4 -14 -9 -21 -6 -10 -10
-9 -14 7 -3 14 0 21 9 21 8 0 14 -3 14 -7z m3455 -62 c-21 -87 -73 -147 -76
-88 -1 18 -3 16 -11 -10 -10 -29 -12 -31 -23 -16 -10 14 -8 20 14 39 15 12 37
45 51 73 19 41 26 49 37 39 9 -7 12 -21 8 -37z m88 -79 c36 -48 96 -137 133
-197 37 -61 77 -124 90 -141 13 -16 30 -46 39 -66 13 -34 13 -39 -3 -67 -12
-22 -22 -29 -34 -25 -10 3 -18 0 -18 -6 0 -6 -12 -2 -27 10 -16 11 -79 57
-141 102 -140 100 -237 187 -223 201 6 6 7 17 2 26 -4 9 -4 35 1 59 7 31 16
46 38 57 21 11 33 29 45 67 18 55 24 68 30 68 1 0 32 -39 68 -88z m-1921 -349
c2 -230 1 -431 -2 -448 l-6 -30 -119 -16 c-66 -10 -121 -16 -122 -15 -1 1 2
18 8 38 11 41 14 43 114 58 109 17 106 10 96 245 l-8 200 -1 -196 c-2 -148 -5
-199 -15 -207 -7 -6 -47 -16 -88 -23 -96 -15 -108 -21 -115 -70 -4 -21 -11
-42 -16 -46 -6 -3 -162 -23 -347 -44 -185 -22 -357 -43 -383 -48 -26 -4 -50
-6 -53 -3 -3 3 -5 184 -5 402 0 306 3 400 13 408 11 9 153 42 183 42 9 0 14
-11 14 -29 0 -23 -5 -30 -27 -35 -16 -4 -52 -14 -80 -22 l-53 -15 2 -347 3
-347 2 335 c2 184 7 338 12 343 5 5 42 17 83 26 l73 17 3 57 c2 31 6 57 10 57
4 0 108 19 232 41 227 42 512 86 562 88 l28 1 2 -417z m126 343 l102 -69 0
-288 0 -287 -61 14 c-34 8 -65 17 -70 20 -5 3 -9 -20 -9 -51 0 -38 4 -54 11
-49 6 3 9 24 7 45 -3 31 -1 38 12 34 8 -2 36 -9 61 -15 42 -11 46 -15 57 -54
12 -45 30 -57 125 -86 35 -11 41 -10 63 11 20 18 24 32 24 78 0 81 6 86 68 60
l52 -22 0 -127 c0 -125 -1 -130 -35 -201 -19 -41 -42 -113 -51 -160 l-18 -86
28 -77 c15 -43 25 -80 22 -84 -3 -3 -20 26 -38 64 -29 61 -32 79 -33 159 0 81
3 97 32 158 27 56 30 69 18 74 -12 4 -15 28 -17 107 l-1 101 -7 -93 c-4 -50
-9 -95 -13 -98 -3 -3 -72 15 -154 40 -81 25 -177 53 -213 62 l-65 16 -4 431
c-1 238 -5 436 -8 441 -9 14 6 5 115 -68z m1388 -58 c28 -32 28 -32 2 -9 l-28
24 0 -37 c0 -36 0 -37 33 -31 32 6 35 4 105 -88 74 -98 154 -178 246 -247 46
-35 52 -43 48 -70 -4 -26 -7 -28 -26 -19 -20 10 -20 9 -3 -5 16 -12 18 -22 12
-57 -4 -24 -13 -59 -19 -78 l-12 -34 -18 44 c-10 24 -27 54 -38 66 -14 15 -23
45 -29 99 -6 42 -8 83 -5 89 2 7 -19 35 -47 63 -39 38 -74 60 -139 87 -48 20
-92 42 -98 50 -10 13 -28 185 -18 185 2 0 17 -15 34 -32z m-1171 -85 l80 -52
-3 -115 -3 -115 -41 15 c-70 24 -91 19 -114 -26 l-19 -40 0 199 c0 131 3 197
10 193 6 -4 46 -30 90 -59z m-2535 -203 c0 -31 -4 -50 -9 -45 -19 22 -33 85
-37 175 l-4 95 25 -85 c13 -47 25 -110 25 -140z m487 168 c-3 -8 -6 -5 -6 6
-1 11 2 17 5 13 3 -3 4 -12 1 -19z m-7 -50 c0 -5 -5 -6 -11 -2 -8 4 -9 -1 -4
-15 5 -16 -1 -32 -20 -57 -15 -19 -29 -34 -31 -32 -9 10 21 78 35 79 9 0 11 3
5 5 -17 7 -5 44 12 37 8 -3 14 -9 14 -15z m2206 -13 c30 -19 57 -41 59 -48 2
-6 6 -87 8 -180 5 -188 11 -174 -69 -141 -30 13 -33 18 -39 71 -4 32 -12 69
-19 83 -11 24 -11 250 0 250 3 0 30 -16 60 -35z m-2804 -41 c-8 -15 -10 -15
-15 0 -4 10 -3 15 3 11 6 -3 11 6 11 22 1 23 2 24 6 6 2 -12 0 -30 -5 -39z
m3881 4 c-2 -4 2 -5 10 -2 8 3 18 0 22 -6 7 -12 -36 -130 -48 -130 -5 0 -6 -3
-4 -7 2 -5 -5 -16 -15 -26 -19 -18 -20 -17 -15 55 3 40 8 87 11 103 6 26 4 24
-16 -12 l-23 -43 0 58 0 57 41 -20 c23 -11 39 -23 37 -27z m92 -30 c14 -6 25
-14 26 -17 0 -3 2 -35 5 -71 3 -36 11 -75 19 -86 17 -27 7 -40 -12 -16 -14 16
-14 16 -9 0 3 -11 0 -18 -8 -18 -12 0 -28 -24 -40 -62 -3 -12 0 -18 10 -18 13
0 15 -6 9 -27 -4 -16 -8 -38 -9 -49 -6 -50 -56 -143 -56 -105 0 6 -18 31 -40
56 -22 25 -42 56 -45 68 -9 35 11 107 55 198 22 46 40 89 40 96 0 12 21 63 26
63 2 0 15 -5 29 -12z m-382 -118 c37 -11 37 -12 36 -63 -1 -29 -4 -79 -8 -112
l-6 -60 -36 45 c-47 58 -67 98 -90 179 -11 36 -19 67 -19 69 0 2 19 -8 43 -21
23 -14 59 -30 80 -37z m-3519 -43 c-2 -7 -19 -22 -37 -34 -17 -13 -27 -23 -21
-23 6 0 23 10 38 21 15 12 29 20 31 18 2 -2 15 -31 30 -64 24 -54 26 -74 31
-225 l5 -165 -30 85 c-17 49 -29 74 -30 60 0 -14 8 -50 19 -80 10 -30 16 -58
14 -62 -3 -5 -1 -8 4 -8 16 0 23 -30 16 -67 -6 -33 -7 -33 -26 -16 -11 10 -45
58 -75 108 -31 49 -71 107 -90 128 -18 21 -41 54 -50 73 l-17 34 75 153 74
152 22 -38 c12 -21 20 -43 17 -50z m1146 69 c0 -11 -10 -14 -37 -11 l-38 4 38
-11 39 -12 -2 -105 c-1 -59 -2 -179 -1 -268 1 -179 5 -192 64 -194 18 -1 -17
-9 -78 -20 -60 -10 -114 -20 -120 -23 -17 -6 -175 -244 -175 -263 0 -9 12 -29
27 -45 l26 -28 -32 -102 c-18 -57 -42 -138 -53 -180 -11 -43 -24 -76 -28 -73
-4 3 -8 -5 -9 -18 -2 -83 -10 -140 -25 -192 -21 -69 -147 -368 -153 -362 -2 2
1 17 8 33 6 16 15 92 20 169 5 77 13 151 19 165 8 20 6 33 -10 65 -15 28 -20
58 -20 110 1 110 10 133 94 233 97 115 109 147 107 282 l-2 105 33 39 c18 21
58 80 88 129 35 58 71 103 98 124 33 25 39 33 24 33 -25 0 -81 -63 -133 -151
-22 -37 -55 -84 -74 -105 l-34 -39 5 50 c4 28 26 110 51 183 25 73 43 135 40
138 -2 2 -21 -44 -42 -103 -21 -59 -41 -101 -43 -94 -3 8 1 54 8 102 7 49 11
92 8 95 -3 2 -8 -23 -12 -56 -4 -33 -14 -79 -21 -101 -8 -23 -12 -52 -9 -65 8
-33 -48 -170 -121 -298 -16 -27 -23 -46 -17 -42 14 9 15 -3 2 -24 -9 -13 -10
-13 -10 0 -1 8 -12 -7 -25 -35 l-24 -50 2 118 c2 95 5 121 18 130 13 10 15 30
11 129 -3 91 -1 122 9 135 11 13 11 15 1 9 -10 -6 -12 6 -10 55 l3 63 100 37
c73 28 101 35 107 26 5 -8 8 -7 8 5 0 12 32 27 123 58 67 22 133 48 147 56 17
10 19 13 5 9 -11 -4 -56 -19 -100 -34 -144 -50 -146 -49 -59 23 49 40 83 61
89 55 5 -5 14 -9 20 -9 5 0 2 5 -8 11 -17 10 -17 12 -2 37 l16 27 -25 -28
c-14 -15 -66 -60 -115 -100 -93 -75 -171 -112 -296 -141 -33 -8 -69 -17 -80
-21 -11 -4 6 9 39 29 93 58 184 144 219 208 17 31 40 61 51 66 95 45 147 60
210 61 27 1 52 3 54 6 9 8 12 6 12 -9z m2150 -26 c6 -11 7 -20 3 -20 -5 0 -14
9 -21 20 -7 11 -8 20 -2 20 5 0 14 -9 20 -20z m-705 -10 c58 -22 70 -44 76
-148 7 -111 2 -151 -19 -159 -15 -6 -119 23 -139 39 -9 7 -13 43 -13 115 0
148 21 181 95 153z m725 -36 c0 -8 -4 -12 -10 -9 -5 3 -10 10 -10 16 0 5 5 9
10 9 6 0 10 -7 10 -16z m59 -74 c32 -77 37 -114 21 -140 -8 -13 -10 -13 -14 0
-9 26 -56 214 -56 224 0 22 20 -12 49 -84z m1067 26 c-6 -23 -9 -25 -26 -16
-20 10 -20 12 -3 35 21 28 38 17 29 -19z m-1220 -11 c26 -35 55 -44 83 -26 7
5 10 14 7 20 -4 6 -3 11 2 11 14 0 50 -154 57 -250 l7 -85 -32 49 c-17 27 -38
66 -47 88 -8 21 -18 37 -21 34 -2 -3 12 -40 32 -82 20 -42 34 -79 32 -81 -5
-6 -58 71 -85 125 -12 23 -34 77 -50 120 -15 42 -31 85 -36 95 -13 31 22 19
51 -18z m999 -13 c21 -25 26 -39 21 -63 -10 -52 -54 -133 -92 -169 l-36 -35 5
45 c4 25 13 70 22 100 8 30 18 81 22 112 6 64 12 65 58 10z m-1010 -112 c6
-21 -2 -16 -45 25 -48 47 -86 96 -62 81 6 -4 19 4 29 17 l18 24 26 -61 c14
-34 30 -73 34 -86z m-2835 -54 c0 -108 -1 -116 -32 -177 -29 -56 -145 -196
-154 -186 -2 2 1 53 7 113 11 106 13 111 64 194 29 47 62 104 74 128 12 23 26
42 31 42 6 0 10 -46 10 -114z m3580 93 c0 -7 16 -34 36 -61 l35 -50 5 -176 c3
-97 10 -190 14 -205 6 -17 5 -50 -1 -84 -7 -39 -7 -63 0 -79 6 -13 6 -26 2
-29 -12 -7 -34 22 -26 35 10 17 -14 155 -40 220 -13 33 -42 88 -64 121 -63 94
-62 110 14 302 8 19 25 23 25 6z m390 -80 c0 -5 -10 -9 -22 -10 -23 -1 -23 -1
1 -8 22 -6 22 -7 -12 -23 -29 -14 -38 -26 -47 -60 -6 -24 -16 -60 -21 -80 -5
-21 -14 -38 -19 -38 -6 0 -9 -3 -8 -7 0 -5 -1 -15 -4 -23 -3 -8 -11 -32 -17
-52 -7 -21 -30 -75 -51 -120 l-39 -83 0 55 c-1 77 17 228 30 253 7 11 32 45
56 75 24 30 59 84 76 119 l32 64 22 -26 c13 -14 23 -30 23 -36z m247 -21 c-3
-7 -5 -2 -5 12 0 14 2 19 5 13 2 -7 2 -19 0 -25z m-207 -147 c12 -161 8 -176
-59 -218 -31 -19 -86 -56 -124 -81 -70 -47 -91 -50 -64 -8 9 14 35 71 58 128
22 57 46 112 54 124 7 11 17 43 21 70 10 70 15 80 54 106 35 24 35 24 44 4 4
-12 12 -68 16 -125z m-4365 -196 l37 -50 -4 -117 c-3 -65 -3 -118 -1 -118 2 0
25 14 51 31 47 30 35 18 -30 -33 -33 -25 -35 -30 -47 -130 -17 -135 -41 -299
-47 -318 -4 -10 -16 -1 -45 30 -53 61 -65 85 -72 150 -4 31 -14 77 -23 104
-14 41 -15 52 -4 70 12 19 12 20 -3 7 -21 -17 -21 -34 -2 -108 8 -31 15 -75
15 -96 0 -29 13 -63 49 -126 27 -47 52 -96 56 -108 10 -37 -113 -715 -171
-940 l-27 -105 -31 6 c-16 4 -31 8 -33 9 -2 2 -6 111 -9 243 -7 291 6 526 34
604 12 34 22 49 25 40 17 -44 27 -101 27 -150 1 -44 3 -51 11 -36 14 22 5 94
-21 177 l-18 60 25 119 24 118 -30 123 c-17 67 -33 124 -35 126 -2 2 9 30 24
61 15 31 35 78 45 105 10 26 21 47 25 47 11 0 -1 43 -14 52 -6 4 -19 8 -28 8
-15 0 -18 -9 -18 -44 0 -43 -34 -111 -55 -111 -6 0 -11 36 -13 80 -3 89 20
211 62 335 15 41 31 102 37 135 7 33 13 66 16 74 2 8 44 -50 93 -130 49 -79
105 -166 125 -194z m4562 283 c-3 -7 -5 -2 -5 12 0 14 2 19 5 13 2 -7 2 -19 0
-25z m-799 -19 c41 -45 78 -109 63 -109 -5 0 -19 -16 -32 -36 l-22 -36 -25 25
c-28 28 -42 88 -34 152 2 25 6 45 8 45 2 0 21 -19 42 -41z m-3176 -16 c-2 -21
-4 -42 -5 -46 -1 -4 -15 6 -31 22 l-29 31 34 14 c19 9 34 15 34 16 1 0 -1 -17
-3 -37z m3965 -25 c-3 -7 -5 -2 -5 12 0 14 2 19 5 13 2 -7 2 -19 0 -25z
m-4050 9 c-3 -8 3 -38 14 -68 10 -30 18 -70 19 -91 0 -20 4 -38 9 -40 5 -1 6
-21 2 -43 l-6 -40 -23 55 c-13 30 -38 77 -57 105 -46 68 -47 84 -6 112 38 26
56 29 48 10z m4040 -49 c-3 -8 -6 -5 -6 6 -1 11 2 17 5 13 3 -3 4 -12 1 -19z
m-1352 -27 c8 -16 36 -78 61 -138 25 -59 51 -114 56 -120 13 -17 12 -17 -55 7
-31 11 -70 20 -86 20 -27 0 -32 -5 -51 -57 -12 -31 -24 -61 -27 -66 -3 -5 -21
18 -40 52 -22 40 -40 61 -52 61 -16 0 -171 -29 -238 -45 l-22 -5 23 67 c13 38
37 97 53 133 l29 65 145 25 c197 35 186 35 204 1z m859 -43 c-3 -40 -8 -75
-10 -77 -2 -2 -4 30 -4 72 0 48 4 77 11 77 7 0 8 -24 3 -72z m-1788 -145 c-7
-212 -34 -700 -42 -771 -5 -42 -27 -62 -68 -62 -20 0 -35 44 -42 120 -4 38
-11 67 -15 64 -12 -7 -11 -121 0 -161 10 -33 1 -43 -39 -43 -15 0 -19 12 -24
88 -4 48 -14 164 -21 257 -8 94 -16 202 -18 240 l-2 70 67 84 c65 81 88 133
88 196 0 29 43 79 63 72 8 -2 14 -48 17 -153 l6 -149 2 158 c2 150 1 157 -18
157 -58 0 -76 -26 -94 -131 -4 -23 -31 -69 -72 -124 -37 -48 -69 -99 -73 -112
-4 -14 1 -129 10 -257 9 -127 20 -276 24 -332 l6 -100 -248 -20 c-230 -18
-248 -18 -255 -3 -3 9 -17 95 -29 190 -12 96 -26 180 -32 187 -13 16 -69 15
-92 -2 -19 -13 -18 -18 13 -191 18 -98 31 -179 29 -181 -2 -2 -13 6 -25 19
-16 17 -34 76 -67 217 -78 333 -153 715 -143 725 5 5 342 55 372 55 23 0 24
-3 21 -37 -4 -32 -3 -34 5 -13 6 18 7 8 3 -36 -6 -71 11 -99 56 -90 14 3 49 8
76 11 108 13 105 11 105 64 0 94 11 141 34 146 47 12 305 43 365 44 l64 1 -7
-197z m154 175 c47 -6 87 -13 89 -14 2 -2 -15 -24 -38 -49 -50 -54 -69 -96
-82 -178 -12 -70 4 -202 30 -262 18 -41 75 -98 118 -118 23 -10 24 -13 17 -76
-8 -80 -35 -192 -70 -288 l-26 -71 -96 34 c-52 18 -99 37 -103 41 -4 5 -1 109
6 233 7 124 17 345 21 493 8 308 -9 275 134 255z m2117 -10 c-3 -8 -6 -5 -6 6
-1 11 2 17 5 13 3 -3 4 -12 1 -19z m-625 -150 c37 -109 42 -225 14 -293 -13
-31 -16 -58 -12 -120 l6 -80 -13 55 c-7 30 -21 70 -31 89 -24 45 -35 83 -46
155 -8 54 -7 63 21 117 37 75 37 88 -1 24 -16 -27 -30 -48 -30 -45 -1 3 -7 39
-16 80 -20 101 -19 104 12 146 l28 36 18 -36 c10 -19 32 -77 50 -128z m-3492
105 c17 -26 46 -96 65 -155 36 -112 42 -173 26 -298 l-7 -55 -24 55 c-46 106
-99 199 -145 255 -44 54 -49 66 -46 93 2 15 89 152 97 152 2 0 18 -21 34 -47z
m1380 -47 l0 -64 -47 -11 c-27 -5 -72 -13 -100 -17 l-53 -7 -2 47 c-1 25 -2
56 -2 69 -1 20 6 23 69 33 39 7 85 12 103 13 l32 1 0 -64z m860 45 c0 -5 -6
-11 -14 -14 -8 -3 -27 -32 -42 -64 -26 -51 -29 -69 -29 -153 0 -84 3 -102 28
-152 16 -32 32 -58 35 -58 4 0 18 -10 32 -21 l25 -21 -30 7 c-137 30 -182 338
-68 458 26 26 63 37 63 18z m1917 -28 c-3 -10 -5 -4 -5 12 0 17 2 24 5 18 2
-7 2 -21 0 -30z m-3433 -74 c5 -29 0 -60 -15 -107 -12 -37 -23 -72 -24 -78 -2
-6 -34 -14 -72 -18 -37 -3 -95 -9 -127 -12 l-60 -6 19 28 c10 16 47 70 82 121
62 90 64 92 111 98 26 4 52 8 57 10 20 7 23 4 29 -36z m-364 -13 c0 -35 -5
-47 -24 -60 -24 -15 -24 -15 -16 12 15 48 32 92 36 92 2 0 4 -20 4 -44z m3532
-218 l-59 -89 -27 107 c-16 58 -24 110 -20 114 5 5 43 31 84 59 l75 50 3 -76
3 -76 -59 -89z m-265 200 c-3 -8 -6 -5 -6 6 -1 11 2 17 5 13 3 -3 4 -12 1 -19z
m-1430 -90 c-2 -18 -4 -4 -4 32 0 36 2 50 4 33 2 -18 2 -48 0 -65z m1940 50
c-3 -8 -6 -5 -6 6 -1 11 2 17 5 13 3 -3 4 -12 1 -19z m-3786 -69 c-6 -18 -6
-27 -1 -24 6 4 10 -12 10 -38 0 -33 -7 -54 -30 -86 -17 -23 -35 -39 -42 -35
-15 10 -2 93 20 117 9 11 11 17 5 13 -10 -5 -13 3 -13 29 0 27 7 42 28 60 32
27 41 14 23 -36z m2263 10 c14 -28 26 -54 26 -59 0 -4 -53 -20 -117 -35 -65
-15 -123 -30 -130 -32 -7 -3 -25 21 -42 58 -17 35 -29 64 -28 64 4 2 242 53
253 54 6 1 23 -22 38 -50z m153 14 c27 -18 48 -60 121 -235 l40 -96 -35 -41
c-19 -23 -38 -39 -43 -36 -11 7 -45 80 -102 220 l-49 120 16 43 c9 23 19 42
21 42 3 0 17 -8 31 -17z m1023 -98 c19 -80 22 -114 17 -217 -3 -75 -13 -152
-25 -198 -18 -68 -25 -80 -76 -127 -32 -29 -60 -53 -65 -53 -4 0 -13 28 -19
62 l-12 62 33 35 c17 19 28 32 22 29 -14 -8 -17 162 -3 247 15 101 78 255 104
255 1 0 12 -43 24 -95z m-3514 15 c-8 -17 -10 -27 -4 -24 7 5 9 2 5 -8 -3 -9
-11 -53 -18 -97 -12 -85 -28 -115 -66 -126 -20 -6 -23 -3 -23 23 0 16 19 67
42 113 23 46 41 94 39 106 -1 13 6 37 16 54 16 27 18 28 21 10 2 -12 -3 -35
-12 -51z m3394 -62 c-10 -35 -21 -76 -25 -91 -8 -41 -30 -28 -28 16 2 38 24
89 51 120 8 9 16 17 17 17 2 0 -5 -28 -15 -62z m-990 32 c0 -17 131 -364 142
-377 10 -13 -28 -34 -125 -69 l-38 -13 -20 47 c-89 209 -172 372 -184 360 -3
-3 8 -29 25 -59 27 -50 160 -344 160 -353 0 -11 -92 -38 -99 -30 -27 28 -180
418 -169 429 5 5 277 74 296 74 6 1 12 -4 12 -9z m-1962 -41 c32 -55 19 -63
-24 -14 -18 22 -31 32 -28 23 3 -10 10 -18 15 -18 5 0 9 -5 9 -11 0 -5 -5 -7
-12 -3 -7 4 -8 3 -4 -5 4 -6 11 -9 15 -7 4 3 14 -5 21 -18 11 -21 7 -43 -30
-167 -45 -153 -98 -309 -109 -322 -8 -8 -197 30 -221 45 -10 5 27 8 99 6 l114
-3 43 217 c23 120 45 226 49 238 6 18 2 20 -37 19 -24 -1 -54 -5 -68 -10 -17
-5 -4 -6 37 -3 l62 6 -16 -59 c-8 -32 -32 -132 -52 -223 l-37 -165 -95 4 c-52
2 -95 4 -96 5 -3 2 124 416 130 422 8 9 -13 64 -26 66 -23 3 99 15 168 16 l70
2 23 -41z m3217 -16 c-3 -32 -15 -73 -26 -91 -11 -19 -21 -43 -23 -55 -1 -11
-9 -23 -16 -25 -21 -7 -4 73 33 155 17 40 34 72 36 73 2 0 0 -26 -4 -57z
m-1182 -70 c25 -61 64 -148 86 -192 47 -92 52 -116 16 -81 -16 16 -48 89 -90
205 -36 99 -65 182 -65 184 0 12 11 -13 53 -116z m1371 100 c-3 -10 -14 -29
-25 -43 -19 -24 -19 -24 1 18 21 44 31 54 24 25z m-4909 -234 l39 -102 -12
-83 c-18 -123 -21 -125 -55 -48 -38 88 -55 184 -40 225 11 27 10 29 -4 17 -14
-11 -16 -10 -10 12 3 14 9 45 13 69 9 57 17 46 69 -90z m925 58 c0 -2 -12 -14
-27 -28 l-28 -24 24 28 c23 25 31 32 31 24z m4017 -54 c-3 -10 -5 -4 -5 12 0
17 2 24 5 18 2 -7 2 -21 0 -30z m-523 11 c10 -26 7 -124 -5 -145 -5 -11 -14
-17 -20 -14 -10 7 -13 158 -2 168 11 11 20 8 27 -9z m-684 -64 c-5 -8 -20 -26
-35 -40 -20 -19 -28 -22 -34 -11 -6 9 2 24 23 45 18 17 20 21 6 9 -22 -20 -50
-30 -50 -20 0 2 17 22 37 45 l37 42 12 -28 c6 -15 8 -34 4 -42z m-2224 -19 c2
-2 11 2 21 10 9 8 14 9 11 4 -8 -13 21 -156 34 -172 17 -21 0 -15 -63 19 -33
18 -59 39 -59 48 0 8 8 50 17 93 l18 78 9 -38 c5 -21 10 -40 12 -42z m1485 57
c30 -8 45 -8 65 1 l26 11 -7 -52 c-4 -29 -13 -82 -20 -118 -7 -36 -19 -111
-26 -167 -6 -56 -15 -107 -20 -114 -5 -10 -26 -7 -91 10 l-84 23 37 111 c21
62 43 146 50 187 16 107 19 120 26 120 3 0 23 -5 44 -12z m1723 -260 c-4 -145
-8 -448 -8 -675 -1 -226 -5 -415 -9 -419 -21 -21 -237 -24 -237 -3 0 4 21 9
48 11 l47 4 -51 8 -51 8 -7 72 c-11 119 -25 412 -28 586 l-2 165 73 105 c40
58 85 123 101 145 18 25 37 73 50 125 15 60 29 92 46 108 14 12 28 22 31 22 3
0 2 -118 -3 -262z m213 170 c-2 -13 -4 -5 -4 17 -1 22 1 32 4 23 2 -10 2 -28
0 -40z m-4007 -81 c0 -13 -29 12 -42 37 -10 19 -8 18 16 -3 14 -14 26 -29 26
-34z m3991 -152 c-10 -39 -11 -38 -6 15 3 30 6 87 7 125 l2 70 3 -85 c2 -47
-1 -103 -6 -125z m-3321 59 c0 -17 -61 -134 -70 -134 -10 0 -111 49 -138 68
-10 7 -9 16 3 45 8 20 22 53 30 72 l14 36 81 -41 c44 -23 80 -43 80 -46z
m2204 26 c19 -22 39 -52 42 -66 6 -23 -6 -182 -22 -295 -3 -21 -1 -40 5 -44 6
-3 11 -29 11 -58 l0 -52 -26 27 -26 26 16 188 c19 220 19 214 8 214 -5 0 -12
-42 -15 -94 -4 -52 -12 -145 -19 -206 l-12 -112 33 -30 34 -30 -6 -91 c-3 -49
-11 -95 -16 -100 -8 -8 -22 0 -49 25 -49 47 -126 105 -172 128 -36 18 -39 18
-151 -1 -63 -11 -129 -24 -147 -30 -18 -6 -35 -9 -37 -7 -4 4 44 346 65 471
11 64 13 67 40 67 15 0 33 -7 40 -15 7 -8 19 -15 28 -15 11 0 13 -8 9 -37 -3
-21 -8 -72 -11 -113 -4 -63 -2 -55 15 50 26 162 29 167 81 180 24 6 79 21 123
34 111 33 117 32 159 -14z m-2121 -88 c13 -58 24 -85 43 -103 l26 -24 -24 -5
c-22 -6 -23 -10 -26 -110 -1 -58 1 -136 5 -175 l8 -70 63 -5 63 -5 -39 -55
c-22 -30 -65 -100 -96 -156 -44 -80 -56 -110 -56 -145 0 -25 -11 -70 -26 -106
l-27 -63 -139 0 -138 0 0 24 c0 25 -35 60 -71 71 -18 6 -18 8 -2 32 16 25 16
26 -6 44 l-23 18 23 41 c23 40 23 40 36 18 7 -13 12 -42 13 -66 0 -55 15 -82
44 -82 48 0 64 86 37 199 -11 47 -18 87 -16 90 3 2 15 -1 28 -6 13 -6 29 -8
35 -4 6 3 40 74 75 156 35 83 79 179 96 213 30 60 31 65 16 82 -14 15 -14 21
-4 38 10 16 10 29 2 57 -10 32 -8 44 19 105 17 39 34 70 38 70 4 0 14 -35 23
-78z m-380 -52 c5 -4 -2 -18 -15 -30 -12 -13 -17 -20 -10 -16 6 4 12 5 12 3 0
-16 -37 -102 -85 -198 -30 -62 -53 -114 -50 -117 3 -3 7 -3 9 -1 9 9 124 246
141 292 10 26 22 50 26 53 5 2 64 -25 133 -62 l124 -66 -30 -67 c-17 -36 -57
-129 -89 -205 -33 -77 -62 -142 -64 -145 -3 -2 -18 7 -33 21 -34 33 -199 137
-228 144 -21 5 -146 -10 -187 -22 -16 -5 -15 0 7 45 17 33 34 52 49 55 12 3
54 10 92 17 39 7 65 14 58 16 -6 2 -45 -2 -87 -10 -42 -8 -76 -12 -76 -8 0 7
134 324 144 340 6 10 143 -23 159 -39z m1271 -26 c9 -3 14 -9 12 -13 -2 -3
-11 -60 -20 -126 -9 -66 -21 -143 -27 -171 l-10 -52 -182 -6 c-471 -15 -607
-17 -607 -9 0 5 21 34 46 64 26 30 58 72 72 94 14 22 37 57 50 78 14 20 23 40
20 43 -3 3 -31 -32 -61 -78 -31 -46 -72 -101 -91 -123 -34 -39 -35 -39 -37
-15 0 14 -4 71 -8 127 l-6 102 50 5 c28 3 174 13 325 22 209 13 297 22 365 39
50 13 91 23 92 24 1 1 8 -2 17 -5z m397 -129 c13 -8 8 -37 -22 -138 -19 -66
-21 -68 -35 -48 -16 23 -175 77 -199 67 -8 -3 -31 -30 -51 -61 -20 -30 -41
-55 -47 -55 -5 0 -3 10 5 23 9 12 30 47 48 77 19 30 34 56 36 58 1 2 34 -7 73
-19 100 -30 100 -17 1 16 -45 15 -82 25 -84 24 -1 -2 -13 -22 -26 -44 -57 -99
-83 -136 -91 -128 -5 5 0 80 11 169 11 87 20 162 20 165 0 6 341 -94 361 -106z
m1956 3 c-3 -8 -6 -5 -6 6 -1 11 2 17 5 13 3 -3 4 -12 1 -19z m-550 -135 c-3
-10 -5 -2 -5 17 0 19 2 27 5 18 2 -10 2 -26 0 -35z m-10 -110 c-2 -16 -4 -3
-4 27 0 30 2 43 4 28 2 -16 2 -40 0 -55z m-1498 21 c14 -18 21 -41 21 -71 0
-30 11 -65 36 -116 l37 -72 -12 -78 c-19 -123 -23 -128 -52 -71 -13 26 -30 49
-37 52 -7 2 3 -25 21 -60 l34 -63 -16 -52 c-26 -82 -17 -87 -124 77 l-62 95
-52 3 c-29 2 -92 -1 -140 -7 -49 -5 -89 -8 -90 -7 -2 1 19 65 46 142 l49 139
43 7 c24 4 68 7 96 6 43 -1 58 3 80 23 23 21 25 22 19 4 -4 -11 -20 -68 -36
-127 -15 -59 -31 -112 -35 -117 -3 -7 -45 -11 -100 -11 -54 0 -97 -4 -100 -10
-9 -14 207 -1 216 13 4 5 19 57 34 116 39 149 67 210 97 211 4 0 16 -12 27
-26z m1486 -151 c-4 -41 -9 -72 -11 -70 -3 2 -2 42 2 88 4 46 9 78 12 71 2 -8
1 -47 -3 -89z m-3230 45 c-13 -45 -75 -164 -102 -195 -15 -18 -41 -35 -57 -39
-28 -7 -29 -6 -22 21 14 56 41 100 63 103 17 3 20 -1 16 -17 -8 -30 10 -26 35
9 12 16 22 31 22 32 0 2 -18 2 -41 0 l-40 -4 16 38 c9 22 19 44 22 51 5 14 26
20 66 22 25 1 28 -2 22 -21z m813 -6 c12 -8 -27 -94 -103 -225 l-28 -49 -56 6
c-62 6 -44 -7 26 -18 l41 -7 55 90 54 91 37 -55 36 -55 -20 -41 c-26 -51 -21
-74 5 -25 11 20 22 36 25 36 3 0 17 -15 31 -33 l27 -33 -38 -63 c-61 -101 -62
-101 -101 -45 -19 27 -46 69 -61 94 -33 53 -37 39 -7 -20 29 -56 18 -61 -14
-7 -24 41 -29 44 -94 57 -37 8 -71 13 -76 12 -14 -4 101 199 123 218 3 3 16
22 29 43 20 32 28 37 59 37 20 0 43 -4 50 -8z m1580 -74 l-3 -83 -52 -3 -53
-3 0 68 c0 90 9 101 78 102 l33 1 -3 -82z m-193 56 c9 -9 13 -19 10 -22 -3 -3
-15 4 -27 16 -13 12 -17 22 -11 22 6 0 19 -7 28 -16z m-2066 -13 c40 -21 52
-41 71 -128 11 -49 8 -73 -9 -73 -11 0 -45 71 -46 97 -1 21 -44 77 -52 69 -3
-2 1 -22 6 -44 12 -44 6 -72 -15 -72 -20 0 -34 33 -34 82 0 91 13 102 79 69z
m2341 -64 c14 -16 49 -37 80 -47 54 -18 55 -19 60 -64 3 -25 2 -46 -2 -46 -5
0 -26 11 -47 24 -38 24 -152 175 -150 199 0 7 8 1 17 -13 9 -14 28 -37 42 -53z
m-1257 26 c3 -10 8 -40 12 -68 3 -27 9 -60 12 -72 5 -23 4 -23 -100 -23 -91 0
-105 2 -110 18 -2 9 -14 50 -25 90 l-21 72 114 0 c100 0 114 -2 118 -17z m913
-58 c-15 -25 -25 -45 -22 -45 3 0 17 20 32 45 44 75 94 54 55 -23 -44 -87 -92
-122 -120 -88 -10 11 -5 28 20 78 34 69 49 91 57 84 2 -3 -8 -26 -22 -51z
m-2096 14 c0 -17 5 -40 11 -51 6 -11 7 -18 1 -15 -8 6 -38 -68 -34 -85 3 -11
-5 -10 -38 7 -17 9 -30 22 -30 30 0 18 38 116 52 132 19 24 38 15 38 -18z
m2473 -103 c-19 -11 -29 1 -37 44 l-6 35 29 -35 c24 -29 27 -36 14 -44z m704
42 c-3 -7 -5 -2 -5 12 0 14 2 19 5 13 2 -7 2 -19 0 -25z m-4040 -20 c-3 -7 -5
-2 -5 12 0 14 2 19 5 13 2 -7 2 -19 0 -25z m3223 -34 l0 -45 -47 3 c-44 3 -48
5 -51 31 -6 48 3 57 53 57 l45 0 0 -46z m-2316 -2 c-4 -12 -10 -22 -15 -22
-11 0 -12 44 -2 54 12 11 23 -9 17 -32z m2180 -8 c9 -70 7 -91 -8 -97 -12 -5
-14 4 -11 46 4 38 2 45 -4 27 -5 -14 -9 -36 -10 -50 -1 -14 -10 -31 -21 -38
-19 -11 -20 -10 -22 25 0 21 -1 43 -1 49 0 13 55 84 64 84 4 0 9 -21 13 -46z
m-3114 -114 c-13 -72 -25 -128 -28 -126 -2 3 6 64 18 136 13 72 25 128 28 126
2 -3 -6 -64 -18 -136z m3395 96 c17 -12 18 -18 7 -52 -6 -22 -16 -63 -23 -91
-8 -39 -16 -53 -28 -53 -34 0 -40 18 -25 78 7 32 13 68 14 83 0 23 16 49 30
49 3 0 15 -6 25 -14z m-2673 -73 c-2 -43 -7 -82 -12 -86 -9 -10 -24 138 -15
153 3 5 12 10 18 10 9 0 11 -22 9 -77z m368 58 c0 -29 -18 -71 -30 -71 -15 0
-12 77 3 83 22 9 27 7 27 -12z m1040 -8 c0 -9 5 -32 12 -50 11 -30 9 -39 -15
-88 l-27 -55 -88 0 -88 0 -25 53 c-13 28 -34 56 -45 61 l-22 10 21 43 21 43
128 0 c113 0 128 -2 128 -17z m-1470 -73 c-1 -66 -17 -49 -20 20 -3 61 -1 67
10 50 5 -8 10 -40 10 -70z m193 42 c10 -9 17 -29 17 -51 0 -60 -10 -81 -36
-81 -23 0 -24 2 -24 81 0 84 2 86 43 51z m2145 -25 c2 -36 0 -47 -11 -47 -16
0 -27 29 -27 73 0 22 4 28 18 25 13 -2 18 -15 20 -51z m479 -4 c-8 -70 -23
-103 -47 -103 -23 0 -23 -2 -6 72 16 67 22 78 43 78 13 0 15 -8 10 -47z m-245
-43 c-2 -35 -4 -65 -5 -66 -1 -1 -18 -4 -37 -6 l-35 -3 -3 59 c-4 80 0 88 45
84 l38 -3 -3 -65z m-812 36 c0 -8 -9 -44 -20 -80 l-21 -66 -110 0 c-71 0 -108
-4 -104 -10 3 -6 52 -10 110 -10 111 0 157 15 198 62 10 11 19 19 21 17 2 -2
22 -36 44 -75 23 -40 48 -74 56 -77 17 -7 32 9 37 37 3 12 24 -31 52 -102 l49
-122 -16 -47 c-9 -27 -29 -67 -44 -91 l-29 -42 -83 171 c-89 184 -87 175 -65
299 6 30 5 32 -6 15 -7 -10 -14 -51 -17 -90 l-4 -70 82 -163 c45 -90 80 -165
78 -167 -7 -7 -169 319 -171 342 -1 21 -5 21 -181 23 -99 0 -182 3 -185 6 -7
6 85 191 112 226 21 26 25 27 120 27 76 1 97 -2 97 -13z m-927 -31 c52 -7 57
-9 67 -41 8 -23 8 -39 1 -53 -6 -11 -11 -28 -10 -38 0 -16 2 -16 11 -3 9 14
15 11 46 -18 20 -18 48 -36 61 -39 25 -6 48 14 146 132 l40 48 62 -124 c33
-68 74 -144 91 -169 34 -50 33 -62 -23 -151 -62 -98 -106 -149 -127 -149 -12
0 -53 24 -92 54 -55 42 -81 55 -118 60 -27 3 -68 9 -93 12 -44 5 -53 16 -37
42 7 10 25 10 97 -3 48 -8 89 -15 90 -15 2 0 5 -8 7 -18 6 -22 113 -115 127
-110 5 1 32 37 60 78 27 41 63 94 79 118 28 39 33 74 12 87 -4 3 -26 -26 -49
-64 -70 -118 -114 -156 -137 -119 -4 7 -3 8 4 4 22 -13 12 6 -65 133 -94 155
-135 191 -217 191 -29 0 -81 3 -115 6 -61 7 -62 8 -56 33 11 49 57 132 69 128
7 -3 38 -8 69 -12z m932 -61 c-23 -61 -28 -51 -8 15 10 29 19 48 21 41 2 -6
-4 -32 -13 -56z m-771 -5 c15 -22 25 -43 22 -47 -3 -3 -7 -3 -9 -1 -37 46 -56
77 -50 82 9 10 8 11 37 -34z m2365 -46 c-3 -90 -9 -113 -30 -113 -23 0 -24 21
-4 61 9 16 13 34 9 40 -6 10 14 69 23 69 2 0 3 -26 2 -57z m-3239 43 c0 -8
-51 -13 -56 -5 -3 5 9 9 25 9 17 0 31 -2 31 -4z m-665 -29 c7 -7 6 -7 -4 -2
-8 4 -17 2 -21 -5 -10 -17 -40 -5 -40 15 0 12 7 14 28 9 15 -4 32 -11 37 -17z
m745 14 c0 -15 -17 -22 -36 -14 -16 6 -16 7 2 14 27 11 34 10 34 0z m134 -7
c18 -17 21 -40 7 -48 -12 -8 -61 32 -61 50 0 19 35 18 54 -2z m-1327 -16 c15
-12 17 -37 4 -57 -6 -10 -13 -6 -27 18 -10 18 -29 34 -42 38 -18 4 -21 8 -10
14 15 10 56 3 75 -13z m154 2 c24 0 25 -16 2 -29 -14 -7 -22 -3 -37 17 -18 23
-18 25 -2 19 10 -4 26 -7 37 -7z m3459 0 c0 -5 -4 -10 -9 -10 -5 0 -23 -3 -40
-6 -33 -7 -45 11 -13 19 32 9 62 7 62 -3z m-1200 -46 c-11 -25 -20 -54 -20
-64 0 -11 -9 -20 -22 -23 -21 -4 -20 -4 3 -6 22 -1 38 -20 101 -118 99 -156
138 -221 138 -232 0 -13 -110 -161 -120 -161 -8 0 -5 38 4 66 2 6 -9 15 -25
21 -16 6 -27 7 -24 2 10 -15 -105 -1 -121 16 -9 8 -26 15 -40 15 -13 0 -24 6
-24 13 0 6 23 50 51 96 28 47 59 102 70 124 l20 39 -54 96 c-30 53 -62 112
-71 130 l-17 32 85 0 85 0 -19 -46z m-2113 4 c-3 -7 -5 -2 -5 12 0 14 2 19 5
13 2 -7 2 -19 0 -25z m971 12 c39 -24 41 -40 5 -40 -29 0 -63 25 -63 47 0 18
20 16 58 -7z m3502 -62 c0 -64 -11 -72 -39 -28 -14 23 -29 36 -37 33 -17 -6
-19 -33 -2 -33 6 0 9 -2 6 -5 -2 -3 -19 2 -37 11 -31 15 -67 15 -102 0 -12 -5
-18 -1 -21 18 -5 23 -1 26 36 31 23 3 70 7 106 8 36 2 71 4 78 5 8 1 12 -12
12 -40z m-4620 22 c0 -6 -28 -28 -62 -50 l-63 -40 58 0 c31 0 57 -3 57 -6 0
-3 -7 -13 -16 -22 -17 -16 -47 -18 -127 -6 -33 5 -38 9 -33 27 3 12 -2 29 -11
39 -15 17 -14 18 13 18 16 1 52 7 79 15 44 12 46 14 18 14 -17 1 -35 6 -38 11
-4 6 18 10 59 10 39 0 66 -4 66 -10z m1769 -32 c22 -30 111 -181 108 -184 -1
-1 -47 8 -103 19 l-101 21 -39 59 c-21 33 -48 74 -59 90 l-19 30 98 -6 c86 -6
101 -9 115 -29z m131 -128 c22 -36 50 -81 62 -99 12 -19 17 -31 10 -27 -13 8
-113 154 -151 221 l-23 40 32 -35 c17 -19 49 -64 70 -100z m-1820 95 c7 -9 10
-19 6 -22 -4 -4 -11 -1 -15 6 -7 11 -10 11 -14 0 -3 -8 -6 -4 -6 9 -1 26 11
29 29 7z m4007 9 c-3 -3 -12 -4 -19 -1 -8 3 -5 6 6 6 11 1 17 -2 13 -5z
m-1440 -92 c18 -42 35 -85 39 -94 6 -17 -4 -18 -119 -18 -111 0 -126 -2 -129
-17 -3 -17 -81 95 -122 175 l-17 32 158 0 158 -1 32 -77z m1521 57 c1 -8 -7
-21 -20 -27 -20 -9 -14 -11 36 -11 62 -1 309 -18 382 -27 l40 -5 -3 -62 c-5
-80 -11 -107 -24 -107 -5 0 -26 -16 -46 -36 -37 -37 -34 -53 10 -54 17 0 16
-3 -5 -29 -16 -20 -36 -31 -66 -36 -26 -4 -56 -18 -77 -37 -19 -16 -35 -28
-35 -27 0 2 13 42 29 89 l28 85 49 6 49 5 -42 8 c-45 9 -49 15 -33 46 19 36
23 36 -430 64 -124 8 -309 18 -412 22 -104 3 -188 10 -188 14 0 4 28 13 63 19
34 7 148 30 252 52 319 68 437 80 443 48z m-4204 -78 c16 -6 27 -13 25 -15 -9
-7 -180 20 -172 27 11 11 110 3 147 -12z m326 -25 c25 -8 36 -15 24 -15 -12
-1 -37 6 -55 14 -43 18 -27 19 31 1z m2665 -46 c8 -16 15 -33 15 -37 -1 -13
-40 41 -40 55 0 20 9 14 25 -18z m-60 -125 c-14 -32 -28 -55 -32 -52 -3 4 7
33 23 65 37 73 43 64 9 -13z m-1056 -2 c3 -4 4 -7 2 -5 -3 1 -15 -7 -27 -19
-22 -21 -28 -21 -124 -13 l-100 9 21 30 22 31 100 -12 c54 -7 102 -16 106 -21z
m2819 -15 c98 -46 138 -99 162 -216 10 -48 22 -96 26 -106 6 -15 4 -18 -9 -13
-10 4 -21 -1 -27 -11 -8 -12 -10 -12 -7 -2 2 8 -2 21 -10 28 -7 8 -11 18 -8
23 4 5 1 9 -4 9 -6 0 -11 6 -12 13 0 6 -20 28 -44 47 -54 43 -59 60 -8 25 21
-14 39 -21 41 -16 12 35 -112 198 -168 221 -16 7 -27 16 -24 22 7 10 33 4 92
-24z m-309 -110 c-44 -118 -68 -171 -69 -152 0 7 -10 12 -22 13 -70 4 -94 7
-104 14 -7 4 -23 7 -35 7 -53 0 -115 6 -124 12 -17 10 -297 38 -347 35 -26 -2
-45 0 -42 5 3 4 10 8 16 8 6 0 77 29 157 64 80 35 169 71 196 80 54 18 408 47
413 34 2 -4 -15 -59 -39 -120z m417 95 c-7 -7 -26 7 -26 19 0 6 6 6 15 -2 9
-7 13 -15 11 -17z m-2931 -14 c-4 -11 -1 -43 5 -70 17 -70 7 -71 -18 -2 -20
53 -20 59 -5 75 21 23 26 23 18 -3z m-193 -34 l66 -6 -36 -50 c-35 -47 -39
-50 -72 -45 -19 3 -61 6 -92 6 -35 0 -58 4 -58 11 0 6 12 31 26 55 25 43 29
45 63 40 20 -3 66 -8 103 -11z m1109 -4 c13 -5 14 -11 8 -30 -9 -23 -11 -24
-92 -18 -45 4 -108 7 -139 7 -62 0 -68 5 -40 36 17 18 29 19 133 16 62 -3 121
-7 130 -11z m1849 15 c0 -2 -7 -7 -16 -10 -8 -3 -12 -2 -9 4 6 10 25 14 25 6z
m-2884 -64 c-24 -39 -43 -58 -51 -50 -2 1 13 25 32 51 42 57 55 56 19 -1z
m2822 -19 c-32 -5 -36 -18 -11 -27 14 -6 15 -9 4 -15 -9 -6 -6 -10 10 -14 13
-4 20 -9 17 -12 -6 -7 -43 3 -112 28 -22 8 -34 17 -27 21 6 4 16 4 23 0 7 -4
8 -3 4 4 -5 8 1 12 14 12 14 0 19 -4 14 -12 -4 -7 2 -5 12 5 10 9 32 16 49 16
30 -2 30 -2 3 -6z m-2125 -93 c-32 -55 -51 -80 -64 -80 -28 0 -24 9 31 88 70
99 90 94 33 -8z m315 44 c7 -2 10 -9 6 -15 -5 -8 -42 -9 -128 -4 -125 7 -140
10 -131 25 5 9 224 3 253 -6z m72 11 c0 -2 -17 -38 -37 -80 -34 -68 -53 -92
-53 -65 0 19 70 150 80 150 6 0 10 -2 10 -5z m1600 -17 l33 -11 -44 -23 c-58
-30 -59 -30 -46 11 12 39 12 39 57 23z m-742 -15 c-10 -2 -28 -2 -40 0 -13 2
-5 4 17 4 22 1 32 -1 23 -4z m-1865 -10 c-7 -2 -19 -2 -25 0 -7 3 -2 5 12 5
14 0 19 -2 13 -5z m913 -25 c4 -4 -1 -26 -11 -48 -13 -28 -24 -40 -39 -40 -48
1 -249 20 -253 24 -3 3 6 25 20 48 l25 44 125 -11 c69 -5 129 -13 133 -17z
m1062 25 c-10 -2 -26 -2 -35 0 -10 3 -2 5 17 5 19 0 27 -2 18 -5z m913 -19
c17 -18 19 -23 6 -18 -9 3 -17 10 -17 16 0 5 -4 6 -10 3 -5 -3 -10 1 -10 9 0
21 2 20 31 -10z m-2948 9 c-7 -2 -19 -2 -25 0 -7 3 -2 5 12 5 14 0 19 -2 13
-5z m1813 -5 c-8 -36 -20 -48 -47 -48 -24 0 -29 4 -29 24 0 24 4 26 67 35 6 0
10 -5 9 -11z m51 6 c-3 -3 -12 -4 -19 -1 -8 3 -5 6 6 6 11 1 17 -2 13 -5z
m190 -13 c63 -9 68 -13 54 -40 -19 -36 -46 -43 -74 -21 -13 11 -27 16 -31 13
-3 -3 -6 -1 -6 5 0 7 0 15 0 20 0 4 -15 12 -33 19 l-32 11 35 1 c19 0 59 -4
87 -8z m-470 -7 c-3 -3 -12 -4 -19 -1 -8 3 -5 6 6 6 11 1 17 -2 13 -5z m130 0
c-3 -3 -12 -4 -19 -1 -8 3 -5 6 6 6 11 1 17 -2 13 -5z m553 2 c0 -2 -7 -7 -16
-10 -8 -3 -12 -2 -9 4 6 10 25 14 25 6z m626 -22 c29 -8 71 -28 96 -44 52 -35
97 -80 79 -80 -9 0 -10 -5 -5 -13 5 -7 2 -6 -6 3 -8 8 -32 28 -52 43 -33 26
-43 28 -94 23 -31 -3 -54 -2 -50 1 7 7 -99 58 -145 69 l-34 8 40 7 c48 8 101
2 171 -17z m-1229 10 c-3 -3 -12 -4 -19 -1 -8 3 -5 6 6 6 11 1 17 -2 13 -5z
m-50 -10 c-3 -3 -12 -4 -19 -1 -8 3 -5 6 6 6 11 1 17 -2 13 -5z m1233 -84 c0
-5 -2 -10 -4 -10 -3 0 -8 5 -11 10 -3 6 -1 10 4 10 6 0 11 -4 11 -10z m90 0
c0 -5 -5 -10 -11 -10 -5 0 -7 5 -4 10 3 6 8 10 11 10 2 0 4 -4 4 -10z m24 -16
c3 -8 2 -12 -4 -9 -6 3 -10 10 -10 16 0 14 7 11 14 -7z m-1861 -41 c-7 -2 -19
-2 -25 0 -7 3 -2 5 12 5 14 0 19 -2 13 -5z m294 1 c-3 -3 -12 -4 -19 -1 -8 3
-5 6 6 6 11 1 17 -2 13 -5z m-164 -11 c-7 -2 -21 -2 -30 0 -10 3 -4 5 12 5 17
0 24 -2 18 -5z m274 1 c-3 -3 -12 -4 -19 -1 -8 3 -5 6 6 6 11 1 17 -2 13 -5z
m1458 -14 c10 -11 16 -20 13 -20 -3 0 -13 9 -23 20 -10 11 -16 20 -13 20 3 0
13 -9 23 -20z m-1358 4 c-3 -3 -12 -4 -19 -1 -8 3 -5 6 6 6 11 1 17 -2 13 -5z
m170 -20 c-3 -3 -12 -4 -19 -1 -8 3 -5 6 6 6 11 1 17 -2 13 -5z m-140 -10 c-3
-3 -12 -4 -19 -1 -8 3 -5 6 6 6 11 1 17 -2 13 -5z m220 0 c-3 -3 -12 -4 -19
-1 -8 3 -5 6 6 6 11 1 17 -2 13 -5z m120 -40 c-3 -3 -12 -4 -19 -1 -8 3 -5 6
6 6 11 1 17 -2 13 -5z m310 -10 c-3 -3 -12 -4 -19 -1 -8 3 -5 6 6 6 11 1 17
-2 13 -5z m76 -11 c-7 -2 -19 -2 -25 0 -7 3 -2 5 12 5 14 0 19 -2 13 -5z m92
-3 c-3 -5 -18 -9 -33 -9 l-27 1 30 8 c17 4 31 8 33 9 2 0 0 -3 -3 -9z m593
-37 c-32 -2 -84 -2 -115 0 -32 2 -6 3 57 3 63 0 89 -1 58 -3z"/>
<path fill="royalblue" d="M2411 4133 c0 -56 -4 -109 -8 -119 -4 -12 -2 -15 8 -12 18 6 22 62
11 158 l-9 75 -2 -102z"/>
<path fill="black" d="M2550 4205 c-47 -7 -92 -14 -99 -14 -9 -1 -11 -4 -5 -10 5 -5 58 -2
123 6 62 7 115 12 118 10 2 -3 7 -62 12 -133 l8 -129 0 110 c1 61 -2 124 -6
140 -7 37 -27 39 -151 20z"/>
<path fill="orange" d="M2491 3825 c-98 -16 -104 -25 -98 -138 2 -49 9 -93 15 -99 8 -8 40
-8 114 1 56 7 106 15 110 17 13 8 9 209 -4 222 -14 14 -38 14 -137 -3z m67
-61 c22 -15 30 -66 14 -90 -8 -13 -46 -34 -61 -34 -41 0 -54 80 -19 117 25 27
36 28 66 7z"/>
<path fill="orange" d="M1906 3748 c-50 -10 -93 -24 -98 -31 -13 -21 -10 -183 5 -194 11 -10
167 7 204 21 9 4 13 32 13 105 0 124 -1 125 -124 99z m69 -89 c10 -30 -14 -78
-42 -85 -28 -7 -63 19 -63 48 0 69 86 99 105 37z"/>
<path fill="black" d="M2841 3813 c0 -95 2 -173 7 -173 4 0 6 66 4 148 -4 213 -9 223 -11
25z"/>
<path fill="red" d="M1633 3744 c-7 -3 -9 -12 -6 -20 8 -21 22 -17 20 6 -1 11 -1 20 -2
19 0 0 -5 -3 -12 -5z"/>
<path fill="black" d="M3107 3743 c-2 -5 -1 -53 3 -108 l7 -100 1 108 c2 100 0 119 -11 100z"/>
<path fill="black" d="M3158 3734 c-5 -4 -7 -53 -7 -108 1 -92 2 -97 11 -52 10 55 7 172 -4
160z"/>
<path fill="black" d="M3031 3627 c-1 -63 3 -96 9 -92 12 7 12 142 0 170 -6 13 -9 -14 -9
-78z"/>
<path fill="black" d="M3641 3294 c-12 -31 -20 -59 -18 -61 2 -2 14 22 26 53 12 31 20 59
18 61 -2 2 -14 -22 -26 -53z"/>
<path fill="black" d="M3601 3189 c-6 -18 -9 -34 -7 -36 2 -2 9 10 15 28 6 18 9 34 7 36 -2
2 -9 -10 -15 -28z"/>
<path fill="black" d="M1941 3154 c-1 -11 8 -69 19 -129 11 -60 19 -110 17 -111 -3 -3 -168
44 -173 49 -2 1 -12 23 -23 47 -20 44 -21 44 -15 10 10 -60 26 -74 112 -99 99
-28 118 -26 114 14 -5 48 -50 242 -51 219z"/>
<path fill="red" d="M3467 2584 c-10 -18 25 -84 44 -84 16 0 17 3 7 28 -15 34 -44 67 -51
56z"/>
<path fill="lightgreen" d="M1595 2419 c-24 -46 -16 -70 32 -97 24 -13 47 -21 52 -18 5 3 16 26
24 50 17 49 16 51 -40 80 -44 22 -50 21 -68 -15z"/>
<path fill="green" d="M3902 2403 c-6 -26 -14 -85 -18 -130 l-7 -83 -49 0 c-42 0 -49 3 -44
18 10 36 17 82 13 82 -3 0 -21 -71 -42 -157 -20 -87 -43 -167 -50 -179 -11
-16 -36 -25 -126 -42 -62 -12 -116 -25 -122 -31 -8 -8 55 1 201 30 62 12 65
17 93 136 11 48 22 96 25 105 6 22 35 31 69 22 l27 -7 -7 -167 -7 -167 47 -54
c65 -73 69 -78 55 -49 -7 14 -29 44 -48 68 l-35 42 7 153 c4 83 14 219 22 301
15 153 14 193 -4 109z"/>
<path fill="red" d="M3940 2400 c0 -5 5 -10 11 -10 5 0 7 5 4 10 -3 6 -8 10 -11 10 -2 0
-4 -4 -4 -10z"/>
<path fill="lightgreen" d="M3811 2354 c0 -11 3 -14 6 -6 3 7 2 16 -1 19 -3 4 -6 -2 -5 -13z"/>
<path fill="lightgreen" d="M3512 2280 c0 -14 2 -19 5 -12 2 6 2 18 0 25 -3 6 -5 1 -5 -13z"/>
<path fill="lightgreen" d="M3571 2074 c0 -11 3 -14 6 -6 3 7 2 16 -1 19 -3 4 -6 -2 -5 -13z"/>
<path fill="yellow" d="M3916 1904 c-12 -30 -6 -82 9 -88 12 -4 15 4 15 44 0 49 -13 73 -24
44z"/>
<path fill="green" d="M1350 1903 c0 -4 43 -31 94 -59 52 -28 92 -45 89 -38 -5 15 -183 109
-183 97z"/>
<path fill="green" d="M2581 2205 c0 -5 15 -39 34 -75 19 -36 34 -60 34 -55 0 6 -15 39 -34
75 -19 36 -34 61 -34 55z"/>
<path fill="green" d="M2504 2173 c2 -10 7 -28 10 -39 4 -12 34 -41 67 -64 l61 -43 -5 -46
c-5 -42 -4 -43 5 -14 16 50 3 80 -52 116 -33 21 -54 44 -65 70 -15 38 -30 52
-21 20z"/>
<path fill="green" d="M3017 1829 c5 -62 1 -96 -21 -188 -26 -107 -26 -114 -12 -159 16 -48
65 -135 66 -117 0 6 -14 45 -30 87 l-30 78 20 92 c11 51 24 96 28 100 10 10
-3 142 -17 165 -8 13 -9 -3 -4 -58z"/>
<path fill="red" d="M3790 1521 c0 -6 9 -15 20 -21 13 -7 20 -7 20 -1 0 6 -9 15 -20 21
-13 7 -20 7 -20 1z"/>
<path fill="lightblue" d="M3283 4918 c-40 -24 -45 -53 -8 -44 l25 6 -17 -37 c-10 -21 -23 -45
-30 -54 -19 -23 -7 -29 67 -29 l67 0 56 61 c56 61 64 89 25 89 -11 0 -33 -9
-50 -21 -30 -22 -48 -20 -31 3 16 22 9 43 -16 46 -13 2 -21 0 -17 -6 3 -5 -1
-13 -10 -16 -27 -11 -37 -7 -24 9 17 20 2 18 -37 -7z"/>
<path fill="lightblue" d="M3183 4906 c-15 -13 -25 -28 -21 -32 5 -4 16 0 26 9 10 9 33 23 52
31 l35 15 -32 1 c-20 0 -43 -9 -60 -24z"/>
<path fill="lightblue" d="M2275 4909 c-11 -4 -15 -8 -10 -8 6 -1 11 -11 12 -23 1 -13 16 -36
34 -51 29 -27 30 -29 13 -42 -34 -23 -75 -65 -65 -65 5 0 13 5 17 11 4 6 20 8
38 5 37 -7 51 1 35 20 -14 17 9 54 33 54 10 0 18 4 18 9 0 16 -41 61 -56 61
-20 0 -17 18 4 24 10 3 7 4 -8 3 -14 -1 -29 1 -35 5 -5 3 -19 2 -30 -3z"/>
<path fill="lightblue" d="M5090 4843 c-20 -41 -23 -73 -7 -73 23 0 37 23 37 62 0 45 -12 49
-30 11z"/>
<path fill="lightblue" d="M3222 4838 c-7 -7 -12 -19 -12 -27 0 -11 5 -8 16 7 18 25 15 39 -4
20z"/>
<path d="M150 4695 c0 -8 2 -15 4 -15 2 0 6 7 10 15 3 8 1 15 -4 15 -6 0 -10
-7 -10 -15z"/>
<path d="M3073 4645 c0 -38 2 -53 4 -32 2 20 2 52 0 70 -2 17 -4 1 -4 -38z"/>
<path d="M2232 4628 c-28 -28 3 -78 62 -103 38 -16 61 -12 88 16 9 9 23 19 30
22 10 3 10 9 2 23 -14 24 -50 30 -81 13 -20 -11 -26 -10 -46 8 -33 30 -43 33
-55 21z"/>
<path d="M1070 4560 c0 -5 5 -10 10 -10 6 0 10 5 10 10 0 6 -4 10 -10 10 -5 0
-10 -4 -10 -10z"/>
<path d="M3061 4544 c0 -11 3 -14 6 -6 3 7 2 16 -1 19 -3 4 -6 -2 -5 -13z"/>
<path d="M260 4537 c0 -10 8 -17 18 -17 9 0 13 4 7 8 -5 4 -13 11 -17 16 -5 5
-8 2 -8 -7z"/>
<path d="M2445 4530 c10 -11 20 -18 23 -15 7 6 -18 35 -31 35 -5 0 -2 -9 8
-20z"/>
<path d="M2420 4500 c0 -5 5 -10 10 -10 6 0 10 5 10 10 0 6 -4 10 -10 10 -5 0
-10 -4 -10 -10z"/>
<path d="M1055 4480 c-3 -5 -1 -10 4 -10 6 0 11 5 11 10 0 6 -2 10 -4 10 -3 0
-8 -4 -11 -10z"/>
<path d="M3050 4485 c0 -5 5 -17 10 -25 5 -8 10 -10 10 -5 0 6 -5 17 -10 25
-5 8 -10 11 -10 5z"/>
<path d="M2491 4434 c0 -11 3 -14 6 -6 3 7 2 16 -1 19 -3 4 -6 -2 -5 -13z"/>
<path d="M3071 4424 c0 -11 3 -14 6 -6 3 7 2 16 -1 19 -3 4 -6 -2 -5 -13z"/>
<path d="M3497 4423 c-17 -16 -3 -23 46 -22 33 1 41 4 22 6 -16 3 -34 9 -39
14 -12 11 -20 11 -29 2z"/>
<path d="M3061 4243 c-1 -6 -4 -20 -7 -30 -5 -17 -5 -17 6 0 6 10 9 23 6 30
-3 9 -5 9 -5 0z"/>
<path d="M4146 4211 c-3 -4 6 -7 20 -5 35 3 43 14 11 14 -14 0 -28 -4 -31 -9z"/>
<path d="M3635 4200 c3 -5 8 -10 11 -10 2 0 4 5 4 10 0 6 -5 10 -11 10 -5 0
-7 -4 -4 -10z"/>
<path d="M3582 4114 c-13 -9 -31 -12 -47 -8 -34 8 -32 -8 7 -51 39 -41 55 -43
87 -9 22 23 37 73 23 75 -4 0 -16 2 -28 4 -11 3 -30 -2 -42 -11z"/>
<path d="M10 3996 c0 -2 8 -10 18 -17 15 -13 16 -12 3 4 -13 16 -21 21 -21 13z"/>
<path d="M3769 3980 c-23 -18 -23 -19 -4 -25 11 -4 32 -13 47 -21 33 -18 38
-18 38 1 0 8 5 15 10 15 17 0 11 17 -7 24 -10 3 -27 10 -39 15 -15 7 -27 4
-45 -9z"/>
<path d="M3982 3937 c-8 -10 -6 -13 11 -14 12 0 16 1 9 4 -6 3 -10 9 -6 14 8
14 -2 11 -14 -4z"/>
<path d="M1496 3902 c-2 -4 13 -14 34 -24 38 -16 39 -16 62 11 l23 26 -25 -22
c-26 -22 -26 -22 -57 -3 -18 11 -34 16 -37 12z"/>
<path d="M3950 3902 c0 -4 9 -13 21 -20 19 -12 19 -11 9 8 -10 19 -30 28 -30
12z"/>
<path d="M1069 3723 c-13 -16 -12 -17 4 -4 9 7 17 15 17 17 0 8 -8 3 -21 -13z"/>
<path d="M3700 3460 c8 -5 20 -10 25 -10 6 0 3 5 -5 10 -8 5 -19 10 -25 10 -5
0 -3 -5 5 -10z"/>
<path d="M4022 3440 c0 -14 2 -19 5 -12 2 6 2 18 0 25 -3 6 -5 1 -5 -13z"/>
<path d="M3590 3446 c0 -2 8 -10 18 -17 15 -13 16 -12 3 4 -13 16 -21 21 -21
13z"/>
<path d="M3620 3406 c0 -2 8 -10 18 -17 15 -13 16 -12 3 4 -13 16 -21 21 -21
13z"/>
<path d="M4104 3100 c0 -52 1 -74 3 -47 2 26 2 68 0 95 -2 26 -3 4 -3 -48z"/>
<path d="M682 2750 c0 -14 2 -19 5 -12 2 6 2 18 0 25 -3 6 -5 1 -5 -13z"/>
<path d="M863 2654 c-20 -54 -22 -63 -13 -69 6 -4 10 3 10 15 0 12 5 30 11 41
6 11 9 25 7 31 -2 6 -9 -2 -15 -18z"/>
<path d="M4112 2590 c0 -14 2 -19 5 -12 2 6 2 18 0 25 -3 6 -5 1 -5 -13z"/>
<path d="M712 2490 c0 -19 2 -27 5 -17 2 9 2 25 0 35 -3 9 -5 1 -5 -18z"/>
<path d="M800 2485 c-6 -19 -10 -41 -7 -48 4 -13 -53 -57 -76 -57 -12 0 -15
-48 -21 -267 -3 -148 -8 -315 -10 -373 -3 -67 -2 -91 3 -65 5 22 9 32 10 23 1
-17 3 -17 36 -1 l35 17 2 295 c1 163 2 306 2 318 0 12 4 19 8 17 4 -3 8 0 8 5
0 6 -5 11 -12 11 -7 0 -5 5 4 13 15 11 33 57 43 106 2 11 7 26 10 31 3 6 0 10
-9 10 -8 0 -20 -16 -26 -35z"/>
<path d="M712 2410 c0 -14 2 -19 5 -12 2 6 2 18 0 25 -3 6 -5 1 -5 -13z"/>
<path d="M4161 2255 c0 -5 6 -30 13 -55 10 -32 15 -38 15 -20 0 24 -27 96 -28
75z"/>
<path d="M768 1670 c2 -16 6 -30 8 -30 2 0 4 14 4 30 0 17 -4 30 -8 30 -5 0
-7 -13 -4 -30z"/>
<path d="M1052 1590 c0 -19 2 -27 5 -17 2 9 2 25 0 35 -3 9 -5 1 -5 -18z"/>
<path d="M753 1530 c-19 -8 -23 -17 -23 -55 0 -49 1 -51 30 -32 17 10 22 9 31
-3 8 -12 9 -9 5 10 -3 14 -6 40 -6 58 0 34 -3 36 -37 22z"/>
<path d="M993 1303 c20 -2 54 -2 75 0 20 2 3 4 -38 4 -41 0 -58 -2 -37 -4z"/>
<path d="M743 1293 c20 -2 54 -2 75 0 20 2 3 4 -38 4 -41 0 -58 -2 -37 -4z"/>
<path d="M3843 1293 c15 -2 37 -2 50 0 12 2 0 4 -28 4 -27 0 -38 -2 -22 -4z"/>
<path d="M1523 1273 c9 -2 25 -2 35 0 9 3 1 5 -18 5 -19 0 -27 -2 -17 -5z"/>
<path d="M3348 1253 c6 -2 18 -2 25 0 6 3 1 5 -13 5 -14 0 -19 -2 -12 -5z"/>
<path d="M713 1243 c15 -2 39 -2 55 0 15 2 2 4 -28 4 -30 0 -43 -2 -27 -4z"/>
<path d="M490 1220 c0 -5 7 -10 15 -10 8 0 15 5 15 10 0 6 -7 10 -15 10 -8 0
-15 -4 -15 -10z"/>
<path d="M640 1215 c-11 -13 -6 -15 31 -15 41 1 43 2 25 15 -25 19 -40 19 -56
0z"/>
<path d="M3379 1208 c129 -5 273 -6 320 -1 63 6 0 8 -234 9 l-320 1 234 -9z"/>
<path d="M945 1160 c-3 -5 -1 -10 4 -10 6 0 11 5 11 10 0 6 -2 10 -4 10 -3 0
-8 -4 -11 -10z"/>
<path d="M1410 1150 c105 -11 388 -20 320 -10 -30 4 -131 10 -225 13 -107 3
-142 2 -95 -3z"/>
<path d="M3188 1133 c18 -2 45 -2 60 0 15 2 0 4 -33 4 -33 0 -45 -2 -27 -4z"/>
<path d="M3318 1123 c23 -2 61 -2 85 0 23 2 4 4 -43 4 -47 0 -66 -2 -42 -4z"/>
<path d="M3513 1113 c20 -2 54 -2 75 0 20 2 3 4 -38 4 -41 0 -58 -2 -37 -4z"/>
<path d="M3363 976 c-50 -11 -95 -24 -98 -27 -5 -6 218 36 240 45 29 12 -62 1
-142 -18z"/>
<path d="M4158 933 c23 -2 59 -2 80 0 20 2 1 4 -43 4 -44 0 -61 -2 -37 -4z"/>
<path d="M1155 914 c-20 -16 -19 -16 5 -10 14 3 67 6 119 6 52 0 92 2 90 4 -2
2 -47 6 -99 10 -79 5 -98 3 -115 -10z"/>
<path d="M918 883 c18 -2 45 -2 60 0 15 2 0 4 -33 4 -33 0 -45 -2 -27 -4z"/>
<path d="M3588 713 c6 -2 18 -2 25 0 6 3 1 5 -13 5 -14 0 -19 -2 -12 -5z"/>
</g>
</svg>