<?xml version="1.0" standalone="no"?>
<!DOCTYPE svg PUBLIC "-//W3C//DTD SVG 20010904//EN"
 "http://www.w3.org/TR/2001/REC-SVG-20010904/DTD/svg10.dtd">
<svg version="1.0" xmlns="http://www.w3.org/2000/svg"
 width="512.000000pt" height="512.000000pt" viewBox="0 0 512.000000 512.000000"
 preserveAspectRatio="xMidYMid meet">
<metadata>
Created by potrace 1.16, written by Peter Selinger 2001-2019
</metadata>
<g transform="translate(0.000000,512.000000) scale(0.100000,-0.100000)"
fill="#808080" stroke="none">
<path d="M2580 4650 c0 -129 0 -130 -24 -136 -17 -4 -26 -14 -28 -32 l-3 -27
-130 0 -130 0 -3 86 -3 86 47 7 c26 3 62 6 80 6 19 0 34 5 34 12 0 13 -192 4
-234 -12 -23 -8 -26 -15 -26 -60 0 -54 -3 -56 -80 -62 -30 -3 -36 -7 -41 -33
-10 -47 -10 -220 0 -230 9 -10 -1 -200 -11 -210 -2 -3 -60 -16 -129 -31 -140
-29 -160 -41 -199 -124 -13 -28 -28 -50 -34 -50 -6 0 -86 26 -179 57 l-169 57
-51 -27 c-29 -15 -88 -51 -131 -79 l-79 -53 -65 -150 c-126 -294 -170 -410
-162 -420 5 -5 68 -35 139 -65 72 -30 131 -59 131 -63 0 -4 -18 -50 -40 -102
-22 -52 -40 -101 -40 -109 0 -8 9 -21 21 -30 19 -13 20 -18 9 -50 l-12 -36
-64 0 -64 0 -51 -107 c-149 -316 -255 -599 -244 -646 4 -13 33 -50 66 -83 54
-54 59 -61 53 -92 -7 -38 22 -207 42 -238 8 -13 49 -35 106 -57 87 -33 102
-36 222 -39 l130 -2 13 52 c13 50 12 55 -7 83 -12 16 -26 29 -31 29 -10 0 -12
30 -3 55 4 9 25 25 48 37 59 29 76 47 76 79 0 17 10 37 24 51 14 13 87 111
164 219 77 108 162 227 191 264 63 84 65 110 14 157 -21 18 -55 44 -76 57 -44
27 -44 22 6 133 l34 78 18 -45 c31 -82 89 -93 251 -47 l99 28 0 -176 0 -175
-35 -20 c-19 -11 -48 -41 -65 -65 -26 -39 -34 -45 -62 -42 -21 2 -37 -3 -50
-18 -18 -18 -51 -141 -105 -377 -9 -44 -15 -53 -33 -53 -42 0 -52 -28 -79
-217 -32 -224 -32 -227 0 -256 17 -16 41 -67 70 -148 24 -68 44 -127 44 -130
0 -4 -9 -9 -20 -12 -22 -6 -48 -59 -57 -114 -4 -24 -1 -39 12 -53 18 -20 17
-20 -18 -20 -30 0 -43 -8 -88 -55 -29 -30 -60 -55 -70 -55 -9 0 -25 -3 -33 -6
-18 -7 -251 -302 -244 -309 2 -3 96 -17 209 -32 201 -26 259 -28 569 -21 173
4 559 -5 554 -13 -10 -17 33 -23 316 -39 261 -15 329 -15 546 -4 281 14 431
34 503 65 58 24 70 45 43 72 -19 19 -56 25 -283 52 l-56 6 -29 127 c-17 76
-36 134 -46 144 -10 10 -18 22 -18 27 0 5 -12 23 -26 40 l-26 31 21 62 c27 79
26 111 -3 233 -14 55 -38 163 -55 240 -17 77 -33 150 -36 161 -3 13 -15 24
-29 28 -30 7 -28 -6 -60 334 -25 253 -27 266 -56 317 -35 61 -37 75 -12 75 36
0 42 20 42 145 0 109 -2 124 -20 140 -18 16 -19 21 -6 39 7 12 16 35 20 53 7
31 32 43 92 43 29 0 36 13 64 118 12 45 26 82 30 82 5 0 20 -24 33 -54 14 -30
36 -71 50 -91 22 -32 23 -39 12 -63 -8 -17 -19 -139 -30 -332 -9 -168 -19
-308 -22 -312 -6 -10 16 -49 38 -68 18 -14 17 -19 -41 -117 -67 -114 -67 -101
-7 -234 23 -53 28 -57 67 -64 32 -5 40 -10 35 -23 -3 -9 -9 -35 -12 -58 -5
-41 -4 -43 47 -83 43 -34 59 -41 93 -40 58 2 100 -6 131 -26 24 -16 29 -16 98
10 176 63 161 53 180 125 9 36 29 110 45 164 l29 99 52 13 c66 17 108 39 116
60 18 46 129 864 121 886 -7 18 -188 178 -226 199 -23 13 -39 15 -76 8 -25 -5
-48 -7 -50 -5 -4 3 -93 237 -93 243 0 1 14 9 30 18 22 12 30 23 30 43 0 58
-51 374 -71 439 -43 141 -132 287 -191 316 -30 15 -36 14 -142 -25 -62 -23
-142 -44 -181 -49 -65 -7 -77 -5 -170 29 -55 19 -109 44 -121 54 -12 10 -38
21 -58 25 -20 3 -36 6 -36 7 -1 8 -30 507 -30 522 0 17 -23 32 -117 76 -207
98 -293 128 -362 128 l-61 0 0 -130z m207 60 c78 -35 93 -62 17 -30 -25 11
-48 20 -50 20 -2 0 -4 -28 -4 -62 0 -98 -10 -141 -29 -132 -9 4 -37 9 -63 12
l-48 4 0 115 0 115 53 -4 c28 -3 85 -20 124 -38z m214 -98 l86 -40 12 -243 c6
-134 14 -272 16 -306 4 -46 2 -65 -10 -76 -15 -15 -113 -52 -120 -45 -5 5 -9
123 -4 134 2 5 3 53 1 107 -3 93 -5 99 -28 109 -19 9 -24 19 -24 49 0 41 -20
69 -51 69 -26 0 -24 -9 6 -20 37 -14 36 -66 -2 -81 -39 -15 -43 -24 -43 -121
l0 -87 -32 -3 -32 -3 3 -162 3 -163 -60 0 -59 0 -7 61 c-3 34 -6 83 -6 109 l0
48 45 -6 45 -5 0 87 0 88 38 -4 37 -3 3 177 2 177 -30 16 c-30 15 -30 16 -30
100 0 79 1 85 21 85 11 0 29 -5 40 -10 15 -8 23 -7 35 4 17 17 17 17 145 -42z
m-761 -42 c0 -46 -2 -50 -24 -50 -19 0 -25 7 -30 36 -8 40 5 64 35 64 16 0 19
-8 19 -50z m157 -138 l142 -3 3 28 c3 25 9 29 49 37 75 14 79 9 79 -88 0 -98
5 -93 -113 -101 -45 -4 -92 -8 -104 -11 -20 -4 -23 0 -23 27 0 24 -3 30 -16
25 -9 -3 -42 -6 -75 -6 -56 0 -59 -1 -59 -25 l0 -25 -110 0 -110 0 1 68 c1 37
4 81 8 97 6 30 7 30 86 35 l80 5 10 -30 10 -30 142 -3z m394 11 c8 -8 9 -57 4
-162 l-8 -151 -76 0 c-67 0 -78 3 -90 22 -13 21 -15 21 -229 15 -178 -5 -219
-9 -228 -22 -7 -9 -27 -15 -53 -15 -39 0 -41 1 -41 30 l0 30 104 0 c117 0 116
-1 116 88 l0 42 60 0 c57 0 60 -1 60 -25 0 -18 5 -25 20 -25 16 0 20 -7 20
-38 l0 -37 113 3 c61 2 118 5 125 7 6 3 12 20 12 40 0 24 4 35 15 35 8 0 15 5
15 10 0 6 -9 10 -20 10 -19 0 -20 7 -20 94 l0 94 45 -17 c25 -9 50 -22 56 -28z
m138 -211 c19 -15 22 -28 24 -97 l2 -80 -40 0 -40 0 -3 89 c-2 65 1 92 10 98
18 11 23 10 47 -10z m-318 -132 c3 -25 10 -118 13 -207 l8 -163 -60 0 -59 0
-6 68 c-4 37 -7 114 -7 171 l0 103 -152 -7 c-84 -4 -154 -8 -155 -9 -1 0 -5
-74 -9 -164 l-7 -163 -56 3 -56 3 -3 75 c-2 41 0 126 3 188 l7 112 48 0 c33 0
52 5 57 15 9 16 88 22 298 21 l130 -1 6 -45z m113 -42 c11 -94 9 -100 -21 -96
-27 3 -28 5 -31 76 -3 70 -2 72 21 72 22 0 25 -5 31 -52z m194 -35 l32 -5 0
-92 -1 -91 -66 -50 c-36 -27 -70 -51 -74 -53 -5 -2 -9 64 -9 146 0 164 1 167
60 155 14 -2 40 -7 58 -10z m277 -22 c19 -8 19 -8 -2 -15 -24 -8 -43 -1 -43
15 0 11 17 11 45 0z m-1165 -10 c0 -5 -10 -11 -23 -15 -37 -9 -113 -82 -145
-139 -38 -66 -102 -238 -102 -272 l0 -27 123 3 c71 2 121 -1 121 -7 -1 -5 -5
-24 -9 -42 l-7 -34 323 4 323 3 9 43 8 42 141 0 141 0 -6 -52 c-3 -29 -11
-125 -17 -213 -7 -88 -17 -170 -22 -182 -23 -49 -43 -51 -513 -63 -582 -14
-697 -13 -719 3 -39 28 -44 316 -11 534 24 149 87 327 130 363 8 7 64 23 123
36 126 26 132 27 132 15z m1819 -20 c12 -8 11 -15 -3 -50 -22 -56 -20 -64 5
-18 11 21 26 37 32 34 30 -10 170 -327 152 -345 -2 -2 -20 29 -41 69 -45 90
-56 78 -14 -15 16 -37 27 -72 24 -77 -10 -16 -22 0 -39 54 -10 28 -20 55 -24
59 -3 4 -22 -1 -42 -10 l-36 -17 38 -121 38 -121 46 -10 c40 -9 60 -3 36 11
-5 3 -15 29 -21 58 -12 46 -11 52 6 65 10 7 21 13 25 13 9 0 54 -289 45 -297
-3 -4 -45 5 -93 20 l-88 26 -140 -56 c-77 -31 -182 -75 -234 -99 -52 -24 -97
-44 -101 -44 -12 0 -100 323 -100 365 1 121 65 324 123 388 19 21 45 38 65 42
l34 7 -17 -33 c-36 -69 -115 -398 -115 -478 0 -37 33 -148 49 -164 4 -4 73 17
152 48 211 81 221 86 213 104 -3 9 -24 69 -45 135 -52 155 -57 210 -31 312 37
143 57 173 101 145z m-86 -32 c-15 -26 -36 -38 -122 -70 -57 -22 -106 -38
-107 -36 -2 2 5 17 15 33 15 25 38 37 117 66 55 20 103 37 107 37 5 1 1 -13
-10 -30z m-1733 -7 c0 -15 -12 -44 -26 -63 -33 -44 -84 -144 -84 -164 0 -14
11 -15 76 -9 l75 7 -32 -65 -32 -65 -66 -7 c-92 -8 -161 -8 -161 2 0 20 60
183 88 238 39 76 77 123 117 140 42 18 45 18 45 -14z m1254 22 c11 -4 0 -14
-37 -32 -76 -38 -246 -209 -286 -289 l-31 -63 -136 0 -136 0 14 23 c8 12 21
32 29 45 11 18 23 22 66 22 74 0 93 10 183 96 44 42 80 73 80 68 0 -5 7 2 16
15 9 13 50 45 92 72 71 47 108 58 146 43z m-794 -119 l0 -105 -140 0 -140 0 0
89 c0 60 4 92 13 99 7 6 51 13 97 15 47 1 104 4 128 5 l42 2 0 -105z m905 72
c17 -9 15 -11 -23 -22 -102 -31 -222 -142 -276 -255 -29 -60 -31 -72 -30 -170
2 -178 41 -284 147 -397 34 -36 70 -74 80 -84 16 -18 16 -23 -5 -111 l-23 -91
-85 1 c-177 4 -220 12 -257 46 -27 24 -39 49 -58 116 l-24 85 38 37 37 38 91
-113 c89 -109 153 -178 153 -164 0 4 -54 73 -121 154 l-120 148 6 105 c16 249
32 357 58 403 58 99 190 227 281 272 52 26 85 27 131 2z m-1933 -44 c76 -27
138 -50 138 -54 0 -3 -27 -24 -61 -48 -72 -51 -68 -51 -241 13 -65 24 -118 40
-118 36 0 -10 77 -42 197 -81 l101 -33 70 47 c62 42 102 58 102 41 0 -3 -12
-30 -26 -60 -17 -35 -32 -54 -43 -54 -20 0 -56 -108 -116 -355 -20 -82 -39
-153 -43 -157 -4 -4 -64 11 -134 32 -146 44 -196 56 -185 44 5 -5 77 -30 160
-56 176 -54 175 -54 200 42 13 52 15 54 25 30 6 -14 17 -54 25 -90 l15 -65
-28 -29 c-28 -29 -30 -29 -72 -17 -68 20 -547 196 -555 205 -2 1 39 101 90
222 51 120 99 234 107 253 10 26 39 50 124 107 61 40 116 74 121 74 6 0 72
-21 147 -47z m2271 -24 c-26 -87 -14 -202 35 -344 22 -66 38 -123 34 -126 -9
-8 -334 -130 -337 -127 -13 17 -35 113 -35 152 1 64 10 107 62 278 l41 138 76
29 c42 15 90 33 106 39 17 6 31 11 31 11 1 1 -5 -22 -13 -50z m-417 -73 c-9
-14 -40 -52 -68 -84 -56 -62 -72 -96 -83 -175 -9 -71 -31 -56 -27 19 4 101 74
215 157 258 36 19 42 14 21 -18z m-53 -126 c-24 -48 -29 -167 -10 -223 14 -43
14 -45 -5 -50 -50 -13 -78 135 -42 221 14 34 63 96 71 89 2 -2 -4 -19 -14 -37z
m-799 -79 c42 -22 94 -42 116 -46 24 -4 40 -12 40 -21 0 -11 -53 -14 -300 -16
-165 -2 -300 -3 -300 -2 0 3 23 73 32 96 l10 27 163 0 163 0 76 -38z m1594
-478 c23 -60 44 -116 48 -126 6 -16 1 -18 -41 -15 l-48 3 -38 95 c-21 52 -41
107 -44 123 -7 26 -6 27 38 27 l44 0 41 -107z m-183 7 c14 -35 23 -65 21 -67
-2 -2 -19 -6 -39 -10 -34 -5 -35 -5 -52 48 -10 30 -20 59 -22 66 -4 10 55 35
65 28 1 -1 13 -30 27 -65z m83 -42 c28 -70 34 -95 23 -88 -27 14 -49 43 -70
90 -32 75 -34 88 -14 92 10 3 19 4 20 3 1 0 20 -44 41 -97z m-175 19 c11 -33
15 -62 11 -67 -17 -17 -239 -108 -246 -102 -3 4 -18 38 -32 75 -18 49 -22 69
-13 72 7 2 62 22 122 44 61 22 116 39 124 38 8 -1 23 -28 34 -60z m-2643 -39
c0 -11 -48 -136 -57 -147 -2 -3 -8 0 -14 6 -14 14 39 153 59 153 6 0 12 -6 12
-12z m148 -44 c59 -20 114 -37 122 -38 9 -1 28 -10 43 -21 l27 -20 -22 -70
c-11 -38 -24 -73 -27 -78 -6 -6 -316 104 -328 117 -7 7 59 146 69 146 6 0 58
-16 116 -36z m458 23 c6 -7 114 -198 114 -202 0 -12 -103 -56 -111 -48 -10 10
-89 238 -89 256 0 8 78 3 86 -6z m1029 -44 c9 -32 22 -80 30 -106 l13 -48 -66
3 -67 3 -22 65 c-12 36 -24 82 -28 103 l-7 37 66 0 65 0 16 -57z m74 -30 c20
-72 31 -94 61 -124 35 -33 44 -36 115 -42 43 -4 111 -7 152 -7 66 0 73 -2 73
-20 0 -19 -7 -20 -150 -20 -215 0 -242 15 -283 160 -41 144 -41 140 -14 140
20 0 25 -10 46 -87z m-229 35 c6 -24 17 -65 25 -93 8 -27 12 -51 10 -53 -2 -2
-132 -1 -289 3 l-285 8 -16 33 c-28 60 -46 117 -37 126 4 4 84 9 177 11 94 1
223 4 287 5 l117 2 11 -42z m-627 -40 c46 -129 49 -118 -31 -118 -81 0 -87 5
-150 118 l-41 72 98 0 99 0 25 -72z m2282 -28 c17 -10 67 -54 112 -97 l83 -78
-35 -244 c-33 -233 -36 -246 -63 -275 -33 -35 -62 -77 -62 -88 0 -5 16 10 36
32 20 22 39 39 41 36 3 -2 -1 -47 -8 -99 l-12 -95 -114 85 c-62 47 -113 92
-113 101 0 32 71 561 85 635 16 82 18 103 11 96 -8 -7 -63 -339 -92 -544 -14
-104 -27 -194 -27 -199 -1 -4 52 -49 118 -100 96 -72 121 -97 123 -119 2 -15
0 -27 -5 -27 -4 0 -78 53 -163 117 l-155 116 -124 -12 c-68 -7 -171 -21 -230
-31 -58 -11 -109 -20 -113 -20 -5 0 -8 13 -8 28 l0 29 153 27 c83 15 197 32
252 39 l100 12 47 340 c25 187 47 341 47 342 1 1 9 4 19 6 38 10 68 6 97 -13z
m-140 -32 c-3 -18 -23 -165 -45 -327 -21 -161 -41 -295 -43 -297 -2 -2 -55
-10 -118 -19 -63 -8 -163 -24 -223 -35 -157 -29 -149 -30 -144 34 4 44 11 62
38 93 18 21 42 43 54 49 31 17 201 54 247 54 45 0 58 -15 85 -102 10 -32 21
-58 25 -58 10 0 -16 92 -39 140 -15 31 -22 35 -59 38 -22 2 -92 -8 -154 -22
-101 -23 -117 -30 -152 -63 l-39 -38 6 75 c3 41 8 137 12 213 l6 137 127 40
c69 22 140 42 158 46 l32 6 -6 -38 c-11 -77 -19 -83 -141 -123 -99 -32 -114
-35 -127 -22 -18 18 -20 1 -2 -22 11 -15 23 -12 132 24 66 22 126 47 132 56 7
9 16 38 19 65 4 26 12 54 18 63 9 11 161 61 199 64 4 1 5 -14 2 -31z m-3175
-188 l0 -49 43 -12 c90 -24 234 -72 271 -91 39 -20 158 -113 164 -129 3 -6
-54 -95 -130 -203 -3 -5 -33 15 -65 45 -121 112 -246 136 -414 79 -51 -17 -93
-29 -94 -28 -4 5 182 408 196 424 21 25 29 15 29 -36z m182 9 c166 -48 244
-81 328 -140 l60 -42 -20 -26 c-53 -70 -44 -67 -98 -27 -71 52 -74 57 -63 105
10 46 0 47 -18 2 l-12 -28 -77 28 c-42 16 -119 41 -169 55 l-93 27 0 43 c0 24
4 44 9 44 5 0 74 -18 153 -41z m1477 -16 c7 -15 17 -287 12 -345 -1 -16 -13
-18 -109 -18 -60 0 -164 3 -230 7 l-122 6 0 178 0 179 213 3 c116 1 215 3 219
5 4 1 11 -6 17 -15z m-469 -169 l0 -115 -32 3 -33 3 -3 99 c-1 55 0 106 2 113
3 7 19 13 36 13 l30 0 0 -116z m872 39 c2 -70 2 -72 5 -20 l4 57 36 0 36 0 -7
-57 c-4 -31 -9 -69 -11 -83 -5 -23 -4 -22 9 5 9 17 15 51 16 78 l0 47 45 0
c66 0 55 20 -12 21 -108 2 -125 17 -21 18 53 0 103 -2 112 -5 13 -5 16 -25 16
-115 l0 -109 -135 0 -135 0 0 114 c0 111 3 122 33 125 4 1 8 -34 9 -76z m-258
32 c20 -19 41 -35 46 -35 6 0 10 -40 10 -95 l0 -95 -42 0 c-24 0 -60 -3 -80
-6 l-38 -7 0 137 0 136 34 0 c26 0 43 -9 70 -35z m-1102 -130 l36 -7 -96 -131
c-52 -73 -133 -185 -180 -250 l-84 -118 -38 78 c-22 44 -63 105 -94 140 -31
33 -56 65 -56 70 0 5 6 18 14 28 13 18 17 15 76 -41 34 -32 81 -90 103 -128
23 -38 43 -64 45 -58 3 11 -36 93 -61 126 -13 17 -4 33 102 181 l116 163 40
-23 c22 -13 56 -27 77 -30z m-567 -131 l65 -26 -15 -29 c-17 -32 -32 -34 -85
-15 -38 14 -75 4 -284 -78 -50 -20 -92 -34 -94 -31 -9 8 10 24 54 44 54 26 54
39 -1 17 -40 -17 -38 -21 -20 40 7 25 73 56 178 84 97 25 126 24 202 -6z m921
-39 c-6 -16 6 -21 66 -30 56 -8 70 -17 62 -38 -7 -19 -16 -20 -64 -8 -19 6
-54 15 -77 21 l-42 10 22 34 c21 32 44 39 33 11z m1202 -38 c13 -13 27 -38 32
-55 8 -31 8 -32 -21 -32 -17 0 -39 5 -49 10 -16 9 -20 7 -25 -12 -2 -13 -1
-48 4 -78 l9 -55 1 61 1 61 44 -1 43 -1 17 -175 c9 -96 19 -209 22 -251 l7
-76 -48 -17 c-27 -9 -49 -15 -51 -13 -1 1 -9 69 -19 152 -9 82 -18 152 -21
154 -7 8 -4 -75 7 -181 16 -155 14 -151 52 -143 18 4 45 14 60 22 l28 14 -3
-38 c-3 -32 -9 -41 -43 -59 -75 -40 -81 -40 -98 8 -14 39 -47 322 -63 544 -7
90 1 125 38 172 16 19 53 14 76 -11z m-140 -37 c-19 -55 25 -568 57 -662 7
-21 10 -38 6 -38 -25 1 -32 33 -56 250 -33 307 -30 293 -65 318 l-29 22 -116
-20 c-65 -11 -121 -20 -127 -20 -5 0 1 19 14 41 27 49 49 60 177 84 64 12 102
25 120 41 14 12 27 21 29 20 1 -2 -3 -18 -10 -36z m-1998 15 l25 -15 -26 6
c-28 6 -215 -58 -350 -119 l-76 -35 5 24 c6 30 13 34 186 100 148 55 195 63
236 39z m943 -27 c52 -12 91 -26 94 -34 3 -8 -13 -79 -36 -157 -70 -236 -71
-239 -89 -232 -9 3 -63 13 -121 22 -58 9 -107 17 -109 18 -3 3 87 355 100 388
12 31 1 32 161 -5z m597 22 c0 -22 -30 -82 -61 -120 l-32 -40 -138 0 c-157 0
-149 -6 -149 108 l0 62 190 0 c124 0 190 -4 190 -10z m-467 -109 c2 -10 -15
-103 -38 -205 l-42 -186 19 -38 c19 -40 78 -104 78 -85 0 5 -9 18 -20 28 -12
10 -30 34 -41 52 l-21 33 27 117 c15 65 29 126 31 135 6 21 34 12 34 -11 1
-29 36 -96 68 -128 18 -17 32 -35 32 -40 0 -4 -14 -56 -32 -115 -36 -123 -36
-123 -118 -80 -48 24 -55 33 -76 86 -13 33 -24 67 -24 75 0 26 103 381 110
381 4 0 10 -9 13 -19z m861 -53 c23 -22 26 -36 51 -276 15 -140 24 -259 22
-266 -3 -8 -32 -16 -69 -20 -34 -4 -101 -14 -147 -22 -46 -8 -86 -13 -88 -10
-6 6 -50 362 -57 466 -4 47 -3 90 1 97 7 10 184 49 240 52 12 0 33 -9 47 -21z
m-473 -110 c24 -35 46 -66 47 -70 2 -5 -37 -8 -86 -8 -72 0 -92 3 -104 18 -18
20 -68 106 -68 115 0 4 37 7 83 7 l83 0 45 -62z m109 -61 c0 -5 -10 -7 -22 -5
-24 3 -102 98 -90 110 4 3 21 8 37 10 28 3 32 -1 52 -52 13 -30 23 -59 23 -63z
m-1780 14 c0 -36 -3 -40 -40 -55 -56 -22 -60 -21 -60 23 0 37 2 40 43 54 58
21 57 22 57 -22z m339 11 c8 -16 4 -22 -26 -36 -29 -14 -38 -15 -44 -4 -15 23
-10 36 19 46 38 14 40 14 51 -6z m2372 -17 l29 -16 -21 -28 c-19 -26 -24 -28
-55 -18 -38 12 -41 22 -18 55 18 26 26 27 65 7z m317 -50 c4 -3 -42 -123 -64
-171 -14 -29 -33 -43 -105 -80 -49 -24 -93 -44 -99 -44 -21 0 -9 42 19 68 28
25 48 79 75 204 3 14 14 28 24 30 16 4 144 -2 150 -7z m-2838 -45 c0 -16 3
-30 8 -30 4 0 27 -18 52 -40 l45 -40 -24 -20 c-32 -28 -43 -26 -97 21 -25 22
-52 38 -60 35 -15 -6 -31 71 -18 84 10 9 40 17 72 19 18 1 22 -4 22 -29z
m1634 -7 c3 -21 10 -76 16 -123 16 -137 28 -199 44 -232 12 -24 13 -40 6 -75
-12 -50 -9 -75 27 -217 22 -90 23 -102 10 -135 -8 -20 -22 -68 -32 -108 -15
-64 -15 -74 -2 -93 13 -19 10 -30 -50 -140 -36 -66 -69 -122 -73 -125 -5 -3
-46 -2 -92 1 l-83 7 -39 127 c-22 73 -36 136 -32 147 4 12 -1 29 -12 44 -19
24 -19 27 34 284 30 143 54 268 54 277 0 9 -11 30 -25 46 l-25 30 50 156 c57
173 47 162 157 165 l61 1 6 -37z m1220 -72 c-16 -45 -32 -81 -36 -81 -25 0
-17 42 24 139 14 32 22 41 30 33 8 -8 3 -33 -18 -91z m-3068 14 c7 -33 10 -63
8 -66 -2 -4 -17 -12 -33 -17 l-28 -10 -12 71 c-13 76 -7 90 34 85 15 -2 22
-16 31 -63z m989 20 c137 -25 157 -36 171 -91 9 -34 -5 -131 -20 -143 -8 -7
-40 -6 -101 4 -50 7 -116 16 -148 20 -39 4 -60 12 -66 24 -14 25 10 211 27
211 4 0 65 -11 137 -25z m2150 -79 c-15 -36 -34 -66 -42 -66 -18 0 -17 4 19
82 42 91 62 77 23 -16z m-1609 -78 c16 -19 18 -30 11 -51 -5 -16 -16 -27 -27
-27 -36 0 -120 24 -120 34 0 6 12 53 27 105 l27 96 31 -67 c17 -37 40 -78 51
-90z m1691 80 c-28 -67 -54 -111 -60 -101 -8 13 49 133 63 133 6 0 5 -12 -3
-32z m60 -10 c-2 -7 -13 -39 -23 -70 -10 -32 -24 -58 -31 -58 -17 0 -16 9 3
56 9 22 20 49 25 62 5 12 14 22 20 22 6 0 9 -6 6 -12z m-757 -120 c0 -7 -29
-46 -65 -87 -66 -75 -111 -172 -95 -202 8 -14 60 -239 60 -259 0 -6 -70 -10
-204 -10 l-205 0 -11 58 c-7 31 -19 84 -27 117 -9 33 -18 87 -20 120 l-5 61
169 23 168 23 95 63 c52 34 104 72 114 84 22 24 26 26 26 9z m-1100 -67 c117
-28 156 -42 158 -54 4 -22 -14 -22 -118 4 -170 41 -167 41 -189 3 -11 -18 -42
-49 -70 -70 -50 -38 -64 -61 -18 -31 l24 16 48 -177 c68 -252 71 -302 11 -212
-33 50 -40 53 -194 75 -67 10 -126 23 -131 29 -4 6 -28 70 -52 141 -32 95 -51
137 -72 158 -28 26 -29 30 -22 82 6 52 8 55 35 55 16 0 33 -7 38 -15 6 -11 47
-22 137 -35 142 -22 133 -24 205 39 19 16 40 30 45 30 6 0 80 -17 165 -38z
m1156 -191 c5 -39 2 -52 -23 -92 -15 -26 -31 -48 -34 -48 -4 0 -12 26 -19 58
-11 52 -10 66 9 129 23 78 24 83 13 83 -4 0 -16 -27 -26 -60 l-19 -60 -19 56
c-20 60 -20 59 31 122 l36 43 22 -93 c12 -51 25 -113 29 -138z m-1172 56 c-29
-150 -78 -346 -84 -334 -4 7 -26 86 -50 175 l-43 162 26 30 c14 17 28 39 32
50 5 17 9 17 69 3 l63 -15 -13 -71z m115 44 l43 -11 -6 -50 c-9 -64 -92 -459
-99 -465 -10 -11 -113 -15 -127 -5 -12 8 -8 38 33 213 26 112 52 228 58 258
15 78 17 82 36 76 10 -3 38 -10 62 -16z m925 -47 c9 -27 27 -97 41 -158 14
-60 40 -161 57 -223 17 -62 28 -116 24 -119 -9 -10 -41 23 -83 86 -34 50 -43
79 -72 213 -34 155 -34 155 -16 201 10 26 21 47 26 47 4 0 14 -21 23 -47z
m170 -209 l19 -86 -24 -73 c-13 -41 -27 -68 -30 -62 -4 7 -18 54 -32 105 l-26
92 32 55 c17 30 34 55 37 55 3 0 14 -39 24 -86z m-1559 -134 c77 -12 148 -23
158 -26 10 -3 34 -29 53 -58 34 -51 35 -55 28 -120 -8 -78 10 -94 21 -17 l7
49 86 4 c48 2 89 3 90 2 10 -7 -22 -77 -46 -102 -21 -22 -39 -30 -82 -35 -92
-11 -108 -2 -166 93 l-51 85 -99 16 c-54 9 -121 20 -147 23 -27 4 -50 13 -53
20 -8 21 25 86 44 86 9 0 80 -9 157 -20z m1187 -50 c177 0 179 0 189 -23 6
-14 7 -36 2 -56 l-8 -32 -240 0 -240 1 3 22 c1 13 7 40 13 62 l10 39 46 -7
c25 -3 126 -6 225 -6z m281 -116 c35 -41 57 -75 57 -90 0 -13 5 -24 11 -24 8
0 10 15 5 49 -10 77 14 107 48 59 24 -34 20 -72 -13 -107 -37 -40 -58 -39 -79
2 -9 17 -36 51 -59 74 -32 31 -43 51 -43 73 0 16 4 30 8 30 5 0 34 -30 65 -66z
m-1563 -20 c85 -9 158 -19 162 -23 4 -3 -7 -23 -25 -44 l-32 -39 -150 17
c-216 23 -202 18 -163 65 18 22 38 40 43 40 6 0 80 -7 165 -16z m200 -54 c9
-16 8 -18 -5 -14 -10 4 -15 0 -15 -14 0 -25 -18 -38 -32 -24 -6 6 -4 20 6 41
19 36 31 39 46 11z m1306 -11 c5 -5 21 -31 34 -59 13 -27 31 -52 41 -55 27 -9
105 29 125 61 l18 27 18 -84 c26 -126 27 -123 -37 -143 -30 -9 -59 -15 -64
-11 -5 3 -11 1 -13 -5 -1 -5 -24 -16 -50 -24 -42 -12 -47 -12 -53 3 -51 124
-73 200 -62 212 10 11 9 11 -4 1 -13 -10 -68 -10 -255 -2 -131 6 -240 13 -242
15 -5 4 28 57 45 71 16 13 482 7 499 -7z m-1611 -47 c83 -10 150 -21 150 -27
0 -5 -27 -63 -60 -127 -43 -85 -64 -117 -75 -113 -8 2 -98 14 -200 25 -102 12
-191 23 -198 26 -17 5 -2 29 91 148 78 100 53 94 292 68z m262 -45 c16 -16 96
-167 91 -172 -2 -2 -60 -13 -128 -24 -69 -12 -135 -24 -148 -26 -20 -5 -16 6
40 120 l63 126 35 -6 c19 -4 40 -12 47 -18z m112 -1 c17 -15 35 -18 95 -17
l74 2 4 -46 c3 -44 2 -46 -35 -64 -24 -12 -33 -21 -25 -25 7 -3 1 -4 -15 -2
-15 2 -30 -1 -33 -5 -10 -17 -53 -9 -64 11 -6 11 -7 20 -3 20 4 0 3 4 -4 8 -6
4 -13 14 -15 22 -2 8 -9 21 -16 28 -7 8 -10 18 -7 23 4 5 1 9 -5 9 -6 0 -8 5
-5 10 3 6 2 10 -2 10 -5 0 -13 8 -19 18 -10 15 -7 17 21 17 18 0 42 -8 54 -19z
m1147 -26 c18 -7 42 -55 89 -181 5 -14 -7 -21 -60 -39 -36 -12 -72 -19 -80
-16 -7 2 -15 0 -17 -5 -2 -7 -83 -5 -243 5 -132 9 -250 16 -262 16 -22 0 -22
1 8 68 17 37 44 91 61 121 l31 53 226 -7 c124 -4 235 -11 247 -15z m-959 -116
c-3 -3 -12 -4 -19 -1 -8 3 -5 6 6 6 11 1 17 -2 13 -5z"/>
<path d="M3814 3700 c3 -25 23 -102 45 -171 38 -119 69 -179 92 -179 6 0 1 12
-11 27 -11 14 -43 99 -71 187 -61 194 -60 192 -55 136z"/>
<path d="M1390 3482 c-29 -92 -59 -173 -66 -181 -11 -12 -40 -7 -194 36 -99
28 -183 47 -185 42 -6 -8 16 -15 238 -75 119 -32 140 -35 151 -23 14 15 121
357 114 364 -2 3 -28 -71 -58 -163z"/>
<path d="M4265 2850 c-8 -13 -29 -179 -59 -460 -22 -204 -24 -242 -12 -229 2
2 18 132 36 289 17 157 35 313 39 348 7 63 7 70 -4 52z"/>
<path d="M4365 2751 c33 -33 64 -61 69 -61 13 0 -83 98 -109 112 -11 6 7 -17
40 -51z"/>
<path d="M2190 756 c0 -12 10 -16 44 -16 25 0 48 5 51 10 4 6 -8 10 -29 10
-19 0 -41 3 -50 6 -11 4 -16 1 -16 -10z"/>
<path d="M3295 719 c-4 -6 -5 -12 -2 -15 2 -3 7 2 10 11 7 17 1 20 -8 4z"/>
</g>
</svg>