<?xml version="1.0" standalone="no"?>
<!DOCTYPE svg PUBLIC "-//W3C//DTD SVG 20010904//EN"
 "http://www.w3.org/TR/2001/REC-SVG-20010904/DTD/svg10.dtd">
<svg version="1.0" xmlns="http://www.w3.org/2000/svg"
 width="512.000000pt" height="512.000000pt" viewBox="0 0 512.000000 512.000000"
 preserveAspectRatio="xMidYMid meet">
<metadata>
Created by potrace 1.16, written by Peter Selinger 2001-2019
</metadata>
<g transform="translate(0.000000,512.000000) scale(0.100000,-0.100000)"
fill="#4A90E2" stroke="none">
<path d="M425 4963 c-4 -87 -10 -198 -14 -248 l-6 -90 -35 -3 c-19 -2 -59 -1
-88 3 l-54 7 3 110 c3 90 1 113 -11 119 -21 12 -220 37 -220 28 0 -9 28 -15
134 -29 44 -6 81 -11 82 -13 5 -5 -12 -226 -18 -232 -4 -4 -19 -4 -33 -1 -26
7 -27 9 -23 66 3 67 10 61 -95 75 l-47 6 0 -75 0 -76 28 0 c15 0 90 -9 167
-20 162 -23 238 -25 253 -7 9 11 20 145 37 435 l6 102 -29 0 -30 0 -7 -157z
m32 100 c-3 -10 -5 -2 -5 17 0 19 2 27 5 18 2 -10 2 -26 0 -35z m-10 -145 c-3
-8 -6 -5 -6 6 -1 11 2 17 5 13 3 -3 4 -12 1 -19z m-10 -175 c-3 -10 -5 -4 -5
12 0 17 2 24 5 18 2 -7 2 -21 0 -30z m4 -127 c5 3 9 0 9 -5 0 -6 -7 -11 -15
-11 -8 0 -15 8 -14 18 0 10 3 12 6 4 2 -6 9 -10 14 -6z"/>
<path d="M555 5033 c-4 -53 -16 -115 -31 -157 -19 -52 -25 -91 -26 -160 -1
-51 2 -97 5 -103 4 -6 29 -16 55 -22 86 -18 102 -27 102 -60 0 -27 -3 -29 -52
-35 -66 -9 -128 -59 -128 -105 0 -36 -15 -49 -65 -53 -32 -2 -40 -7 -40 -23 0
-27 -23 -29 -146 -11 -171 25 -229 29 -229 19 0 -6 50 -16 111 -23 61 -7 125
-16 142 -20 30 -6 30 -7 12 -17 -15 -8 -46 -7 -115 3 -52 7 -107 13 -122 14
l-28 0 0 -140 0 -140 34 0 c27 0 43 9 71 38 l37 37 -7 -105 c-4 -58 -8 -105
-8 -106 -1 -1 -29 2 -62 6 -33 4 -62 6 -64 4 -14 -12 23 -23 113 -34 57 -7
109 -16 116 -20 11 -7 9 -78 -16 -603 l-7 -138 -46 5 c-138 17 -161 18 -161 8
0 -5 26 -13 57 -16 32 -4 79 -9 106 -12 l47 -6 0 -50 0 -50 -105 7 -105 7 0
-80 0 -80 134 -12 c74 -7 139 -16 145 -19 7 -4 8 -67 4 -185 l-6 -178 -91 6
c-50 4 -112 9 -139 12 l-47 6 0 -35 c0 -39 3 -41 83 -52 l48 -6 -3 -97 -3 -97
-63 2 -62 1 0 -144 c0 -89 4 -144 10 -144 6 0 10 -45 10 -115 0 -70 -4 -115
-10 -115 -5 0 -10 -7 -10 -15 0 -18 26 -20 33 -2 2 6 2 65 -1 130 l-5 118 59
-7 c32 -4 63 -10 68 -14 4 -5 5 -69 1 -144 l-7 -136 -74 0 -74 0 0 -129 c0
-124 1 -130 21 -136 21 -7 21 -12 16 -93 -4 -64 -9 -87 -21 -94 -13 -7 -16
-28 -16 -117 l0 -107 48 -13 49 -12 66 -137 c37 -75 67 -142 67 -149 0 -7 -17
-24 -38 -39 -56 -41 -60 -46 -29 -35 26 10 27 9 17 -9 -6 -11 -13 -20 -16 -20
-3 0 -3 4 0 9 3 5 -6 9 -19 9 -14 0 -28 -4 -31 -9 -3 -5 -10 -9 -15 -9 -6 0
-7 4 -4 10 4 6 -2 7 -17 1 -13 -4 -35 -5 -50 0 l-28 8 1 -59 2 -58 70 29 70
29 149 -51 c81 -29 148 -55 148 -58 0 -7 -197 -121 -209 -121 -4 0 -57 22
-119 50 -62 27 -112 45 -112 41 0 -5 50 -31 111 -59 l112 -51 4 -50 4 -50 -83
-38 c-69 -33 -85 -37 -96 -26 -21 20 -52 16 -52 -6 0 -35 72 -26 186 24 l101
45 70 -20 c39 -11 96 -29 127 -41 31 -11 62 -19 69 -16 6 2 -44 22 -111 44
-68 23 -120 43 -115 46 27 17 167 67 186 67 21 0 326 -102 350 -117 5 -3 -8
-15 -29 -26 -21 -11 -34 -22 -27 -24 6 -2 24 2 40 10 24 13 29 13 39 -2 18
-23 29 -6 18 27 -8 22 -24 32 -94 57 l-85 30 -3 54 c-2 30 1 58 6 63 8 8 84
-16 308 -98 37 -13 43 -20 48 -52 4 -20 9 -49 12 -64 l5 -27 274 -1 274 0 -13
42 c-25 82 -24 98 7 98 12 0 114 -32 226 -70 l204 -70 140 0 c118 0 143 3 159
17 18 16 18 16 12 0 -4 -12 -1 -17 10 -17 19 0 41 45 58 121 10 45 14 50 35
46 12 -2 20 -1 18 3 -3 4 34 15 82 23 83 16 88 16 131 -3 25 -11 43 -22 41
-24 -2 -3 -38 -16 -79 -29 l-74 -26 -43 26 c-24 14 -43 23 -43 20 0 -3 18 -16
39 -28 37 -20 40 -26 47 -76 8 -68 27 -70 22 -1 l-3 51 67 23 66 22 7 -36 c3
-21 11 -54 16 -75 l10 -38 217 3 c119 2 226 7 237 12 16 6 17 6 5 -3 -12 -9
-9 -11 16 -11 31 0 31 1 37 61 3 34 9 65 14 70 11 11 213 52 220 45 4 -3 -2
-6 -13 -6 -20 -1 -46 -30 -58 -65 -3 -11 -26 -33 -51 -50 -69 -46 -60 -55 50
-55 l95 0 -16 25 c-15 23 -15 25 8 34 20 9 429 81 456 81 6 0 37 -31 68 -70
l58 -70 63 0 c48 0 61 3 57 13 -4 11 23 20 108 36 62 13 161 34 220 48 59 14
114 23 122 20 8 -3 22 -31 32 -61 l18 -56 107 0 108 0 3 57 3 57 69 20 c38 12
71 26 73 33 3 7 -26 3 -77 -13 l-82 -25 -47 33 c-26 18 -95 67 -154 108 -58
41 -106 78 -107 81 0 4 35 10 78 13 42 4 114 13 160 20 77 11 82 11 76 -6 -5
-16 1 -18 46 -18 28 0 64 -7 80 -15 l30 -16 0 91 0 90 -85 55 c-47 30 -85 62
-85 70 0 8 23 66 51 129 l52 115 28 -14 c43 -23 47 -18 9 10 -26 19 -30 25
-17 30 10 3 24 7 32 10 12 3 15 26 15 119 0 105 -1 114 -20 119 -18 5 -20 14
-20 91 0 79 2 86 20 86 18 0 20 7 20 85 l0 85 -40 0 -40 0 0 54 c0 72 18 82
23 14 l3 -53 2 58 c2 54 3 57 27 57 22 0 25 4 25 34 0 19 -5 36 -12 38 -7 3
-53 -1 -102 -8 -50 -8 -106 -13 -123 -14 l-33 0 0 108 0 109 120 11 c67 6 127
9 135 5 10 -3 15 1 15 12 0 16 -10 17 -117 11 -65 -4 -125 -9 -134 -12 -21 -6
-29 23 -27 96 1 35 3 43 5 23 5 -39 28 -54 81 -53 73 1 154 -10 169 -25 8 -8
16 -15 19 -15 2 0 4 49 4 109 0 96 -2 110 -17 114 -17 4 -17 5 0 6 14 1 17 11
17 54 0 54 0 54 -29 49 -27 -4 -30 -1 -35 29 -3 19 -7 109 -9 200 l-5 167 25
11 c13 6 30 11 38 11 12 0 15 22 15 119 0 133 1 130 -73 132 -81 1 -83 14 -8
33 67 17 90 30 78 43 -5 4 -153 -35 -199 -52 -13 -5 -16 28 -22 252 -3 142 -9
304 -12 360 l-6 102 121 60 121 61 0 204 c0 126 -4 207 -10 211 -14 9 -12 45
3 46 6 1 -4 4 -23 8 l-35 6 -6 85 c-4 47 -10 207 -14 355 l-7 270 46 45 c25
24 46 52 46 62 0 24 -5 23 -45 -8 l-34 -26 -90 26 c-49 14 -92 26 -95 26 -3 0
-3 -56 1 -125 5 -110 4 -125 -10 -125 -18 0 -267 57 -272 62 -1 2 -7 46 -13
98 l-11 95 4 -103 3 -103 -61 -46 -62 -45 -3 53 c-4 72 4 113 28 134 12 11 20
31 20 51 0 21 6 37 18 43 12 7 -47 10 -197 11 l-214 0 7 -135 c5 -94 4 -140
-3 -149 -12 -14 -72 -5 -268 39 l-71 16 -6 82 c-11 149 -13 153 -14 31 -2
-138 6 -124 -121 -214 l-73 -52 4 70 c3 66 6 73 45 115 22 24 44 59 48 78 4
19 15 43 25 54 10 11 21 30 25 43 l6 22 -220 0 -221 0 0 -24 c0 -22 6 -26 44
-31 l44 -7 7 -65 c4 -35 4 -67 0 -71 -3 -4 -54 -5 -113 -4 -78 2 -110 7 -118
18 -6 7 -14 51 -18 96 -4 45 -9 84 -11 87 -14 13 -15 -15 -4 -99 8 -63 9 -94
2 -99 -6 -3 -24 -35 -39 -70 l-29 -63 3 166 4 166 -635 0 -635 0 -6 -62 c-7
-90 -7 -90 -23 -77 -7 6 -13 19 -13 28 0 14 2 14 10 1 12 -18 14 51 2 90 -6
22 -8 19 -13 -20 l-6 -45 -1 43 -2 42 -85 0 -85 0 17 -34 c14 -31 14 -50 1
-222 l-15 -189 -25 55 c-26 54 -26 58 -18 175 11 159 12 215 1 215 -4 0 -11
-68 -15 -152 -4 -83 -9 -155 -12 -160 -7 -12 -368 -10 -399 2 -29 11 -29 -1
-9 243 l5 68 -43 -3 c-42 -3 -43 -4 -46 -41 -4 -52 -28 -43 -25 9 2 31 0 35
-8 22 -12 -22 -31 -24 -23 -3 4 8 2 15 -4 15 -6 0 -12 -5 -14 -12 -3 -9 -27
-9 -109 0 -57 7 -132 12 -166 12 l-61 0 -7 -87z m2003 -63 c1 -47 -2 -91 -7
-99 -7 -10 -27 -11 -95 -6 l-86 7 0 48 c0 26 3 68 6 94 l7 47 86 -3 86 -3 3
-85z m32 -16 c0 -61 -4 -93 -10 -89 -5 3 -10 46 -10 96 0 53 4 89 10 89 6 0
10 -39 10 -96z m-1637 57 c3 -14 1 -18 -9 -14 -8 3 -14 14 -14 25 0 23 16 16
23 -11z m-110 12 c37 -3 67 -10 67 -16 0 -13 -180 -1 -194 13 -12 12 27 13
127 3z m-13 -101 l35 -8 12 -89 c6 -49 14 -103 17 -121 l6 -31 -137 23 c-76
13 -153 26 -170 29 l-33 6 0 98 c0 54 3 101 8 105 8 9 206 -1 262 -12z m2295
-21 c-20 -4 -30 -12 -29 -24 1 -9 -4 -17 -12 -17 -17 0 -17 5 -4 31 8 13 20
19 43 18 l32 -1 -30 -7z m1133 -47 c8 -2 12 -27 12 -78 0 -85 7 -78 -94 -91
-43 -6 -48 -5 -42 10 3 9 6 38 6 63 l1 47 34 -37 c19 -21 35 -34 35 -30 0 4
-18 26 -40 47 -37 36 -49 63 -34 78 6 6 96 -1 122 -9z m-2370 -56 c3 -41 0
-48 -15 -48 -10 0 -35 -3 -55 -6 l-38 -7 0 57 0 57 53 -3 52 -3 3 -47z m-548
-28 c0 -5 -4 -10 -10 -10 -5 0 -10 5 -10 10 0 6 5 10 10 10 6 0 10 -4 10 -10z
m124 -2 c-3 -4 -1 -8 3 -8 5 0 14 -13 20 -30 l11 -30 -71 2 c-62 1 -65 2 -20
5 78 6 83 52 5 55 -22 1 -47 5 -54 10 -8 5 12 8 49 7 34 -1 60 -6 57 -11z
m526 -128 c0 -49 -3 -90 -7 -90 -11 0 -132 -19 -165 -26 l-28 -6 0 97 c0 113
0 113 123 114 l77 1 0 -90z m2730 61 c102 -20 98 -12 99 -203 l1 -137 -27 4
c-16 2 -68 9 -118 15 -49 6 -91 13 -92 14 -5 5 -19 321 -15 330 2 4 19 5 36 1
17 -4 69 -14 116 -24z m-784 -7 c45 -3 86 -9 92 -13 6 -4 11 -59 13 -136 l2
-130 -59 2 c-32 2 -82 5 -110 9 -50 5 -52 6 -58 42 -3 20 -6 84 -6 141 0 102
0 103 23 98 12 -3 59 -9 103 -13z m-2749 0 c-3 -3 -12 -4 -19 -1 -8 3 -5 6 6
6 11 1 17 -2 13 -5z m3366 -102 c4 -83 3 -101 -7 -93 -7 6 -16 8 -19 4 -6 -6
-11 20 -8 40 0 4 -7 15 -16 25 -20 19 -63 18 -63 -3 0 -25 -28 -25 -33 1 -3
20 7 32 67 78 39 29 72 53 72 52 1 0 4 -47 7 -104z m-2513 16 c0 -36 -4 -48
-15 -48 -12 0 -15 14 -15 68 1 61 2 65 15 48 9 -11 15 -41 15 -68z m1761 -96
c3 -100 -6 -121 -58 -137 -27 -8 -30 2 -37 139 l-5 100 42 37 42 37 6 -42 c4
-22 8 -83 10 -134z m-903 -19 c3 -136 9 -126 -80 -138 l-46 -6 -9 63 -8 63
-43 -2 c-48 -2 -56 12 -50 83 l3 39 85 11 c47 7 99 11 115 10 l30 -1 3 -122z
m62 -74 c5 -68 10 -155 10 -192 0 -41 4 -66 10 -62 5 3 7 18 5 33 -2 15 -6 95
-9 177 l-5 150 22 -29 c12 -16 63 -76 113 -134 l91 -105 6 -141 c4 -77 14
-260 23 -405 l17 -263 -44 -38 -44 -38 -7 87 c-4 47 -9 103 -12 124 l-4 38 25
-16 c24 -16 24 -16 9 7 -8 13 -30 32 -47 42 -30 17 -32 18 -26 2 4 -10 7 -22
7 -27 0 -6 4 -8 9 -5 10 7 27 -261 17 -272 -4 -3 -16 0 -27 7 -12 7 -23 10
-26 7 -3 -3 6 -11 21 -17 23 -11 26 -18 26 -58 0 -68 -9 -77 -56 -59 l-39 16
-7 173 c-19 484 -26 694 -22 698 16 17 24 -49 38 -308 8 -161 18 -296 21 -300
7 -6 1 166 -15 452 -8 155 -15 177 -56 177 -34 0 -44 28 -44 127 0 49 -4 93
-10 99 -5 5 -12 61 -15 124 l-7 115 21 -31 c17 -25 23 -57 31 -155z m-320 117
l0 -53 -227 -32 c-157 -21 -229 -28 -233 -20 -11 17 -208 -10 -215 -30 -2 -9
-1 -45 4 -81 l8 -65 2 71 1 71 91 12 c61 8 95 8 103 2 9 -7 80 -1 227 18 118
16 243 29 279 28 l65 -2 3 -64 3 -64 42 6 c23 3 60 9 83 13 l41 6 6 -62 c4
-35 7 -78 7 -96 0 -21 8 -42 21 -55 20 -20 21 -37 30 -272 4 -139 8 -273 9
-299 l0 -48 -59 0 c-33 0 -62 4 -66 10 -3 5 -8 96 -11 202 -3 106 -6 193 -7
194 -1 1 -78 -5 -170 -14 -188 -17 -187 -17 -187 47 l0 34 -82 -7 c-123 -11
-126 -12 -130 -54 l-3 -37 -155 -15 -155 -15 -3 -56 c-2 -38 2 -61 11 -70 9
-10 16 -52 20 -131 l6 -117 -27 -3 -27 -3 0 -95 0 -95 -36 -3 -36 -3 -7 78
c-3 43 -17 276 -31 518 -13 242 -27 473 -31 512 -5 69 -5 73 18 82 20 8 187
32 668 95 163 21 150 25 150 -38z m-1914 -208 c-9 -224 -15 -262 -40 -266 -17
-4 -18 3 -11 126 6 109 5 134 -9 161 -9 17 -20 31 -24 31 -14 0 -83 70 -78 79
3 4 34 14 68 21 35 7 67 17 73 21 25 23 28 2 21 -173z m243 136 l164 -28 -7
-115 c-4 -64 -9 -147 -13 -184 -6 -68 -6 -68 -32 -62 l-26 6 30 -25 c24 -20
28 -27 18 -37 -10 -10 -38 -9 -145 5 -73 10 -155 22 -182 28 l-49 10 6 57 c4
31 9 130 13 219 l7 164 26 -5 c14 -3 100 -18 190 -33z m2531 19 c4 -4 6 -32 3
-60 l-6 -53 -62 0 -63 0 -4 55 c-1 30 -1 60 1 66 4 13 118 6 131 -8z m-150
-53 c0 -33 -4 -60 -8 -60 -5 0 -8 10 -6 23 1 12 3 39 3 60 2 61 11 42 11 -23z
m-269 33 c13 -16 12 -17 -3 -4 -17 13 -22 21 -14 21 2 0 10 -8 17 -17z m446
-65 c-2 -18 -4 -6 -4 27 0 33 2 48 4 33 2 -15 2 -42 0 -60z m903 47 c0 -8 -4
-17 -10 -20 -6 -4 -10 5 -10 20 0 15 4 24 10 20 6 -3 10 -12 10 -20z m126 -43
c-12 -12 -18 8 -10 35 l8 28 4 -28 c2 -16 1 -31 -2 -35z m462 -44 c-3 -85 -6
-103 -19 -106 -13 -2 -17 12 -23 90 -6 81 -5 94 10 105 10 7 22 13 26 13 5 0
7 -46 6 -102z m-1888 51 c0 -6 7 -8 16 -5 9 3 12 2 9 -5 -4 -6 1 -9 11 -7 11
2 18 -2 17 -9 -2 -7 4 -10 12 -7 9 4 22 1 30 -6 8 -7 36 -14 63 -15 85 -6 79
-4 62 -15 -13 -9 -13 -11 0 -20 8 -5 22 -7 30 -3 25 11 101 16 99 7 -3 -20 2
-23 27 -14 20 8 31 6 54 -10 15 -11 34 -20 42 -20 7 0 30 -9 50 -19 19 -11 39
-17 42 -14 3 4 6 1 6 -6 0 -7 4 -10 9 -6 5 3 16 -2 25 -10 8 -9 18 -16 21 -15
28 2 41 -4 66 -31 18 -20 35 -29 45 -25 11 4 20 -5 31 -34 9 -22 20 -40 25
-40 4 0 18 -10 30 -22 l21 -21 -33 7 c-19 3 -57 9 -84 12 -49 5 -53 3 -98 -35
l-46 -41 5 -142 c4 -108 9 -146 20 -155 8 -6 70 -14 138 -18 l124 -7 55 32 56
31 1 57 c0 31 3 51 6 44 2 -6 9 -10 14 -6 5 3 9 0 9 -5 0 -6 6 -11 13 -11 15
0 67 -54 67 -70 0 -5 7 -7 15 -4 9 4 16 -3 21 -20 3 -14 10 -26 14 -26 4 0 16
-20 27 -45 10 -25 21 -45 25 -45 3 0 9 -13 13 -30 4 -16 12 -30 18 -30 7 0 6
-4 -3 -10 -13 -8 -12 -10 4 -10 11 0 29 -9 41 -20 13 -12 39 -22 64 -24 85 -7
64 -34 -69 -86 -60 -23 -114 -47 -119 -54 -6 -7 -6 -84 1 -214 10 -168 14
-205 27 -211 9 -4 55 -14 104 -21 48 -6 89 -16 92 -20 3 -4 -17 -13 -43 -19
-76 -19 -102 -32 -108 -57 -6 -23 12 -475 22 -551 3 -23 11 -46 17 -52 7 -5
72 -13 145 -17 108 -6 129 -9 115 -19 -15 -11 -16 -17 -3 -54 7 -23 10 -44 7
-48 -4 -3 -7 -1 -7 5 0 18 -37 33 -65 26 -21 -5 -25 -12 -25 -40 0 -27 -4 -34
-19 -34 -27 0 -69 -39 -77 -72 -4 -21 0 -33 19 -52 22 -22 31 -24 83 -20 53 4
57 1 16 -12 -10 -3 -10 -9 -2 -24 6 -11 7 -20 2 -20 -9 0 -10 -89 -1 -120 6
-21 21 -30 42 -24 9 3 17 3 17 0 0 -2 -22 -12 -49 -21 -27 -9 -52 -23 -55 -31
-3 -8 -3 -90 0 -182 4 -118 3 -163 -5 -152 -8 12 -14 13 -29 3 -18 -11 -19 -9
-15 30 3 33 -10 84 -61 232 l-66 190 45 45 c27 27 45 55 45 68 0 29 -44 142
-153 397 -124 290 -186 428 -201 445 -7 8 -30 53 -52 99 l-38 83 44 38 44 37
-59 104 c-249 444 -295 519 -353 572 -60 53 -82 50 -247 -33 -76 -39 -140 -68
-143 -66 -2 3 -14 176 -26 384 l-21 379 -64 71 c-34 40 -58 72 -52 72 6 0 11
-5 11 -11z m-2497 -48 l28 -26 -1 -145 -2 -145 31 0 c17 0 31 -2 31 -5 0 -3
10 -6 23 -7 12 -1 56 -8 97 -15 l75 -14 3 -40 c2 -22 -2 -52 -7 -67 -10 -26
-13 -27 -68 -22 -147 15 -145 14 -139 43 3 15 8 45 11 67 l5 40 -15 -45 c-8
-25 -15 -55 -15 -68 0 -27 -14 -25 -93 15 l-49 24 6 47 c7 49 16 263 16 359 0
61 -1 61 63 4z m1157 -533 c17 -268 35 -536 41 -594 5 -59 8 -109 6 -111 -3
-2 -65 22 -138 53 -155 66 -184 75 -206 67 -15 -6 -363 -695 -363 -720 0 -7
16 -23 36 -37 41 -28 37 -32 -35 -42 -37 -5 -56 -13 -66 -28 -37 -59 -305
-672 -305 -700 0 -9 19 -34 42 -56 40 -36 42 -41 31 -67 -6 -15 -43 -103 -82
-195 -39 -92 -71 -176 -71 -186 0 -10 29 -66 66 -124 88 -144 172 -217 219
-191 10 6 50 2 110 -11 l94 -19 38 26 c22 15 69 32 112 41 40 9 83 22 95 30
15 9 32 49 59 134 37 120 37 121 22 178 -8 32 -15 72 -15 89 0 16 -6 42 -14
57 -16 30 -26 0 146 428 95 239 327 726 339 713 4 -5 25 -179 48 -388 23 -209
44 -390 46 -402 4 -16 15 -24 39 -28 28 -6 35 -12 40 -38 5 -25 2 -35 -13 -47
-23 -17 -253 -710 -249 -747 2 -12 -5 -28 -14 -35 -12 -9 -21 -45 -33 -128
-11 -88 -44 -421 -45 -461 0 -4 -19 -9 -42 -13 -24 -4 -53 -14 -65 -22 -13 -7
-34 -21 -47 -29 -23 -15 -23 -15 -55 69 -18 46 -38 90 -46 96 -9 8 -32 9 -67
5 -44 -5 -76 0 -193 33 -77 22 -151 39 -164 39 -20 -2 -26 5 -40 48 -12 38
-21 51 -38 53 -19 3 -22 10 -25 55 l-3 51 -99 28 c-141 38 -136 34 -80 69 82
52 94 66 82 99 -19 55 -24 54 -202 -25 -92 -41 -171 -75 -175 -75 -10 0 -52
90 -47 99 3 4 30 14 60 21 101 24 116 67 116 330 0 184 -1 189 -22 204 -12 9
-38 16 -58 16 -19 0 -51 3 -72 6 l-36 6 -1 119 0 119 82 0 c45 0 102 6 127 14
l45 13 3 117 c3 113 2 117 -24 150 -25 31 -33 34 -97 39 -39 3 -75 11 -81 17
-5 5 -18 10 -28 10 -10 0 -18 7 -18 15 0 10 -10 15 -27 16 -17 0 -22 3 -13 6
8 3 18 11 22 17 11 16 9 138 -2 156 -8 12 -1 16 38 20 l47 5 3 58 c3 64 -2 61
101 51 l61 -7 0 -83 0 -84 -54 0 -54 0 -4 -47 c-5 -54 -4 -58 11 -48 6 3 11
21 11 40 0 37 12 45 71 45 l39 0 0 68 c0 37 3 111 7 165 l6 97 64 0 c106 0
103 -6 103 185 0 201 4 195 -121 195 l-89 0 0 59 0 58 69 7 c38 4 74 12 79 19
5 7 14 118 20 247 12 269 17 254 -77 265 -55 6 -57 8 -59 37 -2 24 6 39 38 70
23 21 46 36 51 32 5 -3 8 -1 7 4 -3 10 39 52 52 52 4 0 10 12 13 26 4 21 0 28
-17 33 -22 6 13 12 168 29 84 10 96 18 96 68 0 17 3 45 6 62 l6 30 37 -21 c20
-11 46 -29 57 -39 20 -18 36 -19 172 -16 83 2 155 8 161 13 5 6 10 60 11 120
3 163 4 158 -23 153 -15 -3 -35 4 -53 19 -27 21 -28 23 -7 23 12 0 24 -4 27
-9 7 -11 46 -2 46 10 0 5 15 9 34 9 19 0 38 5 41 10 4 6 14 10 23 9 30 -3 43
1 38 9 -3 5 6 15 20 23 15 7 28 26 32 44 6 28 7 26 10 -15 1 -25 16 -264 32
-532z m2731 545 c5 -5 10 -71 11 -148 l3 -140 -50 -27 c-56 -31 -195 -91 -200
-86 -1 2 -6 76 -9 164 l-7 161 73 47 c68 44 77 47 122 42 27 -3 53 -9 57 -13z
m191 -24 c64 -6 121 -15 126 -18 5 -3 12 -70 15 -148 4 -127 3 -143 -11 -143
-26 0 -259 42 -270 49 -5 3 -13 69 -17 145 l-8 139 24 -6 c13 -3 77 -11 141
-18z m-935 -25 c-3 -3 -12 -4 -19 -1 -8 3 -5 6 6 6 11 1 17 -2 13 -5z m90 -10
c-3 -3 -12 -4 -19 -1 -8 3 -5 6 6 6 11 1 17 -2 13 -5z m-2553 -11 l78 -6 -4
-156 -3 -156 -77 -3 c-71 -3 -80 -1 -129 29 l-52 32 7 75 c3 41 6 94 6 118 0
74 18 81 174 67z m-829 -22 l60 -16 -3 -115 c-1 -63 -5 -133 -8 -156 l-5 -41
-79 28 c-44 16 -82 24 -85 19 -3 -4 43 -25 102 -45 60 -20 124 -44 143 -55
l35 -19 -72 -1 c-54 0 -90 6 -140 25 -38 15 -71 29 -76 34 -11 11 14 345 27
353 15 11 32 9 101 -11z m940 -130 c-4 -69 -12 -130 -17 -136 -7 -7 -9 20 -4
84 3 52 6 116 6 143 0 33 4 47 11 42 8 -4 9 -45 4 -133z m-1080 -38 c-4 -82
-8 -153 -10 -160 -4 -12 -44 -36 -82 -47 -20 -6 -21 -3 -25 64 l-3 70 41 16
c47 18 54 37 54 147 0 45 3 57 16 57 13 0 14 -18 9 -147z m1184 89 l34 -25 -7
-101 c-4 -55 -9 -102 -11 -104 -2 -2 -29 11 -60 30 l-57 33 6 80 c3 44 6 95 6
114 l0 33 28 -17 c15 -10 42 -29 61 -43z m-1232 -34 c-5 -52 -11 -76 -24 -85
-24 -18 -38 -16 -19 2 18 19 36 78 36 123 0 17 3 32 6 32 4 0 4 -33 1 -72z
m4754 16 c5 -3 9 -48 9 -101 l0 -95 -32 5 c-18 3 -54 9 -79 12 -25 4 -51 10
-57 13 -6 4 -12 39 -13 77 -2 67 -1 70 27 88 23 14 41 17 83 12 29 -3 58 -8
62 -11z m-4884 -121 c-2 -16 -4 -5 -4 22 0 28 2 40 4 28 2 -13 2 -35 0 -50z
m3807 -44 c119 -16 116 -12 116 -175 l0 -114 -57 6 c-32 3 -91 9 -132 14 -59
7 -77 6 -88 -6 -8 -8 -28 -21 -44 -29 l-29 -16 0 68 c0 38 -3 97 -6 133 l-6
65 48 38 c36 28 56 37 74 34 14 -3 69 -11 124 -18z m63 15 c-3 -3 -12 -4 -19
-1 -8 3 -5 6 6 6 11 1 17 -2 13 -5z m-3031 -44 c17 0 24 -6 24 -18 0 -24 -8
-32 -25 -25 -8 2 -11 12 -7 21 5 15 3 15 -11 4 -18 -16 -37 -8 -37 15 0 10 6
13 16 9 9 -3 27 -6 40 -6z m96 -45 c-2 -25 -6 -45 -7 -45 -2 0 -15 4 -29 10
-21 8 -26 16 -26 45 0 33 2 35 33 35 32 0 32 0 29 -45z m3748 -73 l0 -118 -55
-27 c-31 -15 -60 -27 -65 -27 -6 0 -10 25 -10 55 0 59 1 61 32 44 13 -7 18 -7
14 -1 -3 6 -2 13 3 16 5 3 12 18 15 32 4 14 15 45 25 68 11 22 21 49 25 59 12
37 16 12 16 -101z m138 97 l72 -12 0 -73 0 -72 -57 -31 c-55 -30 -94 -38 -127
-25 -13 5 -16 25 -16 113 0 59 3 111 7 115 4 4 17 5 28 2 11 -2 53 -10 93 -17z
m-271 -96 c-2 -16 -4 -5 -4 22 0 28 2 40 4 28 2 -13 2 -35 0 -50z m-1881 -225
l9 -143 65 -3 c36 -2 68 -6 71 -10 4 -4 10 -57 14 -118 l7 -111 -54 3 -53 3
48 -9 c105 -19 73 -35 -98 -49 -134 -12 -764 -73 -891 -87 l-61 -7 -6 33 c-4
18 -7 52 -7 76 0 42 1 44 31 44 55 0 69 15 64 65 -3 25 -7 65 -10 90 -4 43 -3
45 21 45 13 0 27 6 30 14 3 7 1 67 -3 133 l-8 121 59 6 c33 3 61 5 62 3 2 -2
9 -88 15 -193 7 -104 15 -192 19 -196 6 -8 499 27 549 38 20 4 22 9 17 37 -3
18 -8 105 -12 195 l-7 162 60 0 60 0 9 -142z m-216 98 c0 -18 3 -47 6 -63 l6
-29 -202 -18 c-111 -9 -203 -16 -205 -14 -1 2 -5 29 -8 61 -4 40 -2 60 6 63
11 4 299 29 370 33 24 1 27 -2 27 -33z m1914 3 c8 -43 2 -49 -55 -49 l-49 0 0
40 0 40 49 0 c46 0 49 -1 55 -31z m-51 -76 c-7 -2 -19 -2 -25 0 -7 3 -2 5 12
5 14 0 19 -2 13 -5z m295 -8 c7 -3 12 -24 12 -59 l0 -54 -47 -15 c-27 -9 -65
-18 -85 -22 l-38 -6 0 69 0 69 38 16 c33 13 80 14 120 2z m-1147 -66 c13 -11
18 -18 12 -14 -7 3 -29 -2 -49 -11 -27 -13 -42 -30 -57 -62 -38 -88 -7 -272
56 -330 27 -24 67 -38 67 -23 0 6 -9 11 -19 11 -51 0 -105 124 -104 240 0 130
83 204 148 134 27 -29 98 -149 245 -413 85 -152 100 -185 89 -196 -8 -7 -59
-48 -114 -90 l-99 -77 -22 26 c-13 14 -57 88 -100 163 -121 217 -125 225 -131
219 -5 -5 106 -216 186 -351 l41 -70 -25 -20 c-13 -11 -79 -51 -146 -90 l-122
-69 -24 29 c-13 17 -35 50 -50 75 -14 25 -71 114 -125 197 -55 84 -96 157 -93
163 10 16 65 42 65 30 0 -17 240 -371 256 -377 13 -5 124 59 124 72 0 7 -31
-6 -77 -32 l-42 -24 -123 183 c-68 100 -124 185 -126 188 -3 7 176 96 181 89
3 -2 46 -77 96 -166 50 -89 96 -165 102 -169 23 -14 18 7 -14 57 -42 66 -157
277 -157 287 0 5 12 13 28 20 l27 12 -32 -5 c-29 -4 -33 -1 -45 33 -7 20 -13
78 -13 128 0 81 3 97 30 149 30 59 81 105 115 105 10 0 28 -9 41 -21z m-3001
-25 c102 -15 190 -32 196 -38 7 -8 7 -75 -1 -234 -7 -122 -14 -224 -16 -227
-3 -2 -103 8 -223 23 l-218 27 5 75 c4 41 10 151 13 243 l7 169 26 -5 c14 -3
109 -17 211 -33z m65 26 c-3 -5 -16 -10 -28 -9 -20 1 -20 2 3 9 14 4 26 8 28
9 2 1 0 -3 -3 -9z m-319 -31 c-3 -17 -6 -64 -6 -103 0 -49 -3 -66 -10 -56 -5
8 -10 44 -10 80 0 36 -4 72 -10 80 -10 15 4 30 29 30 10 0 12 -8 7 -31z m3083
-47 c-38 -73 -48 -179 -26 -262 9 -31 12 -59 7 -65 -12 -15 -169 -90 -175 -84
-11 12 -25 116 -25 187 0 113 19 146 122 207 46 26 92 54 103 61 11 7 21 13
22 13 1 1 -12 -25 -28 -57z m1377 -75 c3 -3 6 -114 7 -248 l2 -244 -55 1 c-30
0 -99 4 -152 8 l-97 8 -6 31 c-3 18 -9 109 -14 202 l-9 170 2 -193 c3 -183 2
-193 -16 -203 -23 -13 -189 -62 -193 -57 -4 6 -23 383 -19 390 11 18 221 89
286 97 l73 8 -63 2 c-75 1 -82 22 -11 33 45 7 258 3 265 -5z m-1611 -149 c0
-57 4 -126 8 -153 l8 -51 -34 -16 c-34 -16 -35 -16 -46 9 -17 36 -25 132 -17
197 6 43 14 63 37 86 17 16 34 30 37 30 4 0 7 -46 7 -102z m-2871 -88 l-8 -95
-7 95 c-5 61 -3 111 5 140 l11 45 3 -45 c2 -25 0 -88 -4 -140z m1183 -7 c-9
-9 29 -31 223 -130 91 -46 172 -91 180 -98 12 -13 11 -21 -9 -62 -27 -58 -192
-342 -200 -347 -8 -5 -245 132 -249 144 -2 5 33 77 77 161 45 83 81 158 81
167 0 20 -64 -87 -131 -219 -57 -115 -70 -122 -156 -84 -31 14 -59 27 -61 29
-5 6 197 408 216 429 8 9 20 17 25 17 6 0 7 -3 4 -7z m155 -64 c146 -67 262
-128 255 -136 -3 -2 -94 41 -203 96 -110 55 -196 100 -192 100 4 1 67 -26 140
-60z m1379 -89 c4 -63 7 -130 8 -147 1 -22 12 -46 35 -70 l33 -38 7 -422 c6
-414 6 -423 -13 -423 -11 0 -32 5 -48 11 -15 6 -56 11 -90 10 -57 0 -63 2 -63
20 0 11 -11 147 -24 302 -14 155 -26 300 -28 322 l-3 40 80 5 80 5 -3 80 c-2
44 -10 154 -17 245 -13 170 -11 184 25 177 12 -2 16 -26 21 -117z m-77 63 c3
-27 8 -87 12 -134 l6 -86 -32 -7 c-18 -3 -43 -6 -57 -6 -13 0 -36 -12 -50 -26
-24 -24 -25 -30 -21 -105 5 -77 4 -80 -16 -77 -23 3 -34 47 -35 139 -1 75 0
75 -254 51 -249 -23 -247 -24 -247 47 l0 36 264 26 c145 15 269 30 275 33 6 4
11 37 11 76 l0 69 48 4 c26 2 57 4 69 5 18 2 22 -4 27 -45z m-306 -60 c-3 -34
-6 -38 -33 -40 -27 -1 -28 -1 -5 5 17 5 26 15 28 34 3 22 -1 27 -25 31 -26 4
-26 4 5 6 32 1 33 0 30 -36z m-688 17 c-14 -4 -19 -8 -12 -9 18 -1 15 -31 -4
-31 -9 0 -12 5 -8 12 4 7 3 8 -5 4 -6 -4 -19 -2 -27 5 -20 17 0 29 46 28 32
-1 33 -2 10 -9z m548 3 c-10 -2 -26 -2 -35 0 -10 3 -2 5 17 5 19 0 27 -2 18
-5z m-95 -10 c-13 -2 -35 -2 -50 0 -16 2 -5 4 22 4 28 0 40 -2 28 -4z m-1848
-21 l60 -7 -4 -55 c-1 -30 -4 -56 -5 -56 0 -1 -30 -3 -66 -5 l-65 -4 -3 72
c-2 56 0 72 10 68 7 -3 40 -9 73 -13z m1758 10 c-6 -4 -14 -19 -18 -34 -5 -19
-3 -27 9 -31 13 -4 13 -5 -1 -3 -13 1 -19 11 -21 39 -3 33 -1 37 20 37 14 0
18 -3 11 -8z m-99 -48 c3 -26 6 -69 6 -96 0 -27 5 -58 10 -69 13 -24 48 -24
255 -4 83 8 171 15 196 15 l46 0 6 -91 c4 -50 9 -95 13 -100 3 -5 16 -9 29 -9
13 0 27 -5 30 -10 4 -6 12 -67 19 -135 l12 -125 -36 -6 c-19 -3 -42 -6 -50 -7
-17 -3 -19 -82 -10 -296 l5 -115 -238 -29 c-134 -16 -242 -25 -247 -21 -10 11
-45 446 -38 466 4 10 42 17 124 26 75 7 123 17 132 26 11 11 13 33 7 111 -4
56 -12 98 -19 101 -6 2 -89 -4 -184 -14 -95 -10 -175 -16 -177 -12 -2 3 -6 82
-10 175 -3 94 -8 189 -11 212 -5 41 -4 42 28 46 95 11 95 11 102 -39z m299 -1
c-7 -2 -19 -2 -25 0 -7 3 -2 5 12 5 14 0 19 -2 13 -5z m-95 -10 c-10 -2 -26
-2 -35 0 -10 3 -2 5 17 5 19 0 27 -2 18 -5z m-1971 -65 c-3 -8 -6 -5 -6 6 -1
11 2 17 5 13 3 -3 4 -12 1 -19z m-70 -34 c21 -6 22 -8 21 -220 l-1 -214 -75 0
-75 0 7 155 c7 169 2 195 -39 195 -22 0 -25 4 -25 40 l0 39 58 4 c31 2 68 4
82 5 14 1 35 -1 47 -4z m336 -4 l107 0 0 -160 0 -160 -149 0 c-176 0 -161 -17
-161 176 0 147 5 159 60 150 19 -3 83 -6 143 -6z m-266 -222 c-4 -121 -9 -223
-11 -226 -3 -2 -9 -1 -15 3 -7 4 -11 81 -11 226 0 218 0 219 22 219 l21 0 -6
-222z m48 62 c0 -196 -18 -211 -22 -19 -2 74 -5 144 -7 157 -2 15 2 22 13 22
14 0 16 -20 16 -160z m2479 69 c3 -34 6 -75 6 -90 l0 -29 -75 0 -75 0 0 80 c0
92 6 99 86 100 l51 0 7 -61z m1639 37 c3 -7 9 -144 13 -303 6 -252 5 -291 -8
-295 -25 -10 -268 -42 -273 -36 -6 6 -19 199 -30 435 -8 168 -21 151 151 187
143 30 141 29 147 12z m198 3 l137 -12 7 -271 c4 -149 6 -282 4 -296 l-4 -25
-145 4 c-80 2 -147 5 -149 7 -2 1 -7 117 -12 256 -5 139 -10 274 -12 301 -5
55 -22 52 174 36z m-3016 -341 l-92 -186 -34 21 c-19 11 -35 22 -37 23 -5 3
59 127 75 146 11 12 12 21 5 35 -8 15 7 46 76 163 l87 145 6 -80 5 -80 -91
-187z m2154 266 c30 -66 33 -78 20 -88 -8 -6 -93 -72 -189 -147 -231 -179
-280 -214 -289 -203 -13 15 -163 304 -157 304 3 0 24 -20 48 -45 l43 -44 100
55 c55 31 163 98 240 150 77 51 142 94 145 94 3 0 20 -34 39 -76z m-2606 -63
c20 -7 37 -16 37 -20 0 -4 -13 -28 -29 -54 -19 -28 -24 -44 -15 -40 8 3 26 25
40 49 14 24 29 44 33 44 4 0 66 -34 138 -75 72 -41 139 -75 149 -75 16 0 16
-2 -3 -22 -11 -13 -35 -51 -53 -85 l-32 -61 -31 13 c-18 7 -104 52 -192 99
-105 56 -170 86 -190 85 l-30 -1 26 -8 c43 -12 149 -72 149 -83 0 -15 -74 0
-143 29 -34 14 -63 27 -65 29 -2 2 32 80 78 177 l22 47 36 -18 c21 -10 54 -24
75 -30z m2690 -93 c51 -109 277 -645 277 -658 0 -15 -11 -12 -62 18 -45 26
-50 34 -197 324 -83 163 -151 299 -151 302 0 8 84 65 96 66 7 0 23 -24 37 -52z
m-705 -73 c121 -221 318 -631 395 -821 16 -40 34 -66 56 -81 l32 -22 2 -204
c2 -240 4 -244 91 -249 51 -3 51 -3 60 -43 25 -112 26 -115 50 -115 31 0 189
46 228 66 44 23 108 84 140 133 15 25 28 40 28 35 0 -16 -55 -97 -84 -123 -15
-15 -26 -35 -26 -51 0 -14 -11 -41 -25 -60 -14 -19 -25 -43 -25 -54 0 -10 -3
-16 -7 -13 -3 4 -12 -2 -20 -13 -8 -11 -22 -20 -31 -21 -11 -1 -8 -4 8 -9 23
-7 22 -8 -11 -9 -28 -1 -38 -6 -47 -26 -6 -14 -16 -25 -22 -25 -5 0 -9 -3 -9
-7 3 -20 -2 -34 -10 -29 -5 4 -7 -2 -5 -12 4 -15 -1 -17 -41 -14 l-47 4 4 -38
3 -37 -145 -32 c-80 -18 -197 -40 -260 -49 -159 -24 -158 -24 -171 -47 -9 -17
-7 -37 11 -96 25 -86 20 -108 -10 -39 -16 39 -90 316 -90 339 0 12 42 -12 74
-42 l28 -26 -7 50 c-15 104 -118 477 -239 860 -10 32 -19 42 -47 51 -29 10
-34 16 -37 48 -3 34 -2 36 27 36 16 0 33 5 36 10 6 10 46 478 60 695 6 109 16
198 20 193 1 -2 29 -52 63 -113z m-866 -2 c2 -45 -1 -83 -7 -89 -5 -6 -64 -17
-130 -23 -65 -7 -121 -14 -124 -17 -7 -7 -3 -108 14 -324 12 -145 12 -186 2
-192 -15 -10 -79 -10 -93 0 -6 4 -16 75 -23 157 -6 83 -14 171 -18 198 -4 38
-3 47 9 47 35 0 39 23 27 154 -7 69 -10 128 -8 131 6 5 246 32 306 34 l41 1 4
-77z m1521 -145 c52 -101 121 -234 152 -296 l56 -113 67 -32 c37 -17 68 -32
68 -32 1 0 5 -10 8 -23 l7 -22 -58 26 c-32 14 -85 35 -118 46 -33 11 -67 28
-77 37 -9 9 -55 99 -103 201 -47 102 -106 222 -130 267 l-43 82 26 20 c15 11
32 21 38 21 6 0 54 -82 107 -182z m-3333 87 l0 -66 -92 3 -93 3 -3 52 c-3 52
-3 52 30 57 30 5 69 9 136 14 21 2 22 -2 22 -63z m3246 -152 c52 -109 114
-237 138 -285 32 -65 40 -90 32 -100 -7 -8 -5 -7 7 1 15 12 29 9 94 -14 116
-41 183 -72 183 -86 0 -13 -46 -59 -60 -59 -5 0 -52 19 -104 41 l-96 41 -41
-16 c-47 -19 -105 -56 -197 -128 -54 -42 -63 -46 -69 -31 -3 10 -8 21 -10 25
-2 3 24 28 57 54 55 43 59 49 45 64 -8 9 -68 113 -133 231 -65 118 -128 230
-140 250 l-22 35 108 86 c59 48 108 87 110 87 1 1 45 -88 98 -196z m-2628 100
c-1 -5 -25 -53 -51 -108 -27 -55 -74 -155 -104 -223 -32 -70 -65 -129 -77
-137 -19 -12 -208 -85 -220 -85 -5 0 71 175 179 412 l57 127 47 6 c25 4 51 8
56 10 20 7 117 5 113 -2z m192 -121 c191 -116 187 -112 173 -159 -6 -21 -41
-110 -78 -198 -81 -193 -100 -241 -128 -322 -12 -35 -25 -63 -28 -63 -8 0 -49
98 -49 116 0 11 108 271 174 417 14 32 26 63 26 70 -1 11 -167 129 -201 142
-18 7 -13 17 -126 -254 l-85 -205 33 -28 c19 -15 62 -47 97 -70 45 -31 61 -48
58 -61 -2 -10 7 -43 21 -73 14 -30 23 -58 20 -60 -3 -3 -24 20 -48 51 -45 57
-176 159 -254 197 l-43 21 38 91 c20 50 68 159 105 241 37 83 79 174 92 203
23 52 24 53 46 40 12 -8 83 -51 157 -96z m-17 56 c21 -8 25 -13 16 -19 -8 -4
-16 -3 -20 2 -3 6 -10 11 -15 11 -12 0 -84 37 -84 43 0 3 17 -2 38 -11 20 -9
50 -21 65 -26z m1401 -50 c10 -76 27 -330 23 -334 -2 -2 -24 -7 -49 -10 l-45
-6 -7 73 c-13 160 -18 297 -12 308 4 6 25 11 46 11 38 0 39 -1 44 -42z m-1360
20 c-5 -8 -2 -9 10 -5 11 4 15 3 11 -4 -4 -6 -1 -9 6 -8 8 1 30 -1 50 -5 23
-5 45 -4 58 3 16 9 28 8 51 -4 16 -9 30 -18 30 -21 0 -2 -9 -23 -21 -45 l-20
-40 -32 21 c-18 11 -63 39 -100 62 -48 29 -64 43 -55 49 18 12 20 11 12 -3z
m2109 -35 c13 -21 66 -117 117 -213 51 -96 105 -196 121 -222 l28 -46 -44 -36
c-24 -20 -45 -36 -48 -36 -2 0 -26 48 -52 108 -27 59 -84 183 -127 276 l-79
170 23 18 c32 24 34 23 61 -19z m-3140 10 c-7 -2 -19 -2 -25 0 -7 3 -2 5 12 5
14 0 19 -2 13 -5z m987 -76 c41 -27 79 -53 84 -58 8 -7 -165 -422 -184 -443
-8 -7 -77 37 -158 101 l-23 19 70 169 c109 267 113 275 125 268 6 -4 45 -29
86 -56z m1700 -127 c0 -75 -4 -131 -10 -135 -6 -4 -10 43 -10 135 0 92 4 139
10 135 6 -4 10 -60 10 -135z m1423 -47 c-7 -2 -21 -2 -30 0 -10 3 -4 5 12 5
17 0 24 -2 18 -5z m17 -33 c0 -16 -7 -20 -30 -20 -23 0 -30 4 -30 20 0 16 7
20 30 20 23 0 30 -4 30 -20z m-4136 4 c13 -5 16 -24 16 -104 0 -61 -4 -101
-11 -106 -6 -3 -67 -3 -136 1 l-125 7 7 97 c4 53 12 99 19 103 13 9 208 11
230 2z m154 -36 c8 -8 12 -53 12 -135 0 -112 -2 -123 -18 -123 -22 0 -117 66
-116 80 1 6 2 51 3 100 l1 90 53 0 c29 0 58 -5 65 -12z m42 -143 c0 -70 -4
-115 -10 -115 -6 0 -10 45 -10 115 0 70 4 115 10 115 6 0 10 -45 10 -115z
m2401 90 c24 -9 54 -13 67 -10 21 5 22 3 22 -58 0 -35 -2 -66 -6 -69 -3 -3
-41 4 -85 15 l-79 21 -344 -17 c-189 -10 -376 -21 -415 -24 l-71 -6 0 34 0 35
238 28 c618 75 606 74 673 51z m-1996 -12 c-4 -10 -12 -31 -17 -48 -15 -42
-23 -48 -108 -80 -41 -15 -96 -36 -122 -46 l-47 -18 9 24 c31 82 47 101 102
118 30 9 81 28 114 41 71 30 78 31 69 9z m1597 -177 c6 -51 1 -56 -53 -56
l-49 0 0 -165 0 -165 -119 0 c-115 0 -119 1 -124 23 -3 12 -7 101 -8 197 l-3
175 25 3 c21 2 233 17 300 21 23 1 27 -3 31 -33z m-382 -31 l0 -35 -55 0 c-54
0 -55 1 -55 28 0 38 5 42 62 42 l48 0 0 -35z m1948 -16 l77 -25 42 -134 c23
-74 41 -135 39 -137 -5 -6 -110 40 -130 56 -10 9 -30 41 -43 71 -35 81 -45
100 -55 100 -5 0 -4 -9 3 -21 6 -12 19 -45 29 -75 21 -61 24 -58 -66 -69 l-51
-6 -6 92 c-3 50 -11 97 -17 103 -8 8 -32 3 -88 -17 -43 -15 -81 -27 -85 -27
-4 0 -7 12 -7 26 0 14 4 23 9 20 5 -3 53 10 107 30 55 19 111 36 126 36 15 1
27 4 26 7 -1 16 5 24 9 11 2 -8 38 -26 81 -41z m-3220 -14 c-3 -13 0 -26 6
-29 7 -3 7 -5 -1 -5 -17 -1 -25 16 -18 39 9 28 18 25 13 -5z m2011 -155 l60
-181 -27 -10 c-15 -5 -46 -17 -70 -26 -23 -9 -44 -14 -46 -12 -1 2 -18 47 -36
99 -44 125 -68 177 -86 184 -8 3 -31 -1 -51 -9 -19 -8 -37 -15 -39 -15 -23 0
57 95 98 116 25 13 86 29 125 33 6 1 38 -78 72 -179z m52 134 c95 -36 129 -61
129 -95 0 -10 -1 -19 -2 -19 -2 0 -28 7 -58 15 -30 8 -62 15 -70 15 -26 -1 17
-21 82 -39 l61 -16 38 -130 c91 -306 151 -516 148 -520 -5 -4 -160 23 -167 29
-3 3 -17 54 -33 113 -51 197 -187 609 -219 666 -6 9 -8 17 -6 17 2 0 46 -16
97 -36z m1816 -28 c8 -7 15 -70 19 -183 l7 -173 -120 0 -120 0 -7 38 c-3 20
-6 106 -6 190 l0 154 108 -7 c59 -4 112 -12 119 -19z m-243 -172 c4 -97 5
-178 4 -180 -2 -1 -31 -6 -66 -10 l-62 -7 2 169 3 168 45 18 c25 9 50 17 56
17 7 1 13 -58 18 -175z m-3542 136 c126 -41 124 -39 100 -86 -10 -22 -29 -70
-42 -107 -12 -38 -27 -70 -34 -72 -6 -3 -72 -1 -147 3 l-137 7 44 120 c62 171
59 165 94 165 16 0 71 -13 122 -30z m1136 -2 c41 -19 44 -23 40 -54 -2 -19 0
-34 4 -34 4 0 8 -7 8 -16 0 -10 -6 -14 -17 -10 -10 3 -44 8 -75 12 -46 5 -58
3 -58 -7 0 -9 14 -15 38 -16 79 -5 102 -13 102 -35 0 -17 -4 -19 -32 -14 -18
3 -52 8 -75 12 l-41 6 -21 -68 c-37 -124 -120 -442 -127 -484 -4 -22 -9 -40
-13 -40 -3 1 -27 20 -53 43 l-47 42 106 325 c57 179 109 336 114 349 9 21 13
23 57 16 26 -3 67 -16 90 -27z m1792 -23 c0 -63 -24 -132 -48 -139 -10 -2 -33
-7 -52 -11 -19 -4 -43 -9 -53 -12 -16 -4 -18 3 -15 78 l3 83 65 27 c96 40 100
39 100 -26z m-3141 -42 c-83 -220 -76 -208 -130 -243 -28 -18 -52 -30 -54 -28
-5 5 111 284 130 315 13 19 30 27 72 32 7 0 0 -29 -18 -76z m-586 17 l37 0 0
-70 0 -70 -50 -25 c-27 -14 -61 -25 -75 -25 -25 0 -25 1 -25 85 0 50 -4 85
-10 85 -6 0 -10 -35 -10 -86 l0 -86 -32 6 c-39 8 -45 13 -30 28 18 18 15 104
-4 122 -8 9 -21 16 -27 17 -7 0 11 7 38 14 28 8 73 12 100 9 28 -2 67 -4 88
-4z m2524 -27 c45 -109 153 -418 149 -429 -3 -7 -20 -17 -40 -24 -19 -6 -38
-20 -41 -31 -4 -11 -18 -31 -33 -44 -26 -24 -26 -26 -13 -72 25 -87 25 -91 1
-98 -12 -4 -23 -5 -24 -3 -2 1 -34 93 -71 203 -38 110 -88 251 -111 313 -24
62 -41 118 -38 126 6 15 165 92 197 95 4 1 15 -16 24 -36z m-1571 -88 c12 -41
18 -72 13 -70 -8 6 -59 -51 -59 -66 0 -12 -38 12 -45 29 -5 13 55 182 65 182
3 0 15 -34 26 -75z m86 34 c46 -24 57 -44 69 -127 5 -36 15 -73 22 -81 6 -9
-5 -2 -25 14 -21 17 -50 40 -65 51 -19 14 -37 46 -53 90 -14 37 -27 72 -29 77
-4 11 32 0 81 -24z m2718 0 c0 -5 -7 -9 -15 -9 -9 0 -12 6 -9 15 6 15 24 11
24 -6z m-3492 -55 c21 -4 22 -9 22 -104 0 -55 -2 -100 -5 -100 -3 0 -13 8 -24
19 -10 10 -57 31 -105 46 l-86 29 0 43 c0 76 8 82 97 77 43 -3 88 -7 101 -10z
m1665 -9 c41 -5 47 -9 47 -30 0 -35 17 -73 49 -112 l29 -35 -18 -42 c-9 -23
-41 -111 -69 -196 -28 -85 -55 -160 -59 -167 -4 -7 -17 -10 -29 -7 -18 5 -20
10 -12 42 11 48 11 119 0 126 -4 3 -37 11 -73 18 l-66 12 24 86 c13 47 36 130
50 184 30 119 40 139 62 132 9 -2 38 -7 65 -11z m2084 0 c66 -28 69 -55 14
-129 -22 -29 -67 -78 -102 -109 l-63 -57 -18 27 c-10 16 -18 31 -18 35 0 4 21
27 47 50 26 24 64 61 84 83 l38 40 -20 31 c-30 50 -24 55 38 29z m-307 -89 c0
-106 1 -106 -92 -106 l-48 0 0 89 0 89 38 10 c20 5 52 10 70 11 l32 1 0 -94z
m404 27 c11 -40 -20 -105 -81 -169 -39 -40 -121 -90 -131 -79 -2 2 32 39 75
82 85 85 119 140 108 180 -9 37 18 24 29 -14z m-1678 -327 l74 -219 -22 -66
-22 -67 -88 266 c-91 275 -101 329 -77 400 l12 33 24 -64 c13 -35 58 -163 99
-283z m-1414 287 c69 -26 68 -22 36 -141 -16 -59 -33 -115 -38 -124 -9 -15 4
-37 15 -26 2 2 19 59 38 126 32 120 34 122 51 103 17 -19 17 -23 -15 -123 -30
-94 -59 -153 -59 -120 0 7 -5 10 -10 7 -6 -4 -18 -1 -27 7 -9 7 -19 12 -22 11
-11 -5 -41 8 -41 17 0 5 -6 7 -12 5 -7 -3 -18 -1 -25 3 -11 7 -7 40 33 250 5
26 20 27 76 5z m1768 13 c0 -2 18 -62 40 -133 22 -70 50 -173 61 -228 11 -55
26 -103 32 -107 7 -4 29 -8 49 -8 30 0 68 -20 68 -35 0 -1 14 -63 30 -136 17
-74 35 -150 39 -171 l8 -36 -76 -20 c-42 -11 -130 -34 -196 -52 -119 -32 -119
-32 -135 -12 -24 29 -164 416 -152 420 5 1 17 8 26 15 15 11 15 16 1 62 -32
107 -2 135 35 33 40 -110 92 -228 100 -228 4 0 -19 73 -52 162 -32 89 -57 169
-56 177 5 22 96 54 135 46 28 -5 34 -12 43 -48 72 -274 209 -684 184 -547 -4
19 -28 109 -55 200 -27 91 -61 215 -77 277 -16 62 -35 119 -42 128 -7 8 -30
18 -50 21 -41 7 -51 23 -86 140 l-12 42 51 20 c49 19 87 27 87 18z m-2147 -29
c-3 -16 14 -47 65 -112 94 -123 98 -130 76 -163 l-17 -26 -71 76 c-39 42 -86
101 -105 132 -31 51 -32 59 -21 86 10 25 18 30 45 30 28 0 32 -3 28 -23z m-93
1 c0 -7 -4 -19 -9 -27 -6 -10 -4 -25 5 -43 12 -24 12 -28 0 -28 -7 0 -19 -6
-25 -14 -9 -11 -8 -18 4 -30 19 -19 21 -19 45 -6 15 8 23 3 46 -28 16 -20 48
-58 73 -85 24 -26 42 -49 40 -50 -51 -37 -55 -37 -87 -4 -47 50 -143 188 -136
198 3 5 1 9 -5 9 -18 0 -33 40 -26 70 4 19 15 32 33 39 37 13 42 13 42 -1z
m-391 -34 c79 -25 93 -35 70 -50 -8 -5 -6 -10 5 -16 13 -8 16 -29 16 -133 l0
-125 -28 0 c-23 0 -148 36 -160 46 -2 1 1 19 8 38 6 20 10 44 8 53 -3 12 -10
2 -18 -26 -15 -47 -50 -71 -62 -42 -6 15 -7 15 -7 0 -1 -23 -41 -31 -66 -14
-55 39 -56 41 -53 95 l3 53 63 38 62 38 1 -97 c1 -91 2 -94 11 -47 6 32 6 70
-1 108 -12 66 -8 80 22 95 32 15 37 15 126 -14z m290 -26 c-1 -18 -3 -25 -6
-15 -5 18 -23 24 -23 7 0 -5 -7 -10 -15 -10 -22 0 -18 15 8 33 32 23 37 21 36
-15z m1641 -14 c0 -15 -44 -104 -51 -104 -5 0 0 23 11 50 11 28 20 53 20 55 0
3 5 5 10 5 6 0 10 -3 10 -6z m-1799 -124 c-5 -138 -19 -146 -23 -12 -3 96 -1
112 12 110 12 -3 14 -20 11 -98z m3533 35 c20 -26 24 -36 14 -40 -108 -39
-101 -40 -111 18 -4 25 0 31 27 43 42 18 40 19 70 -21z m511 11 l24 -16 -85
-147 c-47 -82 -87 -149 -89 -151 -5 -5 -135 56 -135 63 0 8 118 181 163 239
27 34 34 38 65 32 19 -3 45 -12 57 -20z m167 -108 c66 -45 123 -88 125 -95 3
-7 -2 -31 -11 -54 -12 -31 -120 -255 -133 -278 -1 -2 -33 24 -70 57 -37 33
-101 81 -141 107 -70 45 -73 48 -59 68 8 12 47 79 87 150 40 70 75 127 77 127
3 0 59 -37 125 -82z m-2352 -28 c74 -61 89 -79 85 -97 -3 -12 -28 -88 -57
-169 l-51 -148 -94 97 c-62 65 -93 105 -93 120 0 18 53 190 85 275 6 17 17 11
125 -78z m-1276 56 c-8 -20 -24 -21 -24 0 0 8 5 12 10 9 6 -3 10 -1 10 6 0 7
2 10 5 7 3 -3 3 -13 -1 -22z m1563 -429 c41 -120 73 -220 71 -221 -2 -2 -30
-8 -63 -14 -33 -5 -78 -17 -100 -26 -22 -8 -57 -15 -77 -16 -44 0 -78 -28 -78
-64 0 -29 17 -44 60 -52 42 -9 25 -18 -65 -34 -38 -7 -73 -18 -77 -24 -5 -8
-10 -8 -18 0 -7 7 0 56 24 160 46 206 65 272 137 479 l63 179 24 -74 c13 -41
58 -173 99 -293z m-607 342 l32 -12 -8 -51 c-13 -92 -11 -111 13 -114 12 -2
23 -9 26 -15 4 -12 -51 -358 -59 -366 -5 -5 -198 39 -215 50 -9 5 -7 42 5 150
25 213 25 212 51 205 19 -5 23 0 32 52 18 93 28 112 61 112 16 0 44 -5 62 -11z
m-1777 -78 c26 -11 47 -25 47 -30 0 -5 -14 -19 -31 -31 -25 -18 -38 -21 -72
-16 -27 5 -38 4 -32 -3 23 -22 74 -17 117 13 l35 24 22 -45 c12 -24 19 -48 16
-53 -6 -10 -110 -50 -130 -50 -16 0 -63 74 -68 106 -1 12 -10 32 -19 46 -15
23 -15 27 -1 48 18 25 40 24 116 -9z m1565 -30 c16 -9 16 -21 -7 -200 -27
-207 -26 -204 -85 -181 -32 12 -32 23 -6 224 12 93 24 152 32 157 17 11 45 11
66 0z m2382 2 c0 -5 -15 -26 -33 -49 l-32 -41 -19 24 c-14 19 -21 22 -32 13
-23 -20 -34 -6 -15 18 l17 24 32 -27 c18 -15 32 -22 32 -17 0 6 -15 22 -32 36
l-33 26 58 0 c31 0 57 -3 57 -7z m143 -124 l-36 -67 -56 45 c-31 25 -60 49
-65 54 -5 4 3 27 18 53 l26 45 75 -31 74 -32 -36 -67z m-1048 99 c14 -6 25
-17 25 -24 0 -7 3 -19 6 -28 3 -9 1 -16 -5 -16 -17 0 -61 47 -61 65 0 18 2 18
35 3z m1185 -97 c106 -68 193 -152 184 -177 -8 -24 -33 -44 -53 -44 -13 0 -13
2 -3 9 10 6 4 10 -21 15 -38 7 -70 -1 -61 -16 3 -5 -22 12 -57 37 -35 26 -81
56 -101 66 -21 11 -38 23 -38 27 0 18 56 132 65 132 5 0 44 -22 85 -49z
m-2287 -48 l65 -67 -14 -45 c-8 -25 -32 -102 -53 -171 l-38 -125 -33 -3 c-18
-2 -92 12 -164 31 -72 19 -161 42 -198 52 -67 17 -68 18 -68 51 0 20 6 37 13
40 8 3 87 -13 177 -36 89 -22 165 -39 167 -36 7 7 29 114 48 241 18 116 22
135 29 135 2 0 33 -30 69 -67z m2092 -33 c3 -6 -1 -10 -10 -10 -9 0 -19 9 -22
19 -3 11 -12 22 -20 25 -11 5 -14 2 -9 -11 4 -10 -9 -1 -29 20 -19 21 -35 43
-35 48 0 10 114 -73 125 -91z m-285 77 c0 -15 -38 -40 -50 -32 -5 3 -8 14 -7
25 1 15 9 20 29 20 16 0 28 -5 28 -13z m-3218 -96 l1 -36 4 33 c4 28 8 32 35
32 27 0 30 -3 24 -22 -3 -13 -6 -34 -7 -48 0 -14 -3 -20 -5 -14 -3 7 -21 8
-55 3 -71 -11 -89 -18 -89 -35 0 -29 -22 -1 -57 72 -48 103 -44 108 61 76 l86
-26 2 -35z m-479 49 c-3 -12 -8 -19 -11 -16 -5 6 5 36 12 36 2 0 2 -9 -1 -20z
m3877 -7 c12 -16 80 -90 152 -166 72 -76 129 -139 127 -141 -2 -1 -85 -19
-184 -40 -99 -20 -228 -47 -286 -60 l-106 -23 -118 161 c-65 88 -118 167 -119
176 -1 11 53 26 239 66 132 28 248 52 257 53 9 0 26 -11 38 -26z m-3516 -208
c-8 -43 -39 -58 -79 -37 -16 8 -47 16 -68 17 -26 2 -47 11 -68 31 -58 55 -57
58 31 108 43 25 84 46 90 46 6 0 9 4 6 9 -4 5 -3 17 0 26 5 11 20 -13 50 -76
35 -72 43 -98 38 -124z m3651 155 c3 -5 1 -10 -4 -10 -6 0 -11 5 -11 10 0 6 2
10 4 10 3 0 8 -4 11 -10z m-3964 -27 c13 -16 12 -17 -3 -4 -17 13 -22 21 -14
21 2 0 10 -8 17 -17z m139 12 c0 -2 -13 -11 -30 -20 -16 -9 -30 -11 -30 -6 0
7 22 19 58 30 1 1 2 -1 2 -4z m3113 -62 c4 -27 9 -83 13 -125 7 -76 7 -76 31
-67 16 6 31 5 44 -1 26 -15 54 -59 43 -69 -9 -9 -287 -61 -323 -61 -11 0 -24
-8 -30 -17 -6 -12 -41 -25 -108 -40 -54 -12 -144 -34 -201 -49 -57 -14 -105
-24 -108 -22 -9 10 -44 143 -44 169 0 14 8 33 18 42 9 8 100 35 201 60 l183
44 14 -33 c20 -47 18 -52 -18 -59 -123 -24 -368 -89 -368 -97 0 -5 8 -7 18 -4
54 16 272 68 362 86 57 11 108 24 113 29 5 5 2 22 -6 38 -17 33 -47 141 -47
170 0 17 13 22 93 35 50 8 97 16 103 17 6 0 14 -20 17 -46z m797 30 c8 -7 -32
-33 -50 -33 -20 0 -53 34 -43 43 6 7 84 -2 93 -10z m-3516 -33 c11 0 36 -60
36 -87 0 -5 -10 -15 -23 -20 -23 -11 -24 -9 -38 53 -13 55 -13 64 -1 59 7 -3
19 -5 26 -5z m3916 -5 l25 -14 -35 -1 c-19 0 -52 -3 -74 -7 -37 -6 -38 -5 -27
16 14 25 71 29 111 6z m40 -38 c0 -18 -265 -59 -340 -53 l-55 5 61 -11 c51 -9
84 -7 198 11 111 18 143 20 171 11 19 -6 35 -15 35 -19 0 -23 -71 -43 -210
-60 -147 -17 -150 -17 -168 2 -9 10 -33 27 -53 37 -75 39 -69 46 59 60 64 7
153 16 197 20 44 4 86 8 93 9 6 0 12 -5 12 -12z m-2535 -25 c-3 -3 -11 0 -18
7 -9 10 -8 11 6 5 10 -3 15 -9 12 -12z m-2018 -18 c6 -17 -44 -35 -69 -25 -22
8 -22 8 7 24 33 18 56 18 62 1z m-72 -45 c95 -37 124 -53 113 -64 -3 -4 -191
57 -263 85 -23 9 -26 13 -15 21 19 12 38 7 165 -42z m904 -4 c68 -18 125 -36
127 -38 2 -2 -67 -25 -154 -51 -86 -25 -162 -53 -169 -62 -8 -11 -8 -25 -1
-47 5 -18 12 -40 15 -50 5 -14 -22 -8 -152 38 -156 54 -172 61 -164 69 10 10
352 176 362 176 7 0 68 -16 136 -35z m1614 -62 c15 -37 14 -38 -14 -52 -26
-12 -34 -12 -72 7 -23 12 -55 24 -72 27 -25 6 -27 8 -13 16 13 7 109 32 149
38 4 1 14 -16 22 -36z m-846 -38 c95 -25 193 -45 218 -45 39 0 46 -3 41 -17
-2 -10 -12 -44 -21 -77 l-16 -59 -51 6 c-53 7 -330 82 -360 98 -27 15 -22 139
5 139 6 0 89 -20 184 -45z m2600 -30 c1 -33 -1 -53 -3 -44 -4 14 -19 15 -103
11 -79 -4 -108 -1 -145 13 -25 10 -46 21 -46 24 0 9 230 59 265 57 30 -1 30
-2 32 -61z m322 -195 c0 -25 -1 -25 -11 -3 -6 12 -22 24 -36 28 -15 4 -39 19
-54 35 -16 17 -34 27 -42 24 -18 -7 -101 48 -116 77 -6 11 -15 17 -21 14 -5
-4 -9 9 -9 29 l0 35 145 -107 c122 -89 145 -111 144 -132z m-4469 150 l0 -55
-102 -40 c-57 -22 -106 -41 -110 -43 -5 -2 -8 18 -8 45 l0 48 103 61 c65 38
105 56 109 50 4 -6 8 -36 8 -66z m3404 -37 c5 -44 4 -63 -4 -63 -6 0 -9 4 -6
8 2 4 1 13 -3 20 -5 9 -13 8 -30 -4 -15 -11 -19 -19 -12 -23 6 -4 -37 -15 -95
-24 -58 -9 -109 -15 -114 -12 -4 2 -13 25 -19 50 -7 29 -17 45 -27 45 -9 0
-12 -5 -8 -12 5 -10 4 -10 -6 -1 -8 7 -12 15 -9 17 3 3 321 64 325 62 1 -1 4
-29 8 -63z m639 0 c-7 -2 -19 -2 -25 0 -7 3 -2 5 12 5 14 0 19 -2 13 -5z
m-2915 -48 c-3 -3 -9 2 -12 12 -6 14 -5 15 5 6 7 -7 10 -15 7 -18z m2942 3
c19 -13 35 -28 37 -34 2 -6 -63 -23 -169 -44 -95 -18 -183 -36 -194 -41 -17
-6 -29 0 -59 31 l-38 39 34 6 c19 3 104 19 189 34 85 16 158 30 161 30 3 1 21
-9 39 -21z m218 10 c7 -7 12 -16 12 -22 0 -5 -6 -1 -14 9 -8 11 -19 16 -30 12
-10 -4 -15 -3 -11 3 8 14 28 13 43 -2z m-2328 -18 c8 -5 12 -11 10 -14 -3 -2
-14 2 -24 10 -22 15 -10 19 14 4z m-1040 -65 c-14 -8 -29 -14 -35 -14 -5 0 1
6 15 14 14 8 30 14 35 14 6 0 -1 -6 -15 -14z"/>
<path d="M610 4861 c0 -37 2 -41 25 -41 30 0 33 -16 5 -25 -28 -9 -26 -43 3
-49 12 -3 48 -8 80 -11 51 -6 57 -5 57 12 0 38 -24 73 -50 73 -41 0 -70 11
-70 26 0 8 5 14 10 14 6 0 10 7 10 15 0 8 -9 15 -19 15 -11 0 -26 3 -35 6 -13
5 -16 -2 -16 -35z"/>
<path d="M754 4853 c9 -33 14 -38 44 -48 22 -6 23 -4 20 32 -3 35 -5 38 -37
41 -32 3 -33 2 -27 -25z"/>
<path d="M4210 4710 c0 -5 5 -10 11 -10 5 0 7 5 4 10 -3 6 -8 10 -11 10 -2 0
-4 -4 -4 -10z"/>
<path d="M4592 4614 c2 -28 8 -49 16 -52 10 -3 12 8 10 44 -2 28 -8 49 -16 52
-10 3 -12 -8 -10 -44z"/>
<path d="M4740 4595 c0 -44 1 -45 31 -45 31 0 31 1 24 37 -9 48 -12 53 -36 53
-16 0 -19 -7 -19 -45z"/>
<path d="M4640 4506 c0 -43 1 -46 28 -46 15 0 37 -3 50 -6 20 -6 22 -3 22 40
0 46 0 46 -34 46 -19 0 -41 3 -50 6 -13 5 -16 -2 -16 -40z"/>
<path d="M2660 4159 c-41 -4 -99 -11 -128 -14 l-52 -6 6 -67 c4 -37 8 -69 10
-70 3 -4 317 29 322 33 2 2 1 33 -3 69 l-7 66 -37 -1 c-20 -1 -70 -5 -111 -10z"/>
<path d="M2100 4115 c-58 -7 -111 -14 -117 -14 -9 -1 -11 -17 -6 -63 3 -35 7
-65 9 -67 1 -2 67 2 145 9 l141 13 -6 45 c-3 25 -6 55 -6 68 0 28 0 28 -160 9z"/>
<path d="M807 4374 c-8 -45 -3 -54 27 -54 19 0 24 7 29 37 7 43 9 40 -24 48
-24 6 -27 3 -32 -31z"/>
<path d="M1040 4351 c0 -28 14 -41 46 -41 9 0 14 11 14 29 0 21 -6 30 -22 35
-36 9 -38 8 -38 -23z"/>
<path d="M840 4255 c0 -20 5 -25 26 -25 24 0 26 -3 21 -30 -6 -27 -4 -30 17
-30 13 0 38 -3 55 -6 28 -6 31 -4 31 20 0 19 5 26 20 26 13 0 20 7 20 20 0 11
-1 20 -3 20 -2 0 -30 5 -63 10 -134 23 -124 24 -124 -5z"/>
<path d="M3438 4428 c11 -14 52 -31 52 -22 0 2 -15 11 -32 20 -28 14 -31 15
-20 2z"/>
<path d="M937 3783 c-4 -3 -7 -32 -7 -64 0 -32 -4 -60 -9 -63 -15 -10 0 -52
31 -90 23 -29 35 -35 52 -30 42 12 50 28 35 70 -7 22 -12 68 -10 103 2 45 -1
66 -11 72 -16 10 -72 12 -81 2z m78 -22 c3 -6 3 -28 -1 -50 -6 -37 -9 -41 -35
-41 -28 0 -29 2 -29 50 0 49 1 50 29 50 17 0 32 -4 36 -9z m0 -141 c21 -40 19
-57 -7 -63 -27 -7 -42 4 -59 44 -10 26 -10 32 2 40 26 16 48 9 64 -21z"/>
<path d="M1425 3723 c-30 -8 -35 -21 -35 -95 0 -61 2 -69 25 -84 32 -21 162
-15 176 7 5 8 9 44 9 81 0 58 -3 69 -22 82 -22 16 -107 20 -153 9z m153 -91
l3 -73 -83 3 -83 3 -3 59 c-5 87 -4 87 85 84 l78 -3 3 -73z"/>
<path d="M1072 3414 c-28 -12 -30 -16 -37 -92 -4 -44 -4 -88 -1 -99 10 -32 62
-53 131 -53 88 0 95 9 95 119 0 78 -2 90 -22 108 -28 26 -123 35 -166 17z
m145 -17 c6 -7 5 -188 -2 -195 -1 -2 -30 2 -63 9 l-61 13 -3 89 c-2 49 -1 91
2 94 7 7 118 -2 127 -10z m-137 -92 c0 -69 -3 -85 -15 -85 -17 0 -18 17 -9
109 10 89 24 75 24 -24z"/>
<path d="M1126 594 c-3 -9 -6 -26 -6 -39 0 -12 -7 -28 -15 -35 -26 -21 -10
-22 39 -1 48 21 57 41 32 74 -16 21 -42 22 -50 1z m34 -4 c0 -5 -4 -10 -10
-10 -5 0 -10 5 -10 10 0 6 5 10 10 10 6 0 10 -4 10 -10z"/>
<path d="M4493 4300 c0 -41 2 -58 4 -37 2 20 2 54 0 75 -2 20 -4 3 -4 -38z"/>
<path d="M3814 3895 c0 -71 1 -99 3 -62 2 37 2 96 0 130 -2 34 -3 4 -3 -68z"/>
<path d="M2607 3244 c-279 -25 -676 -85 -616 -92 15 -2 91 8 170 22 151 26
325 48 569 70 80 7 118 13 85 13 -33 1 -127 -5 -208 -13z"/>
<path d="M420 3466 c0 -19 6 -25 30 -28 27 -4 30 -2 30 24 0 24 -4 28 -30 28
-25 0 -30 -4 -30 -24z"/>
<path d="M600 3431 c0 -28 14 -41 46 -41 20 0 18 56 -2 64 -32 12 -44 6 -44
-23z"/>
<path d="M720 3417 c0 -19 6 -26 28 -30 32 -6 29 -8 34 23 3 22 -1 25 -29 28
-29 3 -33 0 -33 -21z"/>
<path d="M486 3279 c-4 -45 -4 -84 -1 -87 6 -6 188 -31 193 -27 1 1 5 41 9 87
l6 85 -84 11 c-125 18 -115 24 -123 -69z"/>
<path d="M4455 3310 c-11 -5 -14 -9 -7 -9 7 -1 12 -16 12 -38 0 -47 14 -73 30
-57 14 14 9 106 -5 110 -5 1 -19 -1 -30 -6z"/>
<path d="M4384 3285 c-3 -8 -14 -17 -25 -20 -21 -7 -27 -59 -9 -70 6 -3 10
-26 10 -51 0 -46 4 -50 42 -35 21 8 24 14 20 46 -4 34 -7 36 -31 31 -23 -5
-23 -4 -6 5 16 8 20 20 20 59 0 49 -10 65 -21 35z"/>
<path d="M1725 2818 c-46 -90 -53 -108 -36 -92 25 23 98 163 87 167 -6 2 -29
-32 -51 -75z"/>
<path d="M3638 1210 c-41 -25 -33 -122 12 -145 26 -14 34 -13 77 3 46 17 48
19 51 61 3 35 -1 47 -23 67 -28 25 -85 32 -117 14z m111 -24 c16 -17 22 -33
19 -57 -3 -32 -7 -35 -52 -46 -71 -18 -86 -6 -86 62 l0 54 43 4 c23 2 45 4 48
5 3 1 16 -9 28 -22z"/>
<path d="M3672 1120 c0 -19 2 -27 5 -17 2 9 2 25 0 35 -3 9 -5 1 -5 -18z"/>
<path d="M3915 931 c-15 -49 24 -92 69 -75 19 7 22 64 4 82 -19 19 -66 15 -73
-7z m53 3 c16 -5 22 -14 22 -35 0 -26 -4 -29 -30 -29 -28 0 -30 3 -30 35 0 37
2 38 38 29z"/>
<path d="M1308 1033 c7 -3 16 -2 19 1 4 3 -2 6 -13 5 -11 0 -14 -3 -6 -6z"/>
<path d="M2718 503 c12 -2 20 -9 17 -14 -9 -13 -53 -11 -58 4 -7 17 -8 -33 -1
-59 4 -17 16 -23 52 -27 49 -5 65 -1 44 11 -6 5 -15 26 -20 47 -6 33 -12 40
-32 41 -23 1 -23 1 -2 -3z"/>
<path d="M3137 4990 c4 -14 14 -20 34 -20 22 0 29 5 29 20 0 16 -7 20 -34 20
-29 0 -33 -3 -29 -20z"/>
<path d="M3220 4990 c0 -11 6 -20 14 -20 8 0 21 -3 30 -6 12 -5 16 0 16 20 0
22 -4 26 -30 26 -23 0 -30 -4 -30 -20z"/>
<path d="M0 2640 c0 -23 4 -30 20 -30 15 0 20 -7 20 -29 0 -25 4 -29 38 -35
70 -11 82 -8 82 19 0 21 5 25 30 25 27 0 30 3 30 30 0 17 -4 30 -9 30 -5 0
-16 3 -25 6 -12 4 -16 0 -16 -15 0 -17 -6 -21 -30 -21 -23 0 -30 5 -30 19 0
20 -26 31 -77 31 -30 0 -33 -3 -33 -30z"/>
<path d="M2 1810 c0 -14 2 -19 5 -12 2 6 2 18 0 25 -3 6 -5 1 -5 -13z"/>
<path d="M5 850 c-8 -13 5 -13 25 0 13 8 13 10 -2 10 -9 0 -20 -4 -23 -10z"/>
<path d="M43 682 c-24 -15 -43 -33 -43 -40 0 -8 17 -1 45 19 25 18 45 36 45
41 0 10 3 11 -47 -20z"/>
<path d="M5100 669 c0 -5 5 -7 10 -4 6 3 10 8 10 11 0 2 -4 4 -10 4 -5 0 -10
-5 -10 -11z"/>
<path d="M4652 40 c6 -22 16 -40 23 -40 10 0 11 9 3 40 -6 22 -16 40 -23 40
-10 0 -11 -9 -3 -40z"/>
</g>
</svg>