<svg xmlns="http://www.w3.org/2000/svg" width="1000" height="1000" viewBox="0 0 1000 1000" version="1.1"><path d="M 254.043 626.269 C 252.692 626.955, 251.274 628.637, 250.893 630.008 C 250.511 631.379, 250.155 715.188, 250.100 816.250 L 250 1000 500.010 1000 L 750.021 1000 749.760 814.536 C 749.513 638.021, 749.414 628.985, 747.714 627.286 C 746.011 625.582, 734.623 625.489, 501.214 625.261 C 307.400 625.072, 255.989 625.282, 254.043 626.269" stroke="none" fill="#ff0000" fill-rule="evenodd"/><path d="M 122.714 124.990 C 239.279 125.472, 246.025 125.596, 247.714 127.286 C 249.409 128.980, 249.500 135.251, 249.500 250.124 L 249.500 371.177 247.139 373.088 C 244.844 374.947, 241.403 375, 122.389 375 L 0 375 0 500 L 0 625 121.889 625 C 240.409 625, 243.844 625.053, 246.139 626.912 L 248.500 628.823 248.999 814.662 L 249.497 1000.500 249.999 814.786 C 250.475 638.212, 250.588 628.983, 252.286 627.286 C 253.990 625.581, 265.247 625.500, 500 625.500 C 734.753 625.500, 746.010 625.581, 747.714 627.286 C 749.412 628.983, 749.525 638.212, 750.001 814.786 L 750.503 1000.500 751.001 814.786 C 751.475 638.215, 751.588 628.983, 753.286 627.286 C 754.975 625.596, 761.696 625.473, 877.786 625 L 1000.500 624.500 1000.754 499.500 L 1001.008 374.500 878.124 374.758 C 758.246 375.009, 755.183 374.969, 752.870 373.096 L 750.500 371.177 750.500 250.124 C 750.500 135.250, 750.591 128.980, 752.286 127.286 C 753.977 125.594, 760.510 125.486, 876.747 125.238 C 944.219 125.094, 999.756 124.644, 1000.162 124.238 C 1000.568 123.832, 945.139 123.725, 876.986 124 C 759.749 124.473, 752.975 124.596, 751.286 126.285 C 749.597 127.974, 749.473 134.651, 749 249.624 L 748.500 371.177 746.139 373.089 C 743.829 374.959, 738.523 375, 500 375 C 261.477 375, 256.171 374.959, 253.861 373.089 L 251.500 371.177 251 249.500 L 250.500 127.823 248.139 125.911 C 245.840 124.050, 242.576 124.006, 122.639 124.240 L -0.500 124.481 122.714 124.990 M 0.485 500 C 0.485 569.025, 0.604 597.262, 0.750 562.750 C 0.896 528.237, 0.896 471.762, 0.750 437.250 C 0.604 402.737, 0.485 430.975, 0.485 500" stroke="none" fill="#ffec00" fill-rule="evenodd"/><path d="M 0 62 L 0 124 122.889 124 C 242.390 124, 245.844 124.053, 248.139 125.911 L 250.500 127.823 251 249.500 L 251.500 371.177 253.861 373.089 C 256.171 374.959, 261.477 375, 500 375 C 738.523 375, 743.829 374.959, 746.139 373.089 L 748.500 371.177 749 249.624 C 749.473 134.650, 749.597 127.974, 751.286 126.285 C 752.975 124.596, 759.741 124.473, 876.786 124 L 1000.500 123.500 1000.758 61.750 L 1001.015 0 500.508 0 L 0 0 0 62 M 0.470 62.500 C 0.470 96.600, 0.596 110.695, 0.749 93.822 C 0.903 76.949, 0.903 49.049, 0.750 31.822 C 0.596 14.595, 0.470 28.400, 0.470 62.500 M 0 812.500 L 0 1000 124.513 1000 L 249.026 1000 248.763 814.412 L 248.500 628.823 246.139 626.912 C 243.844 625.053, 240.409 625, 121.889 625 L 0 625 0 812.500 M 753.861 626.912 L 751.500 628.823 751.237 814.412 L 750.974 1000 875.487 1000 L 1000 1000 1000 812.500 L 1000 625 878.111 625 C 759.591 625, 756.156 625.053, 753.861 626.912" stroke="none" fill="#ffffff" fill-rule="evenodd"/><path d="M 0 249.988 L 0 375 122.389 375 C 241.403 375, 244.844 374.947, 247.139 373.088 L 249.500 371.177 249.500 250.124 C 249.500 135.250, 249.409 128.980, 247.714 127.286 C 246.022 125.594, 239.478 125.486, 122.964 125.238 L 0 124.977 0 249.988 M 754.235 126.037 C 752.990 126.537, 751.522 128.127, 750.973 129.570 C 750.325 131.275, 750.068 174.004, 750.238 251.685 L 750.500 371.177 752.861 373.088 C 755.156 374.947, 758.600 375, 877.611 375 L 1000 375 1000 250 L 1000 125 878.250 125.063 C 807.625 125.100, 755.549 125.509, 754.235 126.037" stroke="none" fill="#000000" fill-rule="evenodd"/></svg>