<?xml version="1.0" standalone="no"?>
<svg version="1.0" xmlns="http://www.w3.org/2000/svg"
 width="512.000000pt" height="512.000000pt" viewBox="0 0 512.000000 512.000000"
 preserveAspectRatio="xMidYMid meet">
<metadata>
Created by potrace 1.16, written by Peter Selinger 2001-2019
</metadata>
<g transform="translate(0.000000,512.000000) scale(0.100000,-0.100000)"
fill="#4A90E2" stroke="none">
<path fill="#4A90E2" d="M2335 4896 c-137 -23 -256 -45 -262 -49 -9 -6 -13 -35 -13 -89 0 -57
-4 -84 -14 -92 -20 -16 -29 -213 -11 -224 11 -5 12 -40 8 -168 l-6 -160 -121
-17 c-67 -10 -132 -17 -146 -17 -40 0 -70 -27 -70 -62 l0 -30 -62 7 c-35 3
-136 15 -226 27 -158 19 -164 19 -184 2 -30 -28 -34 -38 -98 -261 -32 -114
-70 -241 -84 -282 -15 -41 -26 -76 -26 -78 0 -1 18 -12 40 -23 22 -11 40 -22
40 -24 0 -2 -9 -32 -19 -67 -32 -103 -61 -217 -61 -238 0 -18 13 -25 137 -77
l32 -14 -21 -50 c-11 -27 -26 -50 -32 -50 -6 0 -44 7 -84 17 -64 15 -74 15
-87 2 -9 -8 -62 -118 -119 -245 -57 -126 -127 -278 -156 -339 -76 -160 -73
-149 -44 -192 l26 -38 -36 -3 c-42 -4 -56 -21 -116 -146 l-43 -90 51 -47 c29
-26 52 -50 52 -53 0 -3 -15 -6 -34 -6 -19 0 -46 -4 -60 -10 l-26 -10 0 -259
c0 -195 3 -261 13 -268 11 -9 257 -83 392 -118 l60 -16 190 49 190 48 3 72 c3
68 4 72 26 72 13 0 28 6 34 12 5 7 13 67 17 133 8 138 -1 168 -80 282 l-44 63
81 132 c135 221 226 367 311 496 92 142 94 119 -11 244 l-65 79 13 55 c9 35
21 59 36 69 12 8 27 29 33 47 5 18 26 86 46 152 20 65 40 114 45 110 4 -5 13
-52 20 -104 14 -116 29 -178 43 -187 6 -4 27 -9 47 -13 31 -5 35 -9 41 -43 7
-45 29 -63 87 -72 l42 -6 0 -155 0 -154 25 -10 c21 -8 25 -16 25 -50 0 -26 7
-47 19 -59 18 -18 17 -19 -79 -23 -88 -3 -102 -6 -139 -32 -52 -37 -131 -139
-176 -231 -19 -38 -51 -126 -71 -195 -31 -109 -35 -135 -31 -200 3 -41 2 -115
-2 -165 -6 -85 -5 -91 16 -113 20 -19 23 -34 25 -114 3 -88 2 -93 -20 -104
-13 -6 -28 -16 -32 -20 -5 -5 -4 -102 2 -227 6 -119 8 -220 5 -223 -4 -4 -45
-15 -93 -25 -48 -10 -90 -21 -95 -26 -4 -4 -11 -63 -15 -130 -6 -103 -9 -123
-23 -123 -9 0 -4 -8 15 -19 23 -14 80 -24 220 -40 161 -18 209 -20 324 -11 74
5 216 12 315 15 99 3 211 8 249 11 l69 6 -6 -55 -5 -54 66 -6 c321 -29 428
-31 613 -13 101 10 193 18 204 17 14 0 16 2 7 8 -11 6 -10 10 0 19 16 13 64
32 97 38 13 3 34 10 45 17 12 6 26 10 33 9 7 -2 9 5 6 18 -3 11 -9 20 -14 20
-5 0 -9 6 -9 13 0 7 -9 17 -19 22 -97 50 -86 35 -101 148 -15 112 -16 163 -5
340 l8 118 -53 111 c-40 84 -53 124 -56 167 -13 231 -27 357 -39 366 -17 14
-38 146 -25 159 14 14 12 92 -4 212 -14 106 -44 180 -92 225 -26 24 -83 38
-161 39 l-53 0 0 35 0 35 227 2 227 3 7 40 c4 22 15 211 24 420 10 209 21 387
26 395 11 21 21 -11 44 -128 10 -51 24 -100 32 -108 15 -14 19 -16 115 -34 65
-13 67 -16 71 -114 l2 -59 -53 -12 c-30 -7 -59 -18 -65 -24 -6 -6 -13 -44 -14
-84 -7 -163 -24 -418 -34 -512 -11 -96 -10 -106 20 -241 l30 -140 -14 -129
c-8 -74 -10 -134 -5 -140 4 -5 17 -45 28 -88 11 -43 22 -80 24 -82 6 -6 356
-20 503 -20 130 0 144 2 199 27 33 14 62 32 66 40 11 21 34 244 27 262 -5 12
0 16 16 16 50 0 49 -6 63 396 7 209 13 454 14 547 l0 167 -107 71 c-88 58
-113 70 -139 67 -29 -3 -33 -1 -38 25 -14 69 -8 86 32 102 81 33 107 50 106
70 -5 68 -58 384 -69 405 -18 35 -30 146 -16 154 15 9 2 317 -14 334 -19 21
-301 74 -365 69 -46 -4 -409 -66 -476 -82 -19 -4 -22 1 -28 57 -3 34 -10 66
-15 71 -5 5 -101 18 -213 29 -126 12 -205 24 -210 31 -4 7 -8 82 -8 168 0 122
-3 159 -14 168 -10 8 -16 47 -21 129 -3 64 -10 126 -14 137 -5 12 -61 48 -137
89 -71 38 -148 82 -171 97 -23 16 -50 29 -60 28 -10 0 -130 -20 -268 -43z
m284 0 c8 -9 11 -63 9 -167 -3 -129 -5 -154 -18 -154 -12 0 -16 18 -20 82 -3
45 -8 85 -13 89 -4 4 -34 3 -67 -2 l-60 -10 0 49 0 50 -57 -7 c-32 -4 -85 -12
-118 -19 l-60 -12 -3 -48 c-3 -52 -4 -53 -75 -66 l-48 -9 3 76 3 76 245 42
c288 50 265 47 279 30z m174 -97 c72 -39 137 -75 143 -80 6 -5 14 -53 19 -107
12 -156 13 -164 24 -175 6 -6 11 -14 11 -18 0 -4 -16 8 -36 26 -19 18 -53 40
-74 50 l-39 18 -3 79 -3 80 -35 14 -35 14 28 -23 c25 -21 27 -28 27 -99 0 -55
-4 -79 -15 -88 -12 -10 -15 -37 -15 -126 l0 -114 38 -17 c34 -17 37 -22 40
-64 l3 -46 -78 -5 c-43 -3 -81 -4 -85 -1 -5 2 -8 61 -8 130 l0 125 26 -5 c18
-3 22 -1 15 6 -6 6 -11 39 -11 74 l0 63 -40 20 -40 20 0 160 c0 88 2 160 5
160 3 0 65 -32 138 -71z m-367 -66 c-5 -6 -152 -33 -179 -33 -15 0 -18 7 -15
42 l3 43 95 15 95 15 3 -38 c2 -22 1 -41 -2 -44z m134 -82 l0 -69 -112 -16
c-174 -26 -351 -56 -370 -62 -16 -5 -18 3 -18 65 l0 70 53 10 c97 21 392 70
420 70 27 1 27 1 27 -68z m89 -131 c59 -34 60 -36 61 -78 0 -24 -3 -41 -7 -39
-5 3 -27 10 -50 16 -40 11 -42 13 -45 54 l-3 42 -40 -1 c-59 -1 -162 -16 -147
-21 7 -3 12 -25 12 -60 0 -52 1 -55 23 -50 12 3 59 9 105 13 l82 7 0 -136 c0
-125 -2 -137 -19 -147 -11 -5 -29 -10 -40 -10 -19 0 -20 -7 -23 -92 l-3 -93
-185 -17 c-102 -9 -193 -17 -202 -17 -16 -1 -18 11 -18 109 0 109 0 110 24
110 13 0 29 6 35 14 7 8 43 16 89 20 106 9 142 16 142 29 0 10 -63 7 -187 -9
-33 -4 -53 -3 -53 3 0 6 60 18 133 27 204 27 207 27 207 43 0 11 -8 13 -27 9
-16 -3 -87 -12 -160 -21 -183 -23 -187 -24 -193 -66 -4 -26 -10 -35 -27 -37
-22 -3 -23 -8 -23 -98 0 -87 -1 -94 -20 -94 -19 0 -20 7 -20 204 0 233 -12
208 108 222 l62 7 0 59 0 59 -37 -6 c-21 -3 -53 -8 -70 -11 -32 -5 -33 -7 -33
-49 0 -25 -4 -45 -10 -45 -5 0 -10 19 -10 42 0 25 -7 49 -17 60 -15 17 -15 18
0 13 15 -7 55 -1 367 49 80 13 148 23 152 22 3 0 33 -17 67 -36z m-79 -65 c0
-22 -4 -25 -40 -25 -52 0 -53 23 -2 37 20 6 38 11 40 12 1 0 2 -10 2 -24z
m310 22 c0 -2 -7 -18 -16 -36 -11 -21 -15 -51 -12 -90 2 -47 0 -57 -9 -49 -20
16 -17 137 4 160 14 16 33 24 33 15z m50 -42 c9 -10 9 -15 1 -15 -7 0 -11 -24
-11 -66 0 -62 -1 -65 -22 -62 -21 3 -23 9 -26 66 -3 63 7 92 33 92 7 0 18 -7
25 -15z m-715 -25 c0 -10 -12 -16 -32 -18 -32 -3 -45 13 -26 32 13 12 58 2 58
-14z m753 -53 c2 -37 0 -47 -12 -47 -12 0 -16 12 -16 51 0 66 24 62 28 -4z
m-278 -189 c-4 -157 -8 -212 -17 -216 -10 -3 -13 45 -13 216 0 205 1 220 18
216 16 -5 17 -21 12 -216z m300 45 l0 -88 -40 -2 -40 -1 0 42 c0 31 5 44 21
54 11 7 27 29 35 48 8 18 16 34 19 34 3 0 5 -39 5 -87z m-57 46 c-6 -6 -17 -8
-24 -3 -9 5 -8 9 7 14 23 9 31 3 17 -11z m-893 -193 c0 -15 -59 -26 -154 -27
-34 0 -81 -4 -106 -8 -40 -8 -37 -9 38 -10 l82 -1 0 -292 c0 -355 4 -341 -109
-336 l-74 3 2 250 c1 202 8 391 15 396 1 1 262 34 294 38 6 0 12 -5 12 -13z
m1212 -11 c90 -8 166 -15 171 -15 4 0 7 -10 7 -23 0 -20 -4 -23 -32 -19 -18 1
-107 9 -198 17 -91 7 -194 20 -230 29 -36 8 -93 15 -127 16 l-63 0 0 -325 0
-325 -87 0 c-49 0 -179 -3 -290 -7 l-203 -6 0 135 0 136 73 6 c39 3 144 8 232
12 l160 7 43 92 c37 81 44 105 48 182 3 48 8 94 10 102 4 12 32 13 164 7 87
-4 232 -13 322 -21z m-321 -21 c26 -5 26 -6 31 -107 3 -56 6 -203 7 -327 1
-130 6 -226 12 -228 10 -4 13 -292 3 -329 -5 -17 -14 -23 -35 -23 l-28 0 6
173 c4 126 3 176 -5 181 -9 5 -12 -40 -12 -173 l0 -181 -55 0 c-64 0 -63 -2
-68 130 -2 53 -3 42 -3 -30 l1 -115 98 -3 97 -3 0 -45 c0 -33 -4 -46 -17 -51
-10 -3 -30 -15 -45 -25 -23 -16 -48 -18 -220 -17 -201 0 -269 6 -275 25 -3 8
60 10 228 6 173 -4 230 -2 225 7 -5 8 -72 11 -225 11 -163 0 -221 3 -228 13
-6 6 -13 101 -17 209 l-7 197 23 5 c13 3 75 7 138 11 63 3 143 8 178 12 l62 6
0 344 0 345 53 -7 c28 -3 64 -8 78 -11z m81 -121 c2 -132 1 -174 -8 -385 -11
-254 -24 -153 -24 183 0 277 2 319 15 319 12 0 15 -21 17 -117z m-972 93 c0
-10 -13 -16 -37 -18 l-38 -3 0 -155 0 -155 113 -3 113 -3 -3 -137 -3 -137
-142 -3 -143 -3 10 26 c6 15 10 147 10 309 0 155 3 286 7 289 3 4 30 7 60 7
39 0 53 -4 53 -14z m-605 -21 c94 -14 187 -25 207 -25 20 0 40 -4 43 -10 3 -6
-4 -10 -17 -10 -23 0 -45 -11 -90 -43 -24 -16 -30 -16 -193 18 -93 19 -171 35
-174 35 -3 0 8 14 24 30 16 17 29 30 29 30 1 0 78 -11 171 -25z m1756 15 c241
-18 236 -17 241 -50 3 -22 0 -31 -13 -35 -10 -3 -21 -15 -24 -25 -5 -15 -11
-17 -28 -11 -43 16 -133 22 -163 11 -49 -19 -95 -71 -135 -155 l-38 -80 -1
178 c0 139 3 177 13 177 7 0 74 -4 148 -10z m783 -27 c-15 -30 -9 -129 19
-332 15 -107 25 -196 23 -198 -10 -10 -531 -122 -537 -116 -11 11 -60 331 -66
428 -8 132 -18 124 213 169 110 21 226 44 259 51 88 19 99 18 89 -2z m171 -8
c72 -14 140 -27 153 -30 18 -5 22 -12 22 -46 0 -29 -4 -40 -12 -36 -7 2 -58
14 -113 27 -55 12 -104 29 -108 36 -11 20 -37 17 -37 -3 1 -31 38 -103 54
-103 12 0 13 5 4 31 -6 16 -8 32 -6 34 2 2 51 -8 109 -24 l104 -28 6 -89 c4
-49 5 -91 3 -93 -2 -2 -30 2 -61 9 -128 27 -147 30 -154 23 -4 -5 -3 -30 1
-58 12 -69 12 -111 1 -99 -9 8 -43 235 -37 242 2 1 39 -9 82 -22 43 -14 80
-23 83 -21 7 7 3 9 -79 38 -94 34 -110 34 -110 2 0 -53 32 -241 43 -251 13
-12 139 -46 145 -39 10 9 -11 23 -43 29 -24 5 -39 14 -44 29 -9 25 -22 127
-16 127 10 0 168 -40 171 -43 2 -2 9 -39 14 -82 5 -43 14 -83 19 -89 5 -6 10
-31 12 -56 l4 -46 -120 37 c-177 55 -185 59 -190 82 -2 12 -14 87 -25 167 -11
80 -26 180 -32 223 -11 71 -10 81 7 112 10 19 19 35 19 35 1 0 60 -11 131 -25z
m-2761 -70 c93 -19 170 -35 172 -35 2 0 5 -12 5 -27 l2 -28 4 27 c5 29 55 78
80 78 11 0 8 -6 -10 -20 -14 -12 -36 -38 -48 -60 -12 -22 -25 -38 -28 -35 -3
2 -19 -44 -35 -102 l-30 -106 31 -26 31 -26 -11 -67 c-9 -52 -15 -65 -25 -59
-11 6 -11 17 -2 52 23 89 22 85 11 69 -6 -8 -27 -66 -47 -127 -20 -62 -39
-115 -44 -118 -6 -4 -232 77 -363 130 -12 5 -16 13 -12 24 6 16 83 272 125
419 11 39 22 72 23 72 2 0 79 -16 171 -35z m774 -97 c10 -13 30 -18 64 -18 48
0 48 0 48 -34 l0 -33 -82 -6 c-46 -4 -102 -7 -125 -7 l-42 0 57 76 c42 57 58
72 61 58 1 -11 10 -27 19 -36z m1108 -21 c-53 -69 -96 -216 -96 -328 0 -51 0
-52 -20 -34 -15 13 -20 31 -20 64 0 72 26 177 59 237 16 30 25 51 20 48 -35
-21 -99 -215 -99 -300 0 -31 -2 -35 -15 -24 -19 16 -19 51 0 125 36 138 111
245 171 245 l25 0 -25 -33z m-1591 13 c4 -6 -7 -38 -24 -72 -17 -34 -31 -70
-31 -80 0 -10 -7 -21 -15 -24 -8 -4 -15 -15 -15 -26 0 -16 -3 -18 -13 -10 -20
17 -14 101 11 153 26 53 72 84 87 59z m1661 -21 c-68 -59 -116 -202 -116 -345
0 -124 33 -209 90 -227 8 -2 2 -3 -15 -1 -59 8 -95 81 -102 208 -10 188 69
396 152 396 26 0 26 0 -9 -31z m0 -116 c-30 -46 -57 -135 -67 -223 -7 -61 -8
-60 -4 20 5 96 25 175 56 214 31 40 43 31 15 -11z m-1652 -135 c-7 -147 -8
-152 -22 -118 -11 26 -13 56 -8 120 7 87 23 166 33 157 3 -3 2 -75 -3 -159z
m-77 35 c-3 -10 -5 -4 -5 12 0 17 2 24 5 18 2 -7 2 -21 0 -30z m1812 -95 c6
-35 13 -82 17 -105 l7 -43 -51 0 c-28 0 -54 5 -58 11 -4 7 -7 49 -8 96 -1 91
5 103 55 103 25 0 28 -4 38 -62z m611 -79 c0 -27 -2 -30 -15 -19 -19 16 -20 2
-1 -19 12 -14 58 -240 50 -249 -6 -8 -454 -115 -459 -110 -3 3 -63 312 -61
315 2 3 347 83 360 83 8 0 16 -12 19 -27 4 -27 4 -27 6 4 1 27 6 32 39 41 58
16 62 15 62 -19z m-2500 -10 c0 -10 5 -19 11 -19 8 0 8 -4 1 -13 -13 -15 -125
-377 -119 -383 6 -6 17 25 77 215 l52 163 25 -25 25 -25 -46 -166 c-25 -91
-46 -173 -46 -180 0 -8 -5 -18 -11 -21 -5 -4 -87 20 -182 53 -95 34 -192 67
-217 75 -54 17 -53 13 -9 175 21 75 36 112 45 112 25 0 25 -25 0 -112 -13 -47
-27 -103 -31 -124 -10 -65 10 -18 39 91 15 56 31 106 35 113 5 8 38 -1 116
-33 61 -25 115 -45 122 -45 21 0 50 49 68 114 13 46 21 63 31 59 8 -3 14 -14
14 -24z m1240 22 c-25 -13 -551 -34 -564 -21 -5 5 -8 11 -5 11 4 2 400 14 514
17 42 1 64 -2 55 -7z m1334 -124 c9 -55 18 -103 20 -105 6 -5 198 -33 202 -29
2 2 -3 41 -10 88 -8 46 -12 86 -11 87 2 2 17 1 33 -3 29 -6 30 -9 41 -83 6
-42 13 -98 16 -124 l5 -48 -48 0 c-65 0 -232 26 -244 38 -11 11 -47 209 -48
259 0 23 4 31 14 27 8 -3 19 -43 30 -107z m-2130 62 c3 -17 6 -61 7 -98 0 -36
6 -124 13 -196 8 -71 12 -133 9 -137 -2 -5 -42 -8 -88 -8 -71 0 -84 3 -89 18
-3 9 -17 100 -31 202 -14 102 -27 197 -30 211 -2 15 -1 29 2 33 4 3 50 6 103
6 l98 0 6 -31z m216 -13 c0 -35 18 -265 33 -421 2 -19 -6 -20 -153 -27 -98 -5
-158 -4 -164 2 -7 7 11 10 52 10 43 0 62 4 62 13 0 6 -7 98 -15 202 -8 105
-15 207 -15 228 l0 37 100 0 100 0 0 -44z m2082 -26 c4 -47 -7 -54 -16 -9 -5
27 -2 49 9 49 1 0 5 -18 7 -40z m-752 -26 c0 -8 -4 -12 -10 -9 -5 3 -10 13
-10 21 0 8 5 12 10 9 6 -3 10 -13 10 -21z m-1146 -36 c3 -29 6 -83 6 -120 l0
-68 -60 0 c-68 0 -64 -9 -76 153 l-6 87 65 0 64 0 7 -52z m681 -128 c10 -11
22 -20 27 -20 5 0 36 -18 70 -41 l60 -41 -6 -87 c-3 -47 -8 -147 -11 -221 -3
-74 -8 -179 -11 -232 l-6 -98 -66 0 c-36 0 -117 5 -180 12 l-115 11 7 160 c4
88 9 164 12 169 3 4 23 8 44 8 60 0 70 7 70 50 0 22 5 42 10 45 15 9 12 27 -2
19 -7 -4 -1 6 15 23 l27 29 1 185 1 184 17 -67 c10 -37 26 -77 36 -88z m1148
115 c23 -4 37 -11 37 -20 0 -29 -96 -13 -103 16 -4 15 -1 19 11 15 9 -2 34 -7
55 -11z m-739 -167 c-3 -62 -9 -184 -13 -271 -4 -86 -10 -159 -13 -162 -3 -3
-29 5 -58 17 l-53 22 8 142 7 143 -39 -11 c-21 -5 -41 -13 -44 -16 -4 -4 -9
-64 -12 -134 l-7 -127 58 -21 c156 -56 142 -47 142 -93 0 -23 -3 -72 -7 -109
l-6 -68 -113 0 -114 0 0 51 c0 28 5 172 11 319 8 196 7 274 -1 289 -9 19 -8
21 14 21 14 0 27 -4 30 -9 3 -5 17 -11 31 -14 35 -6 80 26 129 91 21 29 43 52
47 52 5 0 7 -51 3 -112z m-1076 -116 l3 -63 -58 3 -58 3 -3 63 -3 63 58 -3 58
-3 3 -63z m1740 -55 c5 -32 6 -59 3 -61 -3 -2 -27 -7 -52 -11 -52 -8 -50 -10
-64 87 -7 44 -6 46 14 41 26 -7 71 21 72 45 1 24 16 -32 27 -101z m123 90 c8
-11 22 -147 16 -153 -2 -2 -24 -1 -50 2 -51 7 -51 8 -63 111 l-7 63 49 -7 c27
-3 52 -10 55 -16z m-2941 -74 c36 -13 69 -28 73 -33 8 -7 -18 -70 -29 -70 -7
0 -158 52 -163 57 -2 1 1 21 8 44 10 32 16 39 29 34 9 -4 46 -18 82 -32z
m2596 -39 c26 3 52 10 59 16 9 7 14 -3 22 -36 8 -33 8 -47 -1 -50 -37 -13
-161 -33 -167 -27 -4 5 -10 37 -14 72 l-7 63 30 -22 c26 -19 38 -22 78 -16z
m-2716 -54 c143 -47 432 -182 459 -213 14 -18 -133 41 -189 76 -31 19 -33 19
-20 2 8 -10 65 -43 127 -72 62 -29 115 -58 118 -63 4 -6 -51 -100 -122 -210
-70 -109 -145 -227 -166 -260 l-38 -61 -62 50 c-34 28 -83 65 -109 82 l-47 32
55 108 c30 60 52 109 49 109 -3 0 -27 -45 -55 -99 -27 -55 -54 -102 -59 -105
-7 -5 -63 14 -90 31 -5 3 95 226 151 336 27 53 56 97 63 97 7 0 29 -7 50 -16
43 -18 57 -12 23 9 -24 16 -293 107 -314 107 -14 0 -218 -389 -209 -398 7 -7
-1 -20 109 188 54 102 99 186 101 188 3 4 187 -56 203 -66 10 -7 4 -22 -22
-65 -19 -32 -65 -127 -102 -212 -38 -85 -74 -155 -81 -155 -6 0 -63 20 -126
45 -64 25 -123 45 -131 45 -9 0 -16 3 -16 6 0 18 224 509 242 531 13 16 25 13
208 -47z m1191 -207 c1 -126 5 -239 10 -253 5 -14 6 81 2 228 l-5 252 50 0
c27 0 64 -3 81 -6 l31 -6 2 -247 2 -246 6 245 c3 135 7 246 8 248 1 1 7 2 12
2 15 0 13 -493 -1 -507 -15 -15 -438 -5 -456 10 -10 7 -13 71 -13 258 l0 249
135 0 135 0 1 -227z m2066 166 c51 -34 98 -68 104 -75 25 -31 -1 -22 -67 21
-38 25 -73 45 -79 45 -5 0 23 -22 64 -50 41 -27 77 -55 81 -62 7 -15 -5 -466
-13 -474 -3 -3 -22 -1 -43 5 -20 6 -41 8 -46 5 -14 -9 -10 -126 5 -122 6 3 13
25 15 51 3 46 4 47 30 41 15 -4 30 -9 35 -11 6 -4 11 -143 4 -143 -1 0 -33 9
-71 20 -38 11 -71 18 -73 17 -2 -2 -6 -38 -9 -81 -4 -43 -11 -73 -16 -68 -9 9
4 206 16 233 6 13 -5 19 -53 33 -50 14 -61 21 -61 38 0 21 0 21 -14 2 -8 -10
-17 -17 -19 -14 -3 3 -1 78 4 168 11 175 9 315 -3 272 -4 -14 -10 -118 -14
-232 l-6 -208 -30 0 c-23 0 -29 4 -24 15 3 9 10 120 16 248 6 127 12 253 13
280 1 26 5 47 10 47 4 0 19 0 33 0 28 0 29 -7 9 -80 -6 -24 -6 -24 19 5 14 17
36 54 48 83 12 28 26 52 32 52 5 0 52 -28 103 -61z m-1135 -31 c-6 -69 -12
-75 -12 -11 0 41 5 63 15 63 1 0 0 -24 -3 -52z m-1852 17 c14 -19 14 -19 -2
-6 -10 7 -18 18 -18 24 0 6 1 8 3 6 1 -2 9 -13 17 -24z m2706 -147 c-3 -95 -9
-223 -12 -283 l-7 -111 -250 -42 c-138 -23 -251 -41 -252 -39 -1 1 2 45 6 97
5 52 13 175 18 273 5 98 12 181 15 185 10 9 413 90 455 91 l34 1 -7 -172z
m-2086 -44 c0 -74 -4 -113 -10 -109 -18 11 -12 225 6 225 2 0 4 -52 4 -116z
m600 -88 c-41 -11 -45 -15 -48 -45 -2 -18 2 -38 8 -45 8 -10 7 -15 -5 -20 -12
-4 -15 5 -15 54 0 56 1 59 28 63 57 9 76 5 32 -7z m-1782 -227 c181 -68 221
-89 322 -169 135 -108 130 -98 80 -175 -23 -36 -47 -65 -52 -65 -10 0 -118 71
-159 105 -14 11 -24 25 -22 31 2 6 -11 10 -31 9 -19 0 -33 1 -31 4 3 2 -52 25
-123 51 -146 54 -180 70 -206 99 -19 21 -19 22 3 69 34 70 50 92 67 92 9 0 77
-23 152 -51z m1064 -50 c27 -6 77 -14 113 -17 l66 -7 -59 -64 -58 -64 -122 13
c-67 7 -122 18 -122 23 0 12 41 69 79 110 15 17 31 25 41 22 8 -4 36 -11 62
-16z m1227 -4 c53 -45 79 -116 92 -254 l13 -124 -30 -26 c-16 -14 -45 -38 -64
-52 l-33 -25 12 -140 12 -139 -42 -38 c-24 -21 -48 -36 -55 -33 -7 3 -14 -7
-18 -25 -4 -19 -14 -33 -31 -39 -34 -13 -346 -13 -379 -1 -20 8 -26 19 -32 56
-6 43 8 150 22 164 3 3 84 6 179 6 170 0 173 0 162 20 -6 11 -21 120 -33 243
-19 191 -20 229 -9 270 20 75 34 105 63 135 22 23 34 27 83 27 47 0 63 -5 88
-25z m-789 -17 l0 -28 -103 0 c-57 0 -106 2 -109 5 -3 3 -3 17 0 31 l5 25 103
-3 104 -3 0 -27z m90 10 c-1 -39 -12 -55 -37 -50 -27 5 -38 23 -29 47 7 18 66
21 66 3z m1649 -21 c7 -10 8 -74 3 -218 l-7 -204 -70 -6 c-38 -3 -138 -9 -220
-13 l-150 -7 -33 153 c-36 169 -38 200 -19 217 10 8 414 85 473 90 6 1 17 -5
23 -12z m-1205 -73 c-14 -38 -30 -75 -36 -81 -7 -9 -47 -13 -134 -13 -93 0
-124 3 -124 13 0 17 55 110 74 127 11 8 41 13 84 12 37 -1 87 2 112 6 25 5 46
7 48 7 1 -1 -9 -33 -24 -71z m1273 -31 c-4 -54 -9 -150 -12 -213 -7 -169 10
-80 25 125 6 93 12 171 14 172 2 3 107 -24 112 -29 1 -2 -1 -59 -6 -128 -6
-68 -9 -125 -7 -126 1 -1 18 -5 38 -9 32 -6 37 -4 42 17 4 12 7 47 7 77 0 42
3 52 14 48 8 -3 34 -11 57 -17 l42 -11 -5 -150 c-3 -82 -7 -152 -10 -155 -3
-2 -61 5 -129 17 -95 16 -146 20 -219 15 -259 -16 -265 -16 -231 -7 19 5 69
12 111 16 42 4 82 10 87 13 7 5 14 88 18 225 l8 217 25 0 25 0 -6 -97z m-2060
-20 c-2 -21 -4 -6 -4 32 0 39 2 55 4 38 2 -18 2 -50 0 -70z m249 73 c1 0 4
-38 6 -83 l5 -83 -106 6 c-58 3 -112 7 -118 10 -9 2 -13 28 -13 84 l0 80 113
-6 c61 -4 113 -7 113 -8z m66 -74 c-3 -58 1 -75 27 -127 l30 -60 -30 35 c-51
58 -69 103 -69 168 0 56 1 59 23 55 21 -4 22 -9 19 -71z m182 26 c-30 -61 -40
-73 -29 -39 8 26 45 91 51 91 2 0 -8 -24 -22 -52z m-729 -38 c44 -6 92 -13
107 -16 l26 -5 -38 -72 c-21 -40 -52 -109 -70 -155 l-33 -83 -80 7 c-95 8 -97
6 -97 -88 0 -85 16 -89 25 -7 l7 60 80 -3 80 -3 32 90 c37 101 99 230 117 241
15 9 12 -16 -30 -261 -17 -99 -38 -227 -46 -285 -8 -57 -19 -108 -25 -114 -8
-8 -227 13 -314 30 l-28 6 6 102 c4 55 7 137 8 181 0 58 10 112 34 198 50 174
66 200 123 192 20 -3 72 -10 116 -15z m-1119 -31 c81 -22 156 -45 166 -50 16
-9 14 -16 -25 -77 -60 -93 -59 -92 -49 -92 5 0 31 36 58 79 38 63 51 78 62 69
7 -6 11 -17 8 -25 -4 -9 -1 -11 5 -7 7 4 10 1 7 -7 -3 -8 -10 -14 -15 -14 -6
0 -15 -4 -20 -9 -5 -5 -3 -6 5 -2 24 14 11 -10 -22 -42 -19 -18 -38 -41 -41
-52 -5 -16 -12 -19 -33 -14 -15 4 -33 11 -40 17 -8 6 -35 14 -60 17 -78 11
-266 53 -276 61 -13 11 84 189 104 189 9 0 84 -18 166 -41z m2119 -41 c11 -51
43 -383 37 -389 -4 -4 -74 -8 -157 -10 l-150 -4 -28 110 c-17 65 -31 150 -34
207 l-6 97 149 4 c82 1 157 4 166 5 11 1 20 -6 23 -20z m-809 -126 c-6 -10 14
-92 23 -92 4 0 6 -16 6 -35 -1 -19 2 -35 7 -35 5 0 6 -4 3 -10 -3 -5 -2 -10 3
-10 5 0 17 -18 27 -40 10 -22 22 -40 26 -40 5 0 18 -18 29 -40 14 -27 25 -38
35 -34 9 4 15 0 15 -9 0 -9 -32 -26 -87 -47 -49 -18 -107 -43 -130 -55 l-43
-24 0 22 c0 33 64 410 75 445 3 6 7 12 10 12 4 0 4 -4 1 -8z m-922 -47 c15
-19 35 -35 46 -35 10 0 32 -19 49 -42 30 -40 31 -44 14 -56 -10 -7 -31 -12
-47 -10 -26 3 -37 15 -78 83 -61 101 -63 86 -3 -20 25 -44 41 -83 37 -87 -11
-11 -27 13 -71 101 -31 60 -31 64 -15 82 24 27 38 24 68 -16z m1397 -120 c25
-107 27 -132 22 -232 l-6 -112 29 -28 c25 -23 32 -42 43 -108 7 -44 19 -90 27
-103 13 -19 13 -26 -1 -52 -13 -26 -14 -50 -4 -192 6 -90 12 -194 13 -232 l1
-70 -53 -15 c-55 -17 -72 -32 -72 -66 0 -19 -6 -20 -112 -17 -62 2 -118 5
-124 7 -8 2 -14 61 -19 169 l-7 165 36 58 c35 57 36 61 35 153 -1 52 -4 129
-8 170 -6 69 -8 76 -33 88 -16 7 -28 17 -28 21 0 8 41 126 61 178 12 29 11 34
-5 46 -18 14 -19 17 -2 108 10 52 22 116 28 142 l10 48 70 -3 71 -3 28 -120z
m705 -16 c7 -68 6 -69 -30 -114 -21 -25 -41 -43 -45 -40 -4 2 -11 51 -15 107
l-7 103 38 32 38 32 7 -26 c4 -14 10 -57 14 -94z m-2140 17 c13 -22 14 -28 3
-19 -8 6 -25 31 -38 55 -19 36 -19 39 -3 19 11 -14 28 -38 38 -55z m-366 24
c47 -11 119 -26 160 -34 57 -10 66 -14 37 -15 -32 -1 -176 24 -332 58 l-40 9
45 1 c24 0 83 -8 130 -19z m-34 -35 c97 -19 179 -37 182 -40 3 -2 4 -42 2 -87
-1 -46 -5 -164 -9 -264 l-6 -181 -115 32 c-87 24 -116 36 -118 49 -3 13 1 17
15 12 70 -20 73 -20 73 12 0 17 -4 34 -10 37 -6 4 -10 -5 -10 -20 0 -23 -3
-25 -22 -20 -13 4 -31 9 -40 11 -10 3 -18 14 -18 24 0 22 -5 25 -47 34 -26 6
-32 4 -38 -13 -5 -17 -10 -19 -26 -11 -16 9 -19 22 -19 75 0 37 -4 65 -10 65
-6 0 -10 -31 -10 -74 l0 -73 32 -7 c77 -15 108 -27 108 -42 0 -17 -23 -14
-114 15 l-51 16 -3 243 -2 242 39 0 c22 0 119 -16 217 -35z m3030 -57 c-3 -50
-8 -93 -10 -95 -2 -2 -27 -6 -55 -10 l-52 -6 6 79 c10 129 8 124 67 124 l51 0
-7 -92z m568 14 c5 -9 -20 -221 -26 -228 -3 -3 -17 -2 -32 2 l-26 6 4 114 c3
63 7 118 11 123 6 10 61 -4 69 -17z m-3004 9 c0 -5 3 -16 6 -24 4 -12 -9 -20
-50 -33 -56 -18 -71 -15 -78 15 -2 8 16 20 47 31 58 21 75 24 75 11z m2680
-40 c0 -26 -3 -69 -6 -94 l-6 -45 -55 -4 -55 -3 7 90 c4 49 9 93 12 97 2 5 26
8 54 8 l49 0 0 -49z m-148 -76 l3 -100 98 2 c91 2 97 1 97 -17 0 -19 -7 -20
-125 -20 l-125 0 0 36 c0 56 32 216 41 207 5 -5 10 -53 11 -108z m532 104 c-5
-8 3 -10 25 -7 30 4 31 3 30 -31 0 -20 -6 -74 -12 -121 l-12 -85 -34 -3 c-18
-2 -37 0 -42 5 -13 13 17 234 33 244 18 12 20 11 12 -2z m-3324 -20 c0 -5 -4
-7 -10 -4 -6 4 -10 -16 -10 -53 0 -46 -4 -63 -19 -77 -18 -15 -24 -16 -50 -4
-29 13 -31 18 -31 66 0 78 4 83 66 83 31 0 54 -4 54 -11z m3150 -28 c0 -16 5
-31 10 -33 7 -2 6 -27 -3 -73 l-12 -70 -58 -3 -57 -3 0 83 c0 125 2 128 66
128 53 0 54 -1 54 -29z m-899 -158 l12 -152 -59 -65 c-37 -40 -63 -61 -69 -55
-16 16 -38 10 -67 -18 -15 -14 -30 -24 -32 -22 -3 3 -14 48 -26 102 -20 94
-21 98 -3 120 25 32 89 87 101 87 5 0 15 -58 22 -130 7 -71 17 -130 23 -130 5
0 6 21 3 48 -3 26 -11 96 -17 156 l-11 108 43 44 c23 24 46 41 51 38 5 -3 8
-2 7 3 -2 14 1 27 5 22 3 -2 10 -73 17 -156z m-1982 33 c-5 -60 -10 -110 -11
-111 -2 -1 -20 -5 -40 -9 -34 -6 -38 -5 -38 14 0 12 -4 18 -10 15 -6 -4 -10
26 -10 83 l0 90 58 14 c31 8 58 14 58 14 1 -1 -2 -50 -7 -110z m2703 66 c1
-23 -2 -45 -5 -49 -4 -3 -7 18 -7 47 0 62 9 63 12 2z m-2855 6 c-3 -8 -6 -5
-6 6 -1 11 2 17 5 13 3 -3 4 -12 1 -19z m32 -156 c1 -27 -3 -41 -9 -37 -6 4
-9 49 -8 108 1 99 1 100 8 37 4 -36 8 -84 9 -108z m2563 41 c11 -46 18 -59 38
-64 15 -5 -3 -7 -44 -6 l-68 2 -19 60 c-10 33 -19 61 -19 63 0 1 22 2 49 2
l49 0 14 -57z m-2802 32 c9 -11 11 -38 7 -96 -6 -78 -6 -81 16 -87 22 -6 22
-6 -3 -13 -58 -16 -60 -14 -60 55 0 77 10 156 20 156 4 0 13 -7 20 -15z m1314
-3 c3 -5 -34 -19 -81 -31 -48 -12 -89 -24 -92 -27 -2 -2 -7 -48 -10 -102 l-6
-97 -35 0 c-41 0 -54 21 -64 105 -6 54 -6 55 28 78 19 13 77 35 128 49 51 13
95 26 97 29 7 7 30 4 35 -4z m14 -34 c-4 -11 -58 -24 -58 -13 0 6 38 23 53 24
5 1 7 -4 5 -11z m-1211 -90 c-3 -7 -5 -2 -5 12 0 14 2 19 5 13 2 -7 2 -19 0
-25z m3188 22 c7 -12 -19 -12 -55 0 -22 7 -21 8 12 9 20 1 40 -3 43 -9z
m-2585 -92 c0 -73 -3 -89 -12 -80 -8 8 -14 47 -17 92 -3 68 -1 80 13 80 14 0
16 -14 16 -92z m137 76 l62 -6 5 -37 c2 -20 5 -52 5 -72 0 -20 5 -48 11 -64
10 -25 9 -27 -12 -22 -13 3 -56 9 -96 13 -42 4 -79 13 -88 21 -10 10 -14 39
-14 100 l0 85 33 -5 c17 -4 60 -9 94 -13z m2306 -1 c-13 -2 -33 -2 -45 0 -13
2 -3 4 22 4 25 0 35 -2 23 -4z m-2183 -103 c0 -55 -4 -100 -9 -100 -14 0 -21
26 -27 116 -7 81 -6 84 15 84 20 0 21 -4 21 -100z m-700 25 c0 -30 -4 -55 -10
-55 -5 0 -11 5 -11 10 -1 6 -2 15 -3 21 -1 12 -36 29 -47 23 -3 -2 -4 7 -1 21
4 23 17 31 55 34 14 1 17 -8 17 -54z m1474 23 c2 -7 10 -48 18 -90 l14 -78
-22 0 c-13 0 -25 8 -28 18 -7 24 -26 133 -26 149 0 17 39 17 44 1z m220 -39
c9 -63 31 -124 63 -166 l24 -33 -115 0 -114 0 -17 48 c-9 26 -21 56 -25 68 -5
12 -11 46 -15 77 l-7 57 100 0 99 0 7 -51z m71 39 c29 -93 56 -211 51 -224
-18 -46 -91 84 -102 181 -7 55 -7 55 20 55 15 0 28 -6 31 -12z m-1935 -13 c6
4 10 -13 10 -48 l0 -55 -80 -20 -80 -20 0 48 0 49 58 11 c72 15 76 18 60 38
-12 15 -11 16 4 4 9 -8 22 -11 28 -7z m70 -25 c0 -5 -4 -10 -10 -10 -19 0 -10
-31 12 -39 21 -8 21 -8 -5 -13 -26 -5 -27 -3 -27 33 0 28 4 39 15 39 8 0 15
-4 15 -10z m1184 -91 c6 -61 5 -67 -14 -72 -11 -3 -18 -2 -16 1 2 4 -7 18 -21
32 l-24 25 15 -37 c13 -30 13 -37 2 -41 -8 -3 -17 1 -20 9 -3 8 -19 14 -42 14
-29 0 -44 -8 -76 -39 -37 -38 -39 -43 -36 -93 3 -44 7 -55 29 -67 32 -18 67
-10 108 25 26 22 31 33 31 72 0 42 3 49 31 65 18 10 34 15 38 11 3 -3 5 -32 4
-64 -1 -58 -15 -90 -57 -138 -17 -20 -20 -34 -18 -87 l4 -64 -50 6 c-43 5 -58
2 -96 -21 l-44 -26 -6 38 c-3 20 -8 106 -11 190 -5 113 -4 156 5 167 10 12 10
15 -3 15 -36 0 -39 -23 -32 -216 l8 -187 -39 7 c-98 17 -91 11 -97 79 -9 102
-6 99 -131 113 l-59 7 6 -43 c3 -23 11 -48 18 -54 9 -8 10 -3 5 23 l-6 34 62
-7 c34 -3 63 -7 64 -9 2 -2 6 -29 10 -61 l7 -58 -89 8 c-49 5 -108 8 -130 8
-41 -1 -42 0 -48 35 -3 20 -8 112 -12 205 l-7 169 24 -7 c37 -12 300 -55 338
-55 32 -1 90 23 281 115 47 23 86 41 86 40 1 0 4 -31 8 -67z m-1157 55 c-3 -3
-12 -4 -19 -1 -8 3 -5 6 6 6 11 1 17 -2 13 -5z m40 -10 c-3 -3 -12 -4 -19 -1
-8 3 -5 6 6 6 11 1 17 -2 13 -5z m2162 -107 c1 -11 -3 -15 -11 -11 -6 4 -21
-4 -34 -21 l-22 -28 -27 42 -26 42 38 47 37 46 23 -50 c12 -27 22 -57 22 -67z
m-43 -144 c23 -18 26 -26 21 -58 -8 -46 -23 -65 -53 -65 -34 0 -47 40 -41 123
3 37 4 67 1 67 -9 0 -34 -69 -34 -92 0 -42 20 -95 50 -133 24 -31 30 -47 30
-89 0 -60 9 -96 22 -96 6 0 7 9 3 23 -14 44 -17 85 -6 91 6 4 14 0 17 -8 5
-14 9 -14 34 -1 l27 14 6 -72 c3 -39 5 -73 3 -74 -2 -2 -16 1 -31 7 -21 8 -34
7 -58 -5 -27 -13 -31 -13 -41 1 -7 9 -39 19 -81 25 -39 5 -89 12 -112 16 l-41
5 -7 69 c-4 37 -13 73 -20 79 -6 5 -47 13 -90 17 l-77 6 4 -76 3 -77 -26 0
c-14 0 -37 -8 -50 -18 -30 -23 -57 -33 -63 -24 -2 4 -9 84 -15 177 -6 94 -13
186 -15 206 -6 54 7 69 36 42 21 -19 41 -23 201 -33 201 -12 190 -15 272 69
l40 42 32 -68 c18 -37 44 -78 59 -90z m104 -18 c0 -74 -4 -99 -22 -135 -32
-60 -54 -72 -79 -41 l-20 24 26 27 c17 18 29 43 32 71 3 24 9 49 13 54 5 6 11
37 15 69 7 53 9 58 21 41 10 -13 14 -49 14 -110z m-1223 109 c-3 -3 -12 -4
-19 -1 -8 3 -5 6 6 6 11 1 17 -2 13 -5z m1170 -35 c-5 -40 -13 -57 -21 -48 -9
8 7 89 17 89 6 0 7 -17 4 -41z m-1217 11 c-6 -11 -13 -20 -16 -20 -2 0 0 9 6
20 6 11 13 20 16 20 2 0 0 -9 -6 -20z m77 -32 c-3 -8 -6 -5 -6 6 -1 11 2 17 5
13 3 -3 4 -12 1 -19z m-94 -50 c4 -12 4 -24 1 -27 -6 -7 -24 20 -24 37 0 21
17 13 23 -10z m861 -205 c2 -16 7 -45 11 -66 l6 -38 -68 7 c-37 4 -69 7 -69 8
-1 0 -5 27 -8 59 l-7 57 64 0 c63 0 66 -1 71 -27z m-804 -38 c0 -3 -14 -18
-31 -33 -67 -59 -74 -71 -80 -140 l-5 -67 -2 86 c-2 77 0 88 21 107 34 32 97
62 97 47z m35 -15 c3 -6 -1 -7 -9 -4 -18 7 -21 14 -7 14 6 0 13 -4 16 -10z
m-452 -12 c59 -6 107 -14 107 -18 0 -3 -25 -14 -56 -23 -54 -17 -64 -17 -200
0 -79 9 -142 19 -139 21 7 8 111 30 145 31 19 1 83 -4 143 -11z m474 -20 c-3
-8 -6 -5 -6 6 -1 11 2 17 5 13 3 -3 4 -12 1 -19z m-245 -13 c25 -6 27 -10 33
-91 9 -99 4 -118 -26 -109 -16 5 -19 4 -14 -6 6 -9 4 -11 -7 -6 -9 3 -19 2
-24 -3 -8 -6 -42 -18 -161 -55 -10 -3 -13 24 -13 115 l0 119 78 25 c42 14 84
23 92 21 8 -2 27 -7 42 -10z m-414 -19 c95 -13 175 -26 178 -29 3 -3 3 -57 -1
-121 l-7 -114 -32 4 c-42 6 -312 34 -326 34 -11 0 -15 232 -3 243 8 9 -9 10
191 -17z m1471 -43 l85 -6 -49 -25 c-48 -24 -52 -24 -207 -17 -88 4 -171 10
-186 14 -26 7 -24 9 28 29 58 23 81 23 329 5z m192 -19 c8 -10 13 -48 13 -111
l1 -96 -98 -40 c-54 -21 -100 -37 -103 -34 -3 3 -3 56 1 117 l8 112 71 34 c80
39 89 40 107 18z m122 5 c12 -7 25 -17 29 -23 11 -16 10 -48 -2 -41 -5 3 -10
1 -10 -5 0 -13 -61 -41 -73 -33 -4 2 -5 -15 -2 -39 3 -33 3 -37 -4 -18 -16 44
-13 132 6 152 19 21 27 22 56 7z m-563 -44 c69 -3 149 -8 178 -11 l52 -6 0
-124 c0 -111 -2 -124 -17 -124 -57 0 -459 33 -465 39 -6 5 3 115 17 198 6 34
25 43 80 37 17 -2 86 -6 155 -9z"/>
<path fill="red" d="M2597 3133 c-4 -3 -7 -33 -7 -65 l0 -59 73 3 72 3 3 56 c3 56 3 56
-29 63 -41 8 -104 8 -112 -1z m123 -58 l0 -45 -55 0 -55 0 0 45 0 45 55 0 55
0 0 -45z"/>
<path fill="#4A90E2" d="M3703 3850 c-228 -50 -227 -50 -217 -60 10 -9 381 72 411 89 17 10
16 10 -2 10 -11 0 -98 -18 -192 -39z"/>
<path fill="#4A90E2" d="M3475 3643 c9 -92 42 -283 49 -290 3 -4 8 -4 10 -2 8 8 -48 359 -57
359 -6 0 -6 -28 -2 -67z"/>
<path fill="#4A90E2" d="M1472 3678 c-23 -79 -42 -148 -42 -155 0 -6 9 -18 20 -26 19 -13 19
-14 -5 -91 -13 -43 -26 -80 -28 -82 -1 -2 -72 24 -157 56 -143 56 -198 73
-159 50 23 -13 304 -120 316 -120 5 0 21 37 36 83 14 45 30 81 36 80 19 -5 12
16 -9 27 -28 15 -26 49 15 189 39 133 38 131 27 131 -4 0 -27 -64 -50 -142z"/>
<path fill="#4A90E2" d="M1601 3634 c0 -11 3 -14 6 -6 3 7 2 16 -1 19 -3 4 -6 -2 -5 -13z"/>
<path fill="#4A90E2" d="M3638 3273 c7 -3 16 -2 19 1 4 3 -2 6 -13 5 -11 0 -14 -3 -6 -6z"/>
<path fill="#4A90E2" d="M3820 3085 c-80 -19 -154 -39 -165 -44 l-20 -10 20 0 c28 -1 318 70
330 80 15 14 -9 10 -165 -26z"/>
<path fill="#4A90E2" d="M3148 2860 c-5 -80 -7 -217 -6 -305 l1 -160 9 235 c4 129 7 267 6
305 -2 49 -5 26 -10 -75z"/>
<path fill="#4A90E2" d="M1400 2543 c-50 -83 -201 -386 -197 -396 2 -6 54 87 115 208 62 120
110 220 108 222 -2 2 -14 -13 -26 -34z"/>
<path fill="#4A90E2" d="M4348 2521 c-61 -72 -62 -233 -2 -280 34 -27 109 -38 131 -20 64 53
69 218 9 293 -16 21 -33 29 -67 33 -41 5 -48 2 -71 -26z m135 -32 c30 -41 35
-143 9 -202 -18 -41 -25 -47 -52 -47 -44 0 -89 26 -96 55 -3 14 -4 57 -2 95 3
60 7 73 33 100 37 38 79 38 108 -1z"/>
<path fill="#4A90E2" d="M4386 2434 c-3 -9 -6 -38 -6 -64 0 -62 23 -81 53 -43 24 30 25 65 3
98 -19 28 -41 33 -50 9z"/>
<path fill="#4A90E2" d="M4020 2542 c0 -44 -3 -127 -7 -186 -6 -97 -8 -107 -27 -111 -12 -2
-81 -15 -155 -29 -128 -24 -150 -30 -140 -41 7 -7 329 51 339 61 4 5 11 93 15
197 7 169 6 187 -9 187 -13 0 -16 -13 -16 -78z"/>
<path fill="#4A90E2" d="M3115 2093 c-37 -36 -47 -125 -21 -187 25 -61 85 -56 112 9 25 61 14
127 -28 173 -26 26 -41 28 -63 5z m39 -31 c-32 -21 -45 -103 -24 -143 6 -11 7
-19 1 -19 -13 0 -21 26 -21 75 0 53 17 95 39 95 10 0 12 -3 5 -8z m3 -154 c-3
-7 -5 -2 -5 12 0 14 2 19 5 13 2 -7 2 -19 0 -25z"/>
<path fill="#4A90E2" d="M3012 1860 c0 -19 2 -27 5 -17 2 9 2 25 0 35 -3 9 -5 1 -5 -18z"/>
<path fill="#4A90E2" d="M3023 1780 c0 -25 2 -35 4 -22 2 12 2 32 0 45 -2 12 -4 2 -4 -23z"/>
<path fill="#4A90E2" d="M3033 1690 c0 -25 2 -35 4 -22 2 12 2 32 0 45 -2 12 -4 2 -4 -23z"/>
<path fill="#4A90E2" d="M3042 1615 c0 -16 5 -66 13 -110 7 -44 13 -66 13 -50 0 17 -5 66 -13
110 -7 44 -13 67 -13 50z"/>
<path fill="#4A90E2" d="M3072 1395 c0 -16 2 -22 5 -12 2 9 2 23 0 30 -3 6 -5 -1 -5 -18z"/>
<path fill="#4A90E2" d="M2750 1310 c-32 -10 127 -10 225 0 60 6 50 7 -65 7 -74 1 -146 -3
-160 -7z"/>
<path fill="#4A90E2" d="M1942 1633 c9 -10 18 -25 21 -33 4 -11 6 -9 6 6 1 21 -16 44 -33 44
-5 0 -2 -8 6 -17z"/>
<path fill="#4A90E2" d="M1953 1540 c0 -25 2 -35 4 -22 2 12 2 32 0 45 -2 12 -4 2 -4 -23z"/>
<path fill="#4A90E2" d="M1943 1450 c0 -25 2 -35 4 -22 2 12 2 32 0 45 -2 12 -4 2 -4 -23z"/>
<path fill="#4A90E2" d="M1932 1370 c0 -14 2 -19 5 -12 2 6 2 18 0 25 -3 6 -5 1 -5 -13z"/>
<path fill="#4A90E2" d="M520 1590 c0 -45 4 -69 10 -65 6 3 10 31 10 62 0 53 1 55 23 49 12
-3 74 -18 137 -32 63 -14 119 -30 125 -35 13 -12 7 -419 -6 -435 -6 -8 -4 -14
5 -17 9 -4 17 -3 19 1 2 4 4 111 6 238 l3 231 -148 32 c-82 18 -157 35 -166
38 -16 4 -18 -4 -18 -67z"/>
<path fill="#4A90E2" d="M590 1545 c0 -18 7 -25 30 -30 25 -6 30 -11 30 -36 0 -29 -1 -30 -35
-23 -27 5 -35 3 -35 -9 0 -9 17 -19 45 -26 43 -11 45 -13 45 -46 l0 -35 -41 6
c-33 6 -41 4 -37 -7 2 -7 43 -23 91 -35 l87 -22 0 119 0 118 -42 11 c-24 6
-64 17 -90 24 -47 14 -48 13 -48 -9z"/>
<path fill="#4A90E2" d="M3249 1463 l-24 -28 28 24 c15 14 27 26 27 28 0 8 -8 1 -31 -24z"/>
<path fill="#4A90E2" d="M960 1337 c0 -8 7 -17 15 -21 8 -3 15 -3 15 0 0 3 -7 12 -15 20 -13
13 -15 13 -15 1z"/>
<path fill="#4A90E2" d="M3147 855 c3 -33 9 -78 14 -100 6 -30 6 -23 2 26 -3 37 -9 82 -14
100 -6 24 -6 17 -2 -26z"/>
</g>
</svg>